<mxfile host="Electron" modified="2023-11-21T11:28:15.498Z" agent="Mozilla/5.0 (Windows NT 10.0; Win64; x64) AppleWebKit/537.36 (KHTML, like Gecko) draw.io/22.1.2 Chrome/114.0.5735.289 Electron/25.9.4 Safari/537.36" etag="TUgtyGuhE7jwuU_yliT_" version="22.1.2" type="device">
  <diagram name="Page-1" id="WzR3oEc1UzT37QsrE_Fm">
    <mxGraphModel dx="1098" dy="988" grid="1" gridSize="10" guides="1" tooltips="1" connect="1" arrows="1" fold="1" page="1" pageScale="1" pageWidth="850" pageHeight="1100" math="0" shadow="0">
      <root>
        <mxCell id="0" />
        <mxCell id="1" parent="0" />
        <mxCell id="3_XM-E1TAf-acxFjR0ga-4" style="edgeStyle=orthogonalEdgeStyle;rounded=0;orthogonalLoop=1;jettySize=auto;html=1;dashed=1;" parent="1" source="3_XM-E1TAf-acxFjR0ga-1" target="3_XM-E1TAf-acxFjR0ga-3" edge="1">
          <mxGeometry relative="1" as="geometry" />
        </mxCell>
        <mxCell id="3_XM-E1TAf-acxFjR0ga-6" value="alert" style="edgeStyle=orthogonalEdgeStyle;rounded=0;orthogonalLoop=1;jettySize=auto;html=1;" parent="1" source="3_XM-E1TAf-acxFjR0ga-1" target="3_XM-E1TAf-acxFjR0ga-5" edge="1">
          <mxGeometry relative="1" as="geometry" />
        </mxCell>
        <mxCell id="3_XM-E1TAf-acxFjR0ga-1" value="Server #1" style="shape=image;verticalLabelPosition=middle;labelBackgroundColor=default;verticalAlign=middle;aspect=fixed;imageAspect=0;image=https://brands.home-assistant.io/_/prometheus/logo@2x.png;labelPosition=left;align=right;spacingLeft=0;spacingRight=5;" parent="1" vertex="1">
          <mxGeometry x="540" y="330" width="221.68" height="72.05" as="geometry" />
        </mxCell>
        <mxCell id="3_XM-E1TAf-acxFjR0ga-7" value="alert" style="edgeStyle=orthogonalEdgeStyle;rounded=0;orthogonalLoop=1;jettySize=auto;html=1;" parent="1" source="3_XM-E1TAf-acxFjR0ga-2" target="3_XM-E1TAf-acxFjR0ga-5" edge="1">
          <mxGeometry relative="1" as="geometry" />
        </mxCell>
        <mxCell id="laidLwRTKifzdVjJaCIg-2" style="edgeStyle=orthogonalEdgeStyle;rounded=0;orthogonalLoop=1;jettySize=auto;html=1;" edge="1" parent="1" source="3_XM-E1TAf-acxFjR0ga-2" target="laidLwRTKifzdVjJaCIg-1">
          <mxGeometry relative="1" as="geometry" />
        </mxCell>
        <mxCell id="3_XM-E1TAf-acxFjR0ga-2" value="Server #2" style="shape=image;verticalLabelPosition=top;labelBackgroundColor=default;verticalAlign=bottom;aspect=fixed;imageAspect=0;image=https://brands.home-assistant.io/_/prometheus/logo@2x.png;labelPosition=center;align=center;" parent="1" vertex="1">
          <mxGeometry x="960" y="100" width="221.68" height="72.05" as="geometry" />
        </mxCell>
        <mxCell id="3_XM-E1TAf-acxFjR0ga-3" value="Alerts Definition File (.yml)" style="sketch=0;outlineConnect=0;fontColor=#232F3E;gradientColor=none;fillColor=#232F3D;strokeColor=none;dashed=0;verticalLabelPosition=bottom;verticalAlign=top;align=center;html=1;fontSize=12;fontStyle=0;aspect=fixed;pointerEvents=1;shape=mxgraph.aws4.document;" parent="1" vertex="1">
          <mxGeometry x="622.34" y="490" width="57" height="78" as="geometry" />
        </mxCell>
        <mxCell id="3_XM-E1TAf-acxFjR0ga-17" style="edgeStyle=orthogonalEdgeStyle;rounded=0;orthogonalLoop=1;jettySize=auto;html=1;" parent="1" source="3_XM-E1TAf-acxFjR0ga-5" target="3_XM-E1TAf-acxFjR0ga-11" edge="1">
          <mxGeometry relative="1" as="geometry">
            <Array as="points">
              <mxPoint x="1210" y="366" />
              <mxPoint x="1210" y="285" />
            </Array>
          </mxGeometry>
        </mxCell>
        <mxCell id="3_XM-E1TAf-acxFjR0ga-19" style="edgeStyle=orthogonalEdgeStyle;rounded=0;orthogonalLoop=1;jettySize=auto;html=1;" parent="1" source="3_XM-E1TAf-acxFjR0ga-5" target="3_XM-E1TAf-acxFjR0ga-14" edge="1">
          <mxGeometry relative="1" as="geometry" />
        </mxCell>
        <mxCell id="3_XM-E1TAf-acxFjR0ga-20" style="edgeStyle=orthogonalEdgeStyle;rounded=0;orthogonalLoop=1;jettySize=auto;html=1;entryX=0;entryY=0.5;entryDx=0;entryDy=0;" parent="1" source="3_XM-E1TAf-acxFjR0ga-5" target="3_XM-E1TAf-acxFjR0ga-16" edge="1">
          <mxGeometry relative="1" as="geometry">
            <Array as="points">
              <mxPoint x="1210" y="366" />
              <mxPoint x="1210" y="458" />
            </Array>
          </mxGeometry>
        </mxCell>
        <mxCell id="laidLwRTKifzdVjJaCIg-4" style="edgeStyle=orthogonalEdgeStyle;rounded=0;orthogonalLoop=1;jettySize=auto;html=1;" edge="1" parent="1" source="3_XM-E1TAf-acxFjR0ga-5" target="laidLwRTKifzdVjJaCIg-3">
          <mxGeometry relative="1" as="geometry" />
        </mxCell>
        <mxCell id="3_XM-E1TAf-acxFjR0ga-5" value="Alert Manager" style="rounded=0;whiteSpace=wrap;html=1;fillColor=#f8cecc;strokeColor=#b85450;fontSize=15;fontStyle=1" parent="1" vertex="1">
          <mxGeometry x="970.84" y="346.03" width="200" height="40" as="geometry" />
        </mxCell>
        <mxCell id="3_XM-E1TAf-acxFjR0ga-11" value="Email" style="sketch=0;outlineConnect=0;fontColor=#232F3E;gradientColor=none;fillColor=#232F3D;strokeColor=none;dashed=0;verticalLabelPosition=bottom;verticalAlign=top;align=center;html=1;fontSize=12;fontStyle=0;aspect=fixed;pointerEvents=1;shape=mxgraph.aws4.email_2;" parent="1" vertex="1">
          <mxGeometry x="1310" y="260" width="78" height="49" as="geometry" />
        </mxCell>
        <mxCell id="3_XM-E1TAf-acxFjR0ga-14" value="" style="shape=image;aspect=fixed;image=data:image/png,iVBORw0KGgoAAAANSUhEUgAABLAAAAGFCAYAAADtrgp2AAAAAXNSR0IArs4c6QAAIABJREFUeF7snQl4VdX19tfaZ7hDJiYZBUFERkNCAiEJw2UQFbUqFlrH1lZtP2sdq9apTdVWrQqodWpta6uif6izLQKikZlAGILEAcSBec6ce+85Z6/vOaitE3CT3OGcc9d5Hp9q2Xutd/3WviR5s8/eCPwwASbABJgAE2ACTIAJMAEmwASYABNgAkyACTABBxNAB2tjaUyACTABJsAEmAATYAJMgAkwASbABJgAE2ACTADYwOJFwASYABNgAkyACTABJsAEmAATYAJMgAkwASbgaAJsYDm6PSyOCTABJsAEmAATYAJMgAkwASbABJgAE2ACTIANLF4DTIAJMAEmwASYABNgAkyACTABJsAEmAATYAKOJsAGlqPbw+KYABNgAkyACTABJsAEmAATYAJMgAkwASbABNjA4jXABJgAE2ACTIAJMAEmwASYABNgAkyACTABJuBoAmxgObo9LI4JMAEmwASYABNgAkyACTABJsAEmAATYAJMgA0sXgNMgAkwASbABJgAE2ACTIAJMAEmwASYABNgAo4mwAaWo9vD4pgAE2ACTIAJMAEmwASYABNgAkyACTABJsAE2MDiNcAEmAATYAJMgAkwASbABJgAE2ACTIAJMAEm4GgCbGA5uj0sjgkwASbABJgAE2ACTIAJMAEmwASYABNgAkyADSxeA0yACTABJsAEmAATcA4BPLPgzEDEF8kEM5xRa0ay6i3LTySFjhhQQMkAos+/f0Ml+E3ZQpAlJYUtAENKo1nXfQ3ZGGhEDRtEVDSYWWZjeXm56ZxyWQkTYAJMgAmkiACGhoe6gIR2e8yGbPvrjKZCUDWVDAEiA1VQiUBHRAUBfYc0EqEAoQGA/c9/H0KKEMB/v7YQUISIrM8HULOUQgJZTfZ/marVaFoYJSJTRyG7qB3qolo0HIhYjapoanytsrLZnpQiJpzW4QTYwHJ4g1geE2ACTIAJMAEm4AkCeFpRUVaDpQ+oNyO5RHKQSZb/m5URAAo89INCAAH9BBAkKfX//v+IfoDPDSwk+9+//hCABIQIEJmEFAXCZgWxmQjCBNBESGH47w8VAD7Uqn2mMmv5xuUHPEGZi2ACTIAJMIEjEpg6aKperX50BQH1F6i0VwAyTWll2F9nENGPCP5DX18QFETQwPas/mdYISCoSKB8LQmCSfQ1A8tA++vR505UBMi2vij8xX+HicCwvxYhAKlCaZRgf72CsD1GEkWQ8N2gpbywqnrVLm4nE/gqATaweD0wASbABJgAE2ACTCABBAoKCjTLommGpEm232T/YCAAu1lAxwJAdyLSE5C2RSERcYcK4g1VpZsqKyv3tWgyD2YCTIAJMAFXESgtLc2qrQ9fKUFeBQBdHSx+O4J4gxCeql5fucTBOllakgmwgZVk4JyOCTABJsAEmAATSAsCytChhY+YICcQ0QlOrhgBwyhxyLvvVn7kZJ2sjQkwASbABNpGYHDesBtB0nUE0KVtkZIyu0kV4sEevs73zF05ty4pGTmJ4wmwgeX4FrFAJsAEmAATYAJMwG0E7N1XYZNqiSjgBu3Zim+yP8e/gM/HckO3WCMTYAJMoOUERheOLq0xmh6wSBa1fHZqZigoNmsgbl2zftXs1CjgrE4jwAaW0zrCepgAE2ACTIAJMAHXE5gwYkLHneEDrnklr4OWcbWlW39Zvny5fXguP0yACTABJuAxAicNHXavJLiSgL51AYhTS0VEi4Buq16/9h6namRdySXABlZyeXM2JsAEmAATYAJMIA0IhPJCvffI2o/dUqqCYno07C/74IOl9W7RzDqZABNgAkwgdgKDhuY9AYSXxz7DGSMJ8Lb3qtb83hlqWEWqCbCBleoOcH7HEfj47739qpbVTyjt+5CU7YCMDijQkiAOCjS2INV+2O28D/cj8vWujmseC2ICTIAJOITAhPzRg3ZaDRsdIufoMhAej/r1mzavXMnnjBydFo9gAkyACbiOABtYrmsZC/4OAmxg8bJIawL2dbG7n+s3QlLmnRbkDPocxqHryTUAVAlAIJF9dax9f5QFACYBmIhg2fYVYuMnimx8UKmBuZ1/Ud2Q1jC5eCbABJgAE/gvgdCIUOGecO0qtyBRQMxShPWLdevW1bhFM+tkAkyACTCB2AmwgRU7Kx7pXAJsYDm3N6wsgQR2zOo9wILe9pWsqv0PAvgJQGl5SpIAECEAAwFJxZoLttcp8wt/Vmm0PBbPYAJMgAkwAa8QGFc8buzuxppyt9Sjovo6Sd/FGzYsOegWzayTCTABJsAEYifABlbsrHikcwmwgeXc3rCyBBDY8fyQqy3Z8bcAmA2tMqyOIopIAqJUcP/d3X64oQwRbIOLHybABJgAE0gzAhNGhM7YGa59zS1l60J9R9fx3IqKiv1u0cw6mQATYAJMIHYCbGDFzopHOpcAG1jO7Q0rixMBeqJA25mt/FRSoIwAu8QpbExhBNRc1rSv29P9rpobtd9NjGkSD2ICTIAJMAHXEwiNDP1gT1Pt824pxCfUCqHI0ysrK11zc6Jb2LJOJsAEmIATCLCB5YQusIa2EmADq60Eeb5jCWydXRzQDbNbFIPPAGBx6oRSHYqa4SSCW3tO4+vJU9cHzswEmAATSB6BcUUTf7K7ef9fk5exbZn8ir6BQJ+wdu3ivW2LxLOZABNgAkzAiQTYwHJiV1hTSwmwgdVSYjzeFQS2zj6lA5hNvwYUPwXCDqkXTc2CGv8W1TLv6jOtfFfq9bACJsAEmAATSCSB4mHFN9Sa4T8mMkc8YwcU30eqQaUr3125O55xORYTYAJMgAk4gwAbWM7oA6toGwE2sNrGj2c7jAAR4NbnS7shaQ8BwLkOkwcI8L5pyslPbVn0aVkZn4/ltP6wHibABJhAvAgMPCn/DkS4PV7xEh3Hr2h7FZVyV61axb9kSTRsjs8EmAATSAEBNrBSAJ1Txp0AG1hxR8oBU0WAykBsHVDSB6V6L4BwnHn1FS7vojAv7PGDJRv4kPdUrRbOywSYABNILIHBucPuIqBbE5slvtFNlMd+uH799vhG5WhMgAkwASbgBAJsYDmhC6yhrQTYwGorQZ7vCAK2ebWjb2k/UtQ7CHCaI0QdUQStI2Fc3vP9ZZXIO7Gc3y5WyASYABNoIYEhQwvulySvb+G0lA5nAyul+Dk5E2ACTCChBNjASiheDp4kAmxgJQk0p0kcAQLA7c+P6kdSKQPA8xKXKd6RqQLQuurYHy6pQOQbCuNNl+MxASbABFJJ4KS8wj9Z0vpFKjW0NDcbWC0lxuOZABNgAu4hwAaWe3rFSg9PgA0sXh2uJ7D16dAJIOg3gHiR24ohhKUoret6XrC4wm3aWS8TYAJMgAkcnsDQoYVPGmT91E2M2MByU7dYKxNgAkygZQTYwGoZLx7tTAJsYDmzL6wqRgLbnik6ltBn3zboqt9yf608pPmExvW9frjs3RjL5mFMgAkwASbgcAJ5ecOfiUrzAofL/Jo8NrDc1C3WygSYABNoGQE2sFrGi0c7kwAbWM7sC6uKgcCuf+ZmmGrGhUTaPYCiXQxTnDmEZBOC8YQR3XlHn0s+qXGmSFbFBJgAE2ACLSGQP3T4vyJkOvlCkW+VwwZWSzrMY5kAE2AC7iLgWgOL4Pb3Nqz9PQAfueKuFZcYtWxgJYYrR00CgU+fHVWgIM4kUEYlIV2CU1gbFTRv737e8pcSnIjDMwEmwASYQBII5OWNeC0qjTOSkCpuKdjAihtKDsQEmAATcBwBtxpYAFjWuUP278vLy03HQWVBSSfABlbSkXPCeBD47LnS7kjwawDtl/GI54gYJOdaMnpb74tWrHGEHhbBBJgAE2ACrSYwLH/Em2HLmNDqACmYyAZWCqBzSibABJhAkgi41cBSUNx1bGPnu+ZunhtJEipO42ACbGA5uDks7bsJEAFun10aAkuZTSA6eYUTAjUCytt7/HDxTL6V0Ctd5TqYABNIVwLD8kcsDVtGiZvqZwPLTd1irUyACTCBlhEYmJv3ZwS8rGWzUj9aQXFvRyPrrvLq8obUq2EFqSbABlaqO8D5W0xgy7Mlx2kIdwPo57V4ssMnIFhvgYjeeuwPV65wuFSWxwSYABNgAkcgUJg3ck2TjOS7CRIbWG7qFmtlAkyACcROYOrUqUr1B5ufIABX3Y5rV6igmN5FbX/Hm5Vv1sZeMY/0KgE2sLzaWQ/Xtf25MSUEsIBIBL1XJoUFWNd3P3/JY8gHFXqvvVwRE2ACaUOgMH/ke01WZICbCmYDy03dYq1MgAkwgdgJhEIh/96DdY8R0Y9jn+WMkaoQD3YLdLpj3vJ5B5yhiFWkkgAbWKmkz7lbTODjvw/vqvv0OyVol7Z4slsmkPWKRubtXS9cvsEtklknE2ACTIAJfJ3A8PyRWxqtSB83cWEDy03dYq1MgAkwgdgJTJo0KWP7nv2PkpQXxz7LGSNVIR7tGuz4u/nL5u9xhiJWkUoCbGClkj7nbjGBz54PDUFJiwGwXYsnu2YC1QHRFT0vWPSsaySzUCbABJgAE/gageH5I7c3WpHubsLCBpabusVamQATYAKxE5hYMDFnl3ngEUl0QeyznDFSF+pfjsloV7Zg6YIdzlDEKlJJgA2sVNLn3C0isPqJAq1HtjLJpODrLZrowsEIxi26evDhztOq+bBCF/aPJTMBJsAETho6LGIR6W4iwQaWm7rFWpkAE2ACsRM4fdTp7T+r2/WIBdJ1ZwjrQv17Z639b+evmr819op5pFcJsIHl1c56sK49s4d3NUzl7xL8p3qwvK+VhBBdK8i4pvsFqxZ5vVaujwkwASbgRQKDcvPJbXWxgeW2jrFeJsAEmEBsBEIFoU77zLo/SaIfxDbDOaN0of2zs96ubH7F/I+do4qVpIoAG1ipIs95W0xg69OhE0ChdwHQ1+LJrptAJhFe1OuC8uddJ50FMwEmwASYALCBxYuACTABJsAEnEJgQtGELnvCNQ9ZJKc5RVOsOnShzuoQzPrNW8ve+ijWOTzOuwTYwPJubz1X2dZnx/QDFB96rrDDFCQgfJOecfCxY876oD5dauY6mQATYAJeIcAGllc6yXUwASbABNxPYPLwUNet0XrbwJrqtmp8ivp/7ZTM3769+u0P3Kad9cafABtY8WfKERNAwD7/qmuGeQqJ9q8lILxDQxpbVJA/6Xb+8nccKpBlMQEmwASYwGEIsIHFS4MJMAEmwAScQmB88fgee5pqHpRE5zpFU6w6/Ki+0N6f/ZuFKxdWxzqHx3mXABtY3u2tpyrb/0xRdrPiu5dI/NxThR2lGAI4p9f55S+nU81cKxNgAkzACwTYwPJCF7kGJsAEmIA3CJxcenL3nQ37H3KlgSW0lzsFg7fPX1b+rje6wVW0hQAbWG2hx3OTRmDXP3M7W2rgbQmBQUlL6oREFP51hrbn8Q7TttQ6QQ5rYAJMgAkwgdgIsIEVGycexQSYABNgAoknECoKHbsv3PCgJGtK4rPFPcNbBHjre1VrVsQ9Mgd0HQE2sFzXsvQUvPUf43uAJrelW/WI0e0INK3HecuXpVvtXC8TYAJMwM0E2MByc/dYOxNgAkzAWwTGl4w/bm9j7UyL5NkurIwNLBc2LVGS2cBKFFmOG1cC6Wpg2RBVQZO7/uCdNxDBdVeyx3URcDAmwASYgIsIsIHlomaxVCbABJiAxwlMGjGmz65ww0wT6HsuLJUNLBc2LVGS2cBKFFmOG1cC6WxgCWwqy1QaH86ZtvFAXKFyMCbABJgAE0gYATawEoaWAzMBJsAEmEALCZxWML7vdrNuhknWmS2c6oDh+BYB8CuEDuiEEySwgeWELrCGoxJIZwMLwdgtyDy9+wUrK48KigcwASbABJiAIwiwgeWINrAIJsAEmAATAICTi07utzt8YLpJ8gwXAnkHhXLrxnWrl7pQO0uOMwE2sOIMlMMlhkA6G1g2UZLRU1boyxZOmwZWYghzVCbABJgAE4gnATaw4kmTYzEBJsAEmEBbCEwYMeHEPZHa6RZZp7clTirmIuISheCWqqo1i1ORn3M6iwAbWM7qB6s5DIEvDKytAJCeaxab70cf3XPslIr9vEiYABNgAkzA+QTYwHJ+j1ghE2ACTCBdCJxaOK7/DrN+uimtyW6rWQCuACFufnfd6nK3aWe98SeQnmZA/DlyxAQT+Hh2qKtmynUEokuCUzkyPIKxXwEY2+38pRsdKZBFMQEmwASYwNcIsIHFC4IJMAEmwAScQmBSwaQBu6wDtoF1mlM0xapDoKgQpNxcVVXxVqxzeJx3CbCB5d3eeqqyT58d1V4APQmoTfFUYS0oBqFpQg+14h3k1whbQI2HMgEmwARSQ4ANrNRw56xMgAkwASbwbQKuNrBArFEF/nrdutULuLdMgA0sXgOuILB1dnEADOUyQPVBVwhOgEiEpifAqLv12B+9z68RJoAvh2QCTIAJxJMAG1jxpMmxmAATYAJMoC0EXG1gIa4XpPy6qmrVG21hwHO9QYANLG/00fNVlJWBuKRfUb7AwGrPF3uYAhGNWk3isC4XLNmSrgy4bibABJiAWwiwgeWWTrFOJsAEmID3CbjZwFJQvKugetO6dSv/4/1OcYVHI8AG1tEI8Z87hsDWZ8f0AxQfOkZQCoSo2DCuq7J6Mb9GmAL4nJIJMAEm0AICbGC1ABYPZQJMgAkwgYQSGDd83OD90fr7TbJOTWiiBARXEKs1UG9as77i9QSE55AuI8AGlssals5yd8wu7SUtsYBIOTFdOQhoeC4aMa/oc8m6mnRlwHUzASbABNxAgA0sN3SJNTIBJsAE0oPA5wZW3QMmyVPcVrGC4oMvdmC94jbtrDf+BNjAij9TjpggAntmD8qMynaXk9QfSFAKx4dFsBp9Puh3zLmLdzpeLAtkAkyACaQxATaw0rj5XDoTYAJMwGEEJhRNGLQ3XPuAK3dgCfGRJrQb16xZ8aLDsLKcFBBgAysF0Dll6wgQAe6aNXq4icrK1kXwxiyVDo5frK1fNI1vI/RGQ7kKJsAEPEmADSxPtpWLYgJMgAm4ksApw8cN3unSHVgqik90od6weu3Kf7kSPouOKwE2sA6PE0tfuTdT0fXrRLg5LybqQlmPuu+5t0+9+kNApJjm8KAWEdj2/KgTQcKrBGr/Fk300GAB9fMU0zi368VVjY4tiwgvr6wMZFhZU9FoOBlQZhxOKwGYoGa/vu3T9c/MmTpV8mfHsV1lYUyACbSAgBsNLBX0nlVVK7e1oEweygSYABNgAi4gMKlk0pDdjQceMMia5AK5X5OoorLVp6g3rFqz4v/cpp31xp8AG1hfZUqEY+bPvAWbwqUoSQMBKqA4CaTsGAt6AjgAAB8hQS0gECjKs81a4KWVk6+qi2U+jzk6Afs1woiZfQmA/6Gjj/bqCBnJUPUuHaa9WeukCq9c+X4f3Wi6BMAaSUSIiAqh6IMgewCRdlitiBJAbEWyNhEgHTKwhL5uK7Uvm1PSs9lJNbIWJsAEmECsBNxoYPmUQO+1a5d9GmuNPI4JMAEmwATcQWBi8cST9jbV3O9GA0sTyg4VtBsq1y2f5Q7arDKRBNjAAoAx/55+EkbDNwNBb0Q8EYg6AEAc2OA2RNohhdqACl5dfsYN7yaymekQ236NcNtzo8cAKOXpUO/hatRg74Qu5218G22jNIXPL1dsOlaTjZcARU8FggxA7PnF56eNqkQNAX0AKBoB1BdmlA59tI0BeToTYAJMIKkE3GhgZVBG31UblmxJKihOxgSYABNgAgkn4GoDC5XduqL8atWalc8kHBQncDyBOJg0jq/xsALHzXuwgJrDN4C0CgGgBwD4E1ENAUoE+pgAGsnUzl407YaPE5EnXWJufab4JBDKswDqSelS8zfrFFBf+eGHWSPHlZWbyWZw7bKtHQhrf6xYzT8iBB0IugBQ+4ToQJREsF8A7CSAv2eXFj5UdmjHFj9MgAkwAWcTcKOBlYkZ/SvWL9kEkNpfjji7s6yOCTABJuA+Aq42sISyzwfqryrWrfiH+8iz4ngTSEsDK/T3Mj/k6HcS4PmI0BGIfPEGe4R4W0nV6k2SI5eedVN9EvN6JtXW2cUBsMT5QNqTnimqxYWQtbu+IVD4s0qjxVNbMeGXmzb5lH3N3xcyUgZAKhC2A6B2rQjV6ikIeBCADhDCXdNLRzzV6kA8kQkwASaQBAJuNLD8qm/QmjUr3mcDKwkLhFMwASbABJJIwNUGFqoHdUVcv2rNyr8nERmnciiBtDOwQq/e9zOyrOtRyp6AidlxddReIxIR7bWCgQuWnHrtm0cdzwO+ReCz58dMQinmpTMaHbZP6nL+pgWJZHBNxYdTMFrzJwQQABAAgOxE5osxdj0J/TmAzPtmlJywOcY5PIwJMAEmkFQCbjSwcjR/7vLK5fZxByl9PT2pjeJkTIAJMIE0IOBmA0tH9aAqxK9Wr135tzRoFZd4FAJpY2CF3i5TqcZ3AxL9FhB1IHJC7c2kaZXvnHnDaF6pLSOw/bnifADlz5JU+/XP9HyImnpe8M5hb/drLZTrV205mSL77C26mYCgAh0yrpz2mCS0gxLwogdL8tLayHRaY1gPE2ACnxNwo4GVpeqFK9esXAsA/Ko2L2QmwASYgIcIuNnAsn+pQkDXvle17kEPtYRLaSUBJ5g4rZQe+7RRb844XjRGfyMs6+L4HM4ee+7YRuL+8ik3d4ptLI+yCax+okDrkuOfBlJL68P8ep5fHpfP8DWrNpeK6MG/AdEJBIAYl0sMEr9Wyd4lQDhpxujhvJMx8bg5AxNgAi0g4EYDK1vzjVxRuWIVG1gtaDQPZQJMgAm4gIDLDSz7G37bwJrpAtQsMcEE4vLDb4I1tj58WZkIleTkQtgsA9M4q/WBkjJze8T091s+7brmpGTzQJLPnh13FqJ8EQDt19vS8lFgxzndz//w5ViLJyL8XXW1Vltbq4DW8SSI1M0EoJFuMawOVyeB8oODRt2rT40bF46VBY9jAkyACSSSgBsNrCwtOPq0ypOXlUEZ78BK5OLg2EyACTCBJBNgAyvJwDldwgh418CiMjH2jcwCMuTdwjQnJIxgHAMTwBZLx8IlZ9x8MI5hPRvqk6dHDtMUZYYEbYxnizxaYQiRnueVH/H2TNu0uqGqKhiprQ2qasc+QjbdRgCnA5CnjD+LxDRZn/Pqw5P7RY6Gjf+cCTABJpBoAu40sAKn9Dq+x8I5c+ZYiebD8ZkAE2ACTCB5BNjASh5rzpRYAt40sIhw/Nz7jrei8jaU8seJRRjv6LjRInny4nNv3RnvyF6L93YZqH37j7kYSfzVa7W1oB4D1M05Padt+9rOvTIi0VxZmWVGRLsoig4qyMtRmpcBgNKC2K4bakqYuHP08PI5iPzDl+u6x4KZgLcIuNHAaq8HJ3Xv0/0tNrC8tRa5GibABJgAG1i8BrxCwJMG1oQX/9DRQvwl2Ae2u/FBWG0I5aylZ920w43yk6n501ljpgnApwDQiQeNJwOFJeDAz3ucX/WkfTHBjUs/yLRkTU/SA9kk5TSUxi8BQE2GEEfkQCQhYfynOz9ePGfaNDaxHNEUFsEE0pOASw2s07v36T6PDaz0XLNcNRNgAt4lMKkwNGS3UX+/QfIUN1bJZ2C5sWuJ0ew5A6vgtbJgVlQ7HxD/khhkSYkaJkV5yecXl80/5YbGpGR0aZJts0vyyBR3A6inurSENsuWIGpn9rp7IgpdJylLEazfA4DW5sDuDWARZAydMWrwRveWwMqZABNwOwE3Gljt9Myz9Uzl3+Xl5abb+bN+JsAEmAAT+B+BCUUTBu0N1z5gkuXKn5nYwOLV/CUBTxlYBauf0DJ31p0KUeNlRHD3+T4IH5Gm3vzOGTfO4eV6eAKzZ4NSIsdeThIfTSdOJknYHgaQBGAIH7zR56aIpWX70onBkWolNeNfOc17zisbN45/CONFwQSYQEoIuNHA6qhnTlUylZfZwErJkuGkTIAJMIGEEZg4cuLAPc0109nAShhiDpwkAp4ysEpfube7hjgLTHNskvglOs1SReiXLzz7V9WJTuTm+FufG3M+kG1gYY6b64hF+6dNEiISoMGKwNw9AIZEQKFCxxNCYBz3vVhCpM8YoZ85vSTv9fQpmCtlAkzASQTcaGB18mX9UGSIF9jActJKYi1MgAkwgbYTOGRghWseMKV1WtujJT8C78BKPnOnZvSMgXXafx7yNZvNF4JpPelU2K3QFQYh/hHQg1fPnXwV36x2GICfPV8yBKVyJ4BydisYO37KZ80S6k0CAoAFew2oNb4t2ZfRDvwldzi+lmQKJKE1RRV/r0eKBu5PZl7OxQSYABOwCbjRwOrgz7pADYrZbGDxGmYCTIAJeIvApILQgF1Wg21gTXZjZWxgubFridHsGQMr9MK9x5JClShl58SgSlFUxLWIePPbZ/96XooUOD5tWRmIn5w49hoEfMDxYmMUuC0sYV+EQALAqhoTdoU/N7AO9wg9C9oVXQOW/5gYM6THMBT6HQ+U5LnzMof0aBFXyQQ8S8CVBpaecXEzNT9fWVn5Hb8q8WyruDAmwASYgOcJjCsc13+/WT+dDSzPt9rzBXrCwBo0u0w/xue/Ei3pGQPjfysPCYGe8vsz/x/vwjr853Hb82MuJmkbWNjJrZ/aXREJW5vp0LlW7zVYYO+8sv89lkcoGuT0Hgny+KmxDE+jMRglEew2o2TwgTQqmktlAkzAAQTcaGB19GVe0iSbnmUDywELiCUwASbABOJIYMKICSfuidRMt0ieHsewSQvFO7CShtrxiTxhYE2cfU+OocNmlNK15sWRVgqhWCM09Za3z/gV78I6DKgtT5f211Xld0TiB47/1H1F4L4owaZGC0wC2Nok4aMmCVaMptU369SzOkNg5G1uKj8ZWi2pBn83c+SQO5ORjHMwASbABL4k4EoDS8u8rAma/sEGFq9jJsAEmIC3CJxcdHK/3eEVNurzAAAgAElEQVQD002SZ7ixMjaw3Ni1xGh2v4FVVibGDvP9AE2alRhEToiKFgicUX72r29wghonaiAA3Pps6FZEcLxRUWcSrKu1wCCAfVEJHza03rT6ai8UfztoV/AzMIM9nNiilGkiUHbOGFXQPWUCODETYAJpScClBtYVTdD0JBtYablkuWgmwAQ8TOCU4lNO2Nm0bwYbWB5ucpqU5noDK/R2mQoHfesAaLCXe0YoXjR8wRuXTb7qIy/X2Zbats8adYkE5fcA2K0tcRIx1745cOkBA6L2DYImwPsNn++6iudjv0YY7FEISv/z4hnWA7GwgQIdJ88oOH6xB4rhEpgAE3AJAZcaWFftb97/RHV1ddQlmFkmE2ACTIAJxEDgtJLxfbc31s0wyTozhuGOG8I7sBzXkpQJcr2BZZ9/1VnV0+CGPtwFivhd+Vk3PZ6y1eLwxDufG9lbkv8uCXCBU6TatwY2W3DIrKquj79p9c06laxjIXPkjU4p3xE6CMAC1N6YUZrvyi3TjoDIIpgAE2gxATcaWB207Ou7NXf+05zqOWxgtbjjPIEJMAEm4FwCE4ZPOH5vtHYmG1jO7REri42A6w2ssXOnn4PN4RdjK9fto/D35VNu5kOODtNG+zXC7c+NvYsIb0llp9/eZ8BBAw7dGvh+/eevCibrUYMdIWfoxWBm9klWSlfkIYRtM0pH9HSFWBbJBJiAJwi40cA6Rs++qXNT55lsYHliCXIRTIAJMIH/Epg0YlKfXdEDM01pfc+NWHgHlhu7lhjN7jewXruvAg1jeGLwOCyqUF629MCtiydfVe0wZY6R89lzo36CpJQBYFLNiiUHTNgR/vwsq0+bJYSt1CCxXyP0d80DbdBFqRHg2Ky4k0TXITNKevJthI7tEQtjAt4i4EYDSxfq3Q0NnX63efPcNNjZ7q31xtUwASbABI5E4NSRod7bw/UzLSnPciMpNrDc2LXEaHa9gRV66Z4okNQSg8dhURFqgMRt5VN+/YjDlDlGzu5ZRV2i4L8fAC9MtKhVNeahA9jt1wP3RCQ0WZ/vukr1o7Y7HjKGX5NqGQ7LjzWkZ/1sxogBsx0mjOUwASbgUQJuNLCAxPSm+qxbP/mkPOzRtnBZTIAJMIG0JDC+ZPxxextrZ1okz3YjADaw3Ni1xGh2v4H14h+c4BkkpjvfGZVuK59y6++TmNB1qbbOCs0EgKsTIXxjgwVra61DO6xqDIJGkxxhWn21Vi2jM2QPmQZm9omJQODWmGESvqdmlAz9f24tgHUzASbgLgJsYLmrX6yWCTABJuBlAhNLJ/ba3XDwQTawvNzl9KjN1QbWhFdmdrGspl3p0arPqyRFfd3y+W9bcupV69Op7pbUat9GaIHyGwTs3ZJ5hxv7cbMFi/ebh24PtA9kb7QIpINtUxQK+LoMBd+QH8ejfI/EQIuEr2JGSW6JRwriMpgAE3A4ATawHN4glscEmAATSCMCk4ZP6rkzut82sM5xY9m8A8uNXUuMZlcbWGMWzJgi6ptfSAwap0bFZgC4rnzKzXwb4WFatPevpVlNfu0xga2/jXBXRMK8fVGoieChQ9ibHG5afROF2rE/ZAz7hVMXcUp0IeIHD5QOH5CS5JyUCTCBtCPABlbatZwLZgJMgAk4lsCk4WN67ow2soHl2A6xsFgJuNrAGvvyPbeglOn3Oh3BteXn3mK/JsfPYQhsnRX6CwBc2hJA9SbBC7sjsLcZQQJBRIKjd1odqTY9qwtkDzwbjJzBLUHg6bGEsGlG6Qh+r9LTXebimIBzCLCB5ZxesBImwASYQLoTCBWFjt0XbnhQkjXFjSx4B5Ybu5YYza42sMa9fM+fScrLEoPGwVERFpKCN7/zvZtXOVhlSqVtm1X6IwL1dgDseyQh9quAT+9ohu1NeOgsK1M64yD2tsJDRNC7DAX/ST9payjPzGcDyzOt5EKYgCsIsIHlijaxSCbABJhAWhAYXzy+x56mmockERtYadFx7xbpagMr9Nq9L4FhufImhbYuKQK4/J0pt9i7jPj5DgJUVia29X/naSA6/7sAzdoZhk113jCrDrcAtM65EBzaok1onl5LbGB5ur1cHBNwHAE3GliIOKOxNvsWvoXQccuJBTEBJsAE2kTg5NKTu+9s2G8bWOe2KVCKJvMOrBSBd2BadxtYL9/zd5AyLU+qJglXjDs3+kQZlkkHritHSNo2a+w/TIKLJCHau6sW7IvCuloJRpoQ82V1hqwTTwejQ74j+uEAER9OHzWivwN0sAQmcCQCOHXqVNGwtkGtOaZGRKNRNAzjsF+rA4FAe7/0d5MkdIXoGEBQ7eAW4l40LKNZk7ukVOsM44B9fuJhH03TKGt/lqzvWG9VVlaa9p0h3Ka2EXCjgQUEDzfV59zIBlbbes+zmQATYAJOI3DK6FO67ajf95Al5fedpi0WPWxgxUIpPca42sAa++I9DyDI69KjVV+vkoRYJEDe+PbZt6xMx/qPVPO1y5YF/Er74Llbf3fB6h07rt9YE+3VZKUfJUQArVshBAZfnH7Ff7NiRAOENm96cd6ZDIMJOIXA1EFT9WqsztR1XbEs69DXYz/4M/y6f7RB1pR6M5yHQJ0tokAiNSNgGAH3Kii2BxRtniTxUtiq2/llzrCmySwAIysrq7G8vNw2t/iJgYAbDSwB8HhNhv+6bcuXH9HwjKF8HsIEmAATYAIOIjB5eKjr1mj9QxbJqQ6SFbMUNrBiRuX5ge42sF6ffgVGw494vkuHLRAvLJ9y87PpW///Kr989eqgzzQ7qIaio6qeB5Z5JZLs2rj+STD2bkhbRHqXPAgOuRBI6GnL4IvCGwG1+6aX5v8u3UFw/SkjgCNGjOhQbxiZ0rKEraKTnjW+Jtr8KwQ4XgI59kMqAPdrQlmrgPhTszA2mqZpBYSgZsTo8V277p87d24kZVQdnNiNBhYi/rk26LuGDazkLqxQKKRGIhGtnWynRSmq2dl31Nd87e8EREHdMrMNtNA0m00LOoNtJpvl5eX2r+h4x2RyW8bZ4kzA/gzAHvBndDC1g3VSO2hEFOmXn/9iR37+v18+YSFIhAVpms/qrAUjWq0Wnrt5bpQ/B0duyoSiCV32hGseZgMrzouXwyWdgKsNrNFzZ+YqzU3rk07NKQkFXQk5xl/Lx5WFnSIpmTouf211MKcDdCOggARlvO3MI1m9v/ZFbuPTEN21Bkim4RYsAPBldoKME04F65gRyWyNE3PtMX2ZEx4aPuhdJ4pjTd4kcFrRadm7jd2dw5blU0n1qUK5LkrWmZJkttsrFohRIPgwS/PdXWM0ViEi+RUl0gE77H2z8s1at9cXD/1uNLAEir9mBfVfLucdWPFYAjB16lSl4bPPMg40Q3YYw0FTCPVLA/urCfyKr4uP9D6KKvoIgF6EJA5EGgd8dYwCGGmnZ3xkEe0GgL0WyT0mWtubrcgekvJbOyPtz6RKmiklmcGgUnPcccfVzJkzJz2/GYpLNzlIawmEQiF/fX19+zBRBhDp3/UZCGqB7j7S8xSEfk1W9LhmGe2ICAoQ6gB06NV4+0FAKYFss8rQhXogQ/GvM2W0shGimy3L+tbPQ/ZngAiMdu0CB5YsWWJ/bUqTg0S+3a0vDCx7B9a01vYylfN4B1br6JfklnSup0gHE43/fo4OfZYQCRUl0t4I7l+yYcnB1kVPzSxXG1hAhKGX7k7bv4gIoQIUvDKdbiP85aZNPn1/fV8yo9kg9EFAdAOQ9bVv8r72Dd+BKqj/4BUwGvam5hOW4qz2B1w/tgT8A3+YYiUpT799+qgRx6ZcBQvwPIH8/NHHEIV7RKTlz1H8Y5soepkprT4AcGjXlVcfRLRUwC0BxfePWjO8ENGSGvhqeqldtr1W+VqTV+s+Ul1uNLAUFE9lBvUr2MBq8YrF0tLSzEh9pHuEZKaJcGgXlU+ILL/Q86Nkjota1hAC6kRA/hZHb8UEAWibWgcl0d6gos83COZGyaj7MpSOIqLrWNupU6ftvIuyFYB5yrcI2Ibt5s27OhhGYzdSFZ+UlmIPCgi9rwTzbFPKYQTQlYCCycInQOwnkruDuu+1sLTmmpZ1aMewjkISQVO3jI475i2fdyBZelKZ55Ti4g47GqN/skCel0odrc3NBlbLyA0ZUtBXKmZHn/D9zJTmFIso55AH/L9HKkJsyUDf87VW+N8ISEKRlrC0/abZsL26uto2ih35uNvAAoDQi39I723TCOeUn3PLy45cXXESNXX2bKVntxOGAJmdSBVdkMSNQObQ2MITNK55FMz9H8Q23IOjfF3zITBgKpCW6cHqjl4SARCieHd6aWHu0UfzCCbQcgLFg4s7NGtm36g0szWhTLJIXiSJurU8kndmIEBERbVCUZSnw2ZkiwrYqCj00dq1a9PmtwnuNLCUZzKD2uVsYB39sxgaGep9sLn+WIOkDxFVPyoDTIIfWmANkETtjh4htSMEil0aKmsEwLPN0tiNKKRCarOmmTsqKys/S606zu4SAiI0MtTry8+BChgUQh1lSmsqInS1SCb0/Ma2MBIoDCD6KKj6n28wm5fYsYQgSyFtbzCobvHi34FsYLVlxbhqrhg8OP8kUPBuAhpv/y4lRvUkQDQAwiJB+IwJ1l6FwPRhYP8xAeuzuStX/vcXIDHGS9gw9xtYL929D4g6JoyQwwOTwOtMFE8uPeumeodLbbG8ayo+zEOrvieaph+EdgOQObzFQQAgUv0MRHatBbKM1kx3/Rw9owME+p4K0GWk62tpZQFhEL7bp5cMvb+V83kaE/gWgTIoE68VvHZsNIqDhaBCC+BiSfIERvXdBBQQnykCnzGktVJX1FpNw3crKir2e5mXGw0sFZXnNZV+WllZmZa75o60HseXjD9uf2Ntf5PIZ/9eJFMNfL/RjEyWID3xPai9i1KA2CEA3jTJehkRJQqlTgVz89q1a3d4+bPKtcVO4OxQqN3mmoY8kla2bdwGFP2cZtOwPwcdYo/i1JEYFogrFFCfMym6y371MIjK1j4Z2kdzPPBa9ahRo9ofrGv8EwGc79QOHEkX78A6etcGDRqkox4cTmTNAIJW/dz81SwI2KSjUikEvBK2zE321wUVxcFAQHtv+fLl9muHKdlI5H4D6/X7Hoeo8bOjt9SjIxDXW4ryk8Xfu3GNFyq8Zvn6YcI0+iJYqlSDPwMZGYP09cMbW1qnqP0A6jfOAbNxT0unema877gQ+E+c4pl6WlQIQS317tZtRs+efKtWi8Dx4O8icNppp/kO7D7Qv8GM5ikoiiXRRRIog2nFTkAV4lMi+Ick+b4PtG1hM7i2urq8IfYI7hjpRgNLE+ocVZE/ZgMLDp1f9d57m/NJgH22phZUfOPDMvp9ywW7q+LxCfnc0IKtiOJlS1oVRNSkoqyqqqr6NJ3PEYoHW7fFmFgwsdceoybPAiuoK+oJhpQ/kyQ9fywDAjQqKJYgwL8toD0B4dvVwQ8b5i1f7spXDicWTMzZZR54RBJd4LY1aOtlA+vIXbPPmqurawxFTOtOAipMRI8R0VQQNwHgbNOSm4QAkwBqsoO+Vck0tFxvYI1646GhalPDukQ0yS0xJeIpi865eb5b9H5T57UVmwYLsylXymgQUf0BkBwDYMW63TGmshtWzQSrZktMY704yN8tH/wnng2kt/dieYetyX59EFD5z4zSgjPSqnAuNu4Epg4apG/PaDe0wQiXIoiJhrROj3uSNAyoolhHAP8nCXZm+DMWTa4Y/2kZlHnibEuXGlgvqYq8MF0NLHtn5Yu5r+VJlIOBRCYBTSWAYkjSuVUO/yvgACDaR1as1FHsRgwsW7t2cdq8Euzw3sRd3vji8T0ONNcOj5Ls4BfaiKhlff+LXVau/9mxNbBsQ1dDsREJXw2T8WkAtN0+S126fKN7zKzS0tKs2oZm28C6qDUMUj2HDazDd2BS7qSMPaJ2oiGN2xJlXn1XdoFoEcA2JPEMkfxUorRfQ9zdq6nL/LmbE3dDtev/Eip44gkts/PBRiR56MDMtHyEuBnI93j5OdfWuKX+q1e9318xmorQMttLRR+LYI0HadmHyyXkMd6bBeGdlSDT9DVCLZADgb6nAXYrSQhfBwc1pb990czCfp7Yoehgzp6VZv9AO3/4/Nz6aORUFcTECJkTPFtsCgtDgKiK6rMGmBszFe2DijUV/3H7Lg83GliqUF/VFHleuhlYBQUlfU0zWmKA1RkJTwag0QSQtIOmU/jRa1VqRYjPgOgFAvo4Ww+syDmYU5XIH1ZaJZIntZhAQUGBFpWiWFpyiCbEEIvkGRbJHl6/hKTFoABAReVjAjnHJLnTJ/RNgYDyltPPzTqz4MzgFmPbYwRwcWtqTvUcNrC+uwOhvFC7emiaHJHm9RJoWKr7hACfIOBfLJCNGijRgKa+X99cvzSeh8K73sAKlZWpVJA5B43o2aluWMryC/GBgsq0hWfdUJUyDTEk/tXK9/tIGR1LVqQ7CHUokByHZB0Tw9Q2DxH1n0Bd1T/BatrX5lhuDeDrMwn8J6TXRiQS6twZJcMmu7VnrDu1BOxvCg5A3RWClOIomen14Ukhek0oG03Lel4VYl/79llPlpeX27epue5xp4Gl/QdkeFpVVVWj64C3UHBxcXEgHDaHR6VZLECcRAQTJcguLQyT1sPt374rKBaaRBUBoVRrfuVlp/8Qn9YNO0zxI3JH9GlGMyQl9UYBE4igkGI/+DntkSooNlokXxUCD3bwZb68aOWiTU6EUlBQEAwb8lEC+JET9R1NExtY3yY0YcSEjnXRxilhaVxlgRxyNIbJ/nMBIixQrLOkOZ9QhHUh9nVWMhbPryx/vy1aXG9g2ddBhv7zUBGEG5a3BYTb5woSY9+a8uvFgKk5TO1w/K5c8353zTBPRrO5H6ByPBDYrwd2B6Kkr72GFfeCVb/d7a1utX5/17xDBhYFOrc6htsmkpY9fEbRgNVu0816U09gSO6wGwCgNyBcLonU1CtKPwX29ecS6G8CcXcftftjr1W+5qqDxd1oYGmKOo+syLleNrByc0s6Ixqnm2TlCsACCVRMwJ/xtv4NY+9IsUC+jISfvltV+bDbd1C2lYcb5hflFfWLgJxsSVkkkcYSUXc36HaqRkSMqqi8Ykhzc6bi31CxdvlzTtJqn5G092DdY0T0YyfpilULG1hfJzWpZFLnmnD9tGYz+gsL5IBYOaZwHCko9gkQiw2y3gfABg1hcfv2WSta+ovKpJsIiYA2ccE9OWYD7AaScT03KRFaExWTFOVOS5Ezlpxxs30jQEqfX6x8r6NG8iyU4SEIaP82s4SkdRxC8k2rr4KwPngemravStvXCFVf5iEDS+meLq8RqndPHzXslpR+GDi56whMKgwN2Rats7fX/xyAslxXgAcFC8AaQPg/BXBTd7/6Fydd5Xwk3G40sHShLpAyco4XDaz8/PxjDEtcCkgDgXCsBNnLgx+XlJeEgPuJaJaqqJ9VrVvFt/+mvCPfFjB06IgTJVgXEEAuEIz2yk2aTkKtCbHZlPS6iri1ffush1r6A3oiamEDKxFUUxMzP7+0O4BxkSmtSy2X3oCNAE0AWElI631CWZaTkzm3vLw8puOQPGFgFc+eHtAD8hE0opekZhmlPisJ/IykeeqiKbe/lwo1ZW9/7K8PGueQUT8WULYjVIpAmschgGPWmGjaCbWVj4MMp9zjS0WLDuW0DSz7VULPPyg+IuwyYkZJT1feFOP5/ji0wCG5w24RiGMskhMIgHddOatPhIj7EWAegqjMDGqPO/1VJTcaWD5FW2hZ4bO8ZGCNOmlU+3rRfKMB1BcJTiagds5a2t5Uc8jIApoTVAILV69d9i9vVumuqgYNKuilaHCFRfIkBAwREJ/zltgWkkDcK4FeV0B83D3Y6dF5y+el7PvSUCik7j1Q+zgB/DSxZScmOu/A+pyrbV4RRS4zpPwJAXniFzGI8KEAXIoEf66qWrPiaCvIMebC0YQe8c/LysToguxCxQivbFMcl08WKIveOvvWVYBIySrl6lUfnqtG68+SUgZQKLkA1glAJJKVv6V56pfeCbIpfS/NCXQ5CXx9TwfK8PYucULt7Oklea9iEj8LLV2LPN45BOwzBHaGD9wMgD8GoA72q+nOUcdKvkGAEHC3QFwoAOetX7/6aacScqOBpQvtbSnDZ3rEwFKGDh0+3SD7l2k4gYAynbpWPKxLChAfENJbxwSy7y9fUf6Jh2t1bGkDBozoqOryJgIrFwBGEUCGY8V6U5j9CspBRLFIIK7qAJmPlq+LbadJnHHgwNxhTyDQZXGOm5RwbGB9aV5FrzTI+pHXXvlFAEMV6mxN1e9cvXrpB0daVJ75Jr30lXu7qyQ3oUzf3yaQKmZYgu5M9GuEVy977wxBTRcIsjIIRX8AcrRp9dUPAG3+F9R/thwoTW8jVLQA+E88B9TuI5PyxSYlSYTy8wad/vbnwkIjJfk5qasIFOYVTY6Q+WOL5GkAwD/guqR79pXmQPCpgjjfJ3zPrVq7bJHTpLvRwPIJ7Z1ItOGM6urqBqfxbIme3KHD77ekNQAFjJOUvt8XtoRZYsdiWEFcpqB4c926VXcnNhdH/5LAoEGD9IAv46fNljkFAIv4tfiUrw0CeycxwSpFiPkd2mU+Xl5eHk6mqkFD854AwsuTmTNeudLdwCooGN0NZORXEcu8UAJ58kBjgWi/QvjTd9eveTFdDKwsBeEOYVrXxOuD4ro4iPukYo5Y9L3bP4639mtWvj8ejaafIppdgERPAHm8fYtsvPMkOh5GDkLdivtBRusTncqx8f39p4CvV8ix+toiTKJyk04Zj/1x1ID0bXBbAKbZ3Ly8omssaV7yxeGXepqV74lyEbAJkD4WoPy1i9rub29WvlnrlMLcaGDpQlsSjTac5lYDa0Re6aWNsvn7gFBMRNlOWQus4xABEoD7EOGlrv6O9y9YucCRN7V5pVcTC0p77TSb/oGA/SRRD6/U5ZE6Du0kRsA1qlCeXbeuYlay6mIDK1mk45unNL+0ewTMO5ut6NkEYL8p4N2H6MLqDeueTQsDC8rKRCg/MAwsa5V3O3r0yixJQxefe8uGeLxG+MsVm0aqVv0VSGY/QNEJiHoCkOsPyq9fdDvIiGN+xjl6U+M8Ith5IOgnnAmUcWycI6c2HKH2oKrp99w3fNDueKz/1FbD2RNNIDev8FaL5C+IyL5owrGvPSeag1fiI8AeAVgFJKZv2LB6rhPqcqOB5RP60kg0cGp1dbmrdmCNKxzXf0+09j5AKCCibvwasBM+Ad+tAQEaBYp3FRT/XLdu1aPOVepeZUOGFrxERMcTkP3KID8OJYCAFgDsECgW+FF/fNW6ZQn/GZYNLIcuhiPIGp0/+pgwGdObZfRsmQ6vwqeVgQUA41+6s68EdR1QGp9zoKpPBlT/9XMnX1XXmo/o1Su25ApZ9wuU0SJAkQNAXYAo0JpYTp2DH78CtVveAZKmUyUmVJdQNPAP/AFo3UYkNE8yg0vUpyugP5S1YODWsjKUyczNudxHYFBu3m8B8GoAsA9z9syr9O7rRHwVI4D9l/ouFZU7u1CHZ+dXzW+Mb4aWRXOlgaVoyyOR4CQXGVh40tDCxyTQOCLZBwC0lnWJR6eCgP0KMBEdBKBHqqvWlaVCgxdznjwiVLijufZRQhgKALyr2CVNRsBmAtotQPwxK0N/KpEXlLCB5ZJF8YXMwYOLOyiK8bREGUqH1+E1VJ/K0n13Llm1ZMuROuWpb9wLZt+Tk+kX16Fp/sZdyzN+agmhyRRKv6Vn3bQj1qi/XL2pr2o0XYXSmAyHzoqg9oDoB7LPHPTeg2Yz1C7+LZCZ1NfOHQUyOOg80HqU2Dv6HaWrNWIItT+Yinis4xsv7SgrK2PzqjUQ02TOVJiqbMz96DYAuJ7PAvF00w8Ghe/RjkrOI/Mq5+1MVaVuNLD8Ql8ZjgYmusHAGlFQPLXJjF5NJPMJgG9TS9VCb1NerFdQPNlRzfxDeWX5vjaFSvPJeXnDnzGlHCtB2q8LevL79zRo8UEfqks0od9RsXbp6kTUywZWIqgmJmZubm4Gov6KSdYYSpNfziCIXwzqf/wTc+bMsXcnHvbx1l9wBDj2xbsLEakiMUvJHVENRRmw9Hs3fQh4eHfihoqPuxpWw5Uowz9C27QizAB0/+uBsXao7u2bgMzmWId7blzGMf1AO+EsoEyX376K4gpDyXn24aIT6vm1Qc8t03gXJAaflH8LINxCAJ7aVRpvUF6Ih4jNPlCv7UTtnknVTiw3Glg+oVdEooEJTjawCgoKNNPCGRbJCwggi4gUL6zZNK4hYh/urinqXWvWrDzq9elpzOk7S59YMLHXDmP/8wBQyDsQ3b86vthJ3CCEuGRAv+NfO9oP8i2tmA2slhJLzfhQKKTW1DQuMqQ5nFx45nRrqCHCb7KD/vtj2YHoLQMLAEKv3zcETGsJSJnTGnhemEOq8mIDNl9UeWZZ01frufH997OiB83/J2T4BiBpX6Frb7V33UHs8eiR+tkbsP/DuQDk/h1IreKBCMEhF4PWtaBV01M+CUUtgfh5TrT2X2XjxqXnu6Apb4K7BAw8adiNiHQXf4Pvrr61UW0UAU/bWLXmrTbGadV0NxpYfqGtDUeDY5xqYI0oKD47bEZvN0naZ/uk5fcvrVqMzp8kVaGu9Avttoo1y1LyeXU+om8rLB5WfE29Gb1WgrQPNeWzHN3YxMNrjmRo/j9kK8FHFlYs3B+v0tjAihfJxMYZMnRYlSQanC6fa0T84zFG9p3lMZ6/6TkDq+g/D2UHzPDlYJr3JXZpOTw6BtqXn31N7dQ5c0T33sN+ohg1DwDJLIerTqq82jevBaAj7lBMqp5kJ8sYciFo3YYDuWunOZFQXzCF77cPjxxcnWxmnM+dBAbmDrsGgWa4Uz2rbguBbDXwx/YZyv1zFy/e25Y4rZnrRgMroOjr/E3qmKW+u44AACAASURBVKUfLHXUTa5lUCZezH31dgvgZvLAZTKtWU/pMMcntPf8Qrlu+Zrlb6RDvW2oEXNzC56xgKYREBu5bQDp9KlBxbdQJbh0xboVn8RDKxtY8aCY0Bg4JHfYZgl0fEKzOCi4gsqfu1GH2+dXzd8TqyzPGVh24eNe+EMpCVzs1TOcDtfcQ3uJ7B1FBHBsx6JfddY7/hrJ6BTrYki3cU3v3ABGNJJuZf+33swOvUA9cSpQ1nFuYGAA4D5AvDO7pOCJMuSD2t3QtFRrtM+8+nDoxz+ySD4kgexdp/ykIQEUNGrjunVLk126Gw0sv6JXBZrUUU4xsOzXKJQ6a9ABK/ybCJnnJruHnC/5BPxC26Sp2jW9VnefNweOfA5K8tWlNqNt5C7IX9C1xmp+nIDOTK0azp4sAgJxDwkat3Ht2vfaengtG1jJ6lrL8xQUFAQjBqyWIAekwzl2CGCpqMzppOfcunDVwiMe2v5Nmt40sF66u0AivopSdm/58nHXDNu0ImmbVgRNBkDjnkaQEQOy2neG0QPHAqInWxyXJum7y2Fv1YtxieXWIMGhl4LW2dG3LIcB8CAK9Rkr0u4PM8f1qXEra9addAJieH7xOIPMB6LStG9k4idNCbCBFXvjA6r2rr9RK3GCgdW7d8jfuV1kSpTMO6Nkps1vo2PvlndH+hStyg/Kdb4c3zvl5eV8TIB9RErvkN86xiqtM5rvMKRl38LDTxoRUBBrkMToqqrVG9tiYrGB5cxFM3jw4A6o+hfKz1+PT4fXgQ0FxAKfrt+2evXytS3tiifdjdP+81B22IpcSobxQEuBuGG8bVpJiwAkQdgkaDzQDFaz8a3znE4tPhcUwWebHqmndQuu8sA9fK1ftZmDzwO163Ag4aAd6IgGEOwngFpUtH9rWtYd9xb2rW19lTwzHQmMzAv1jlDTbREyfpqO9XPN/yPABlbsqyGg6NX+JnVkig0sLCoqympsNn8MQPdJID32CnikVwjoQl2lgnJtZjv/ynQ3sQoKCnKQ1AujlnWdSRabuV5Z5C2sA1Hs8yl68Zo1yz9qrYnFBlYLoSdh+MCCgm6KSa9IIvtg4rQwr1RUFmXowd8sX7VoWWsQe9LAskGEXrh7IiC8AeCN22m+NK2kJcGwABprwmA2Ro94CPnI/JOhY7B9a9ZF2syJLLsNwo11aVPvNwvNaNcd1IEXAGT2TDUDCYC7EWCvBNhOWvD+mUWD+SDXVHfFpfn7l5ZmaQ3hyyXJ+11aAsuOIwE2sGKHGVD19/0BdcTSpak5A8u+YZBIP86UkR+bkm6NXTmP9CIBFZUXEMQt69dXbGrtD+xu5zJ4cHEHoUavlURXExCfZev2hrZRf0D4FoBinF1ZWfm1i7piDcsGVqykkjMuPz//OMPC5whhRDrcqIsAhopKRVDR7ly+Zvm81lL2rIE19tX7hwPJp9AyB7UWTqrn2aaVZRFIwwJTAjQ1RMGojxzaeRXLk5HTAUJDJsYyNG3H6HtXwN51s9K2frvwjGH/D9SOA1PFwD6wbwsBNAnQ/nZ/ad4sRIxtgadKMed1NIETTjjNl5W1d4phyb9LPuzZ0b1KhjgEqCGUp1SvX1+RjHxfzeHGM7CCiv6hL6gWpsLACoVC/traxlGWlFebJM9Idr84nzMJKChuV9D607p169LuCIHc3NzOFmrXItBVkijozA6xqmQTCCr691evXflCa/KygdUaaomZk5eX18+S4kkJUJIOlzEggClQrM/SfHcuW73slbZQ9ayBZd9GGHTha4RfmlZW1AIpCZqbTIjUhWM2rb65GE4t+T4omA67EVv5MSAL6hZee+js+3R9sgaeC0q3IiDFnxQEhLgfiaoRICJRfyMnevDBsnHj+IyLpND3fpJhw0YOlNJ8PCqtMd6vlis8GgEVxV8R9N+uX798+9HGxvnPcVBuvoxzzISHCyj6Zn9QHZZsA6u4uDjQ2GicRUi/t0jyK1IJ77S7EiDh5X4dn23trhN3Vfu52kGDhncFxbwBEK5zo37WnDgCCorGDesrM1uTgQ2s1lCL/5zB+UWDhDQelkRjCMBB57jEv1Y7IgKaisBqBfH+tWtXP93WLJ41sGwwY1++50wg+heS889PsHdYmWEDSAI0RyREapsBrLZ/7ztsyFjoltOlrevEu/NJgrn6bmis2e3dGo9SWTD7GNAG/wQgs0cCGeBBAliPQHWA2pps7PRwWUnPAwlMyKHTkIB9TkjUwp9Z0ro3Dcvnkr+DgELK6Rs2rH7DPjoymYDKysrE7BdfsZKZMx65gor+saJD3sqVK5P2bn3v3r39wawOFwsB90qidvGog2N4i4ACIqoqeH4k0vRadXV11FvVfbuagQMLuqEmrwcA+x9+mMC3CFRXrW3Vz/BsYKV+MQ0ZNiwXTHiAAMYSkJZ6RQlXIBUUm3K0wO+XrF7SZvPqc0PMw8/YufcPx6h8GCyzyIll2uewR+2rAyVBxCBoromPafXVWoNZ7WBc7iQnlu8QTQTq/rWwf81TDtGTGhmZhVeB0r5vfP9KQFELBFUAcgcJ9QNL9/31wYJBW/kVwdT02OtZp06dqnz0waclUTDnSqAMr9fL9R2dgEBcjxJ+umHDmsqjj47vCHs9bvxgs+t2lmYo+idCh6HJMrDsM68iBl4swXoyvh3gaF4joKCozlC0769Ys+J9L5+HNWRIURcQxvUS6Aav9ZDriQ8BBfHghvVrOrQmGhtYraEWvzm5uQXDJMIfiGh8uphXiLgVCP+4sary0XiR9LSBFXr7kUyorf85SHlfvIC1Nc6XphWZEqL2bivbtLK3XyXoQRQwaeQ5oPJthIclTGYzNJTfFOvRYgnqVGrDZp14BogeowHUQJuEEGITElYhyA+kUD9FEC836Oa7fy4sNNoUmCczgaMQKCgo6GSaeK9B1k8YFhOwCehC/UVPpetTr1W+1qrDbttC0a0GVlDxfabodFKyDKziguIBdUa0gkDy4dRtWXBpMteHyuM57TOvLS8vD3uxZPu1QdTkDQj0S0lpsTPDi21MeE1Bzffw6soVV7UmERtYraEWnzlD8kcUgrTuIqAJROT51wbtXzQg4DYV8b716ysfjg/Fz6N42sCyCxzz0j3TBMl/AEByDvj5ju7YplWk2QSKWmBIgHBdGMi+SjAJDyLC4P5FcFzHXknI5tIUVgSsqkehYd/HLi2g7bJ9wfbgy78CMNiK101RRAHwPQCqAMAdUujlSO1Wzijp2dx2ZRyBCRydQCgUUiN1kYm1Znju0UfziHQgIBA3oaRLN2xYuygV9dprcs+BWtcZ90FF36boMDg5BtZUZejQj//MpnMqVqh7cwYV7dLVayv+nuzXghNNzL5tENTojUTypkTn4vjuJtDJf8zxiyrmt+qHFjawUtP7oUMLR0iSZRJgYprsvLJNpt0I4nfvVlU+Fm/qnjewQv++t5BMuhctOT7e8I4U79BOq7AFVsQA0wIINxlAERNScVp4MLMdjBvKrxEetl8kQRzcCAcr/5LMJeK4XNlF1wFmHxejr40mCWWTIPk2IewCxbfWIP+ih0f2S9q5KY4DyIJSRsD+xl9VzVkGmaekTAQndhQBVSi/1xSaWVlZuS8VwqYOmqpvVDdHUpG7LTmDim+HotPAZBhY9uuDzYb0/HlGbekHz/02AVWIHTlKsHBx5eKdXuFT2r80q8FvXGGSeRsBtepwbq+w4DqOTECgWNCpfdbk8vLyVr2izgZW8ldYbm5BEQn6rSSYSGmys1KAOCAAbq+K42uDX+2c5w2s3Hn3ZXRoNq8ESfckeslKe6dVxAKz2QDLIoiGTbBs08r+gxQ+qqpBaPj3wMevER7ew4rUQuOS34CV4l6lcJlATt8JAL0mHfY1QrK3gqLYKQFeEQhbCHwf+TKzy+/JPe5gKnVz7vQmUAZlYl7+wtG1VkN5epPg6r8kIEDsFiAuq6pa9VqqqJx22mm+T7fvct1rTkHVt0vRqD8bWKlaOZw3FgL27aJV6ysvjWWs08eEeof8De2bpkWkdbdFsrvT9bK+1BLwq9qYNWsqlrT2HDg2sJLbv0PmFWKZBGmbV+nw2iAIxBoFxK/Xr1/9RKJoe97AssGNfeneixDlYyDjf7CvfXpVNCIh2hgFaUowDAvMcOpNq68uGCEU6Hv8UDixywmJWkfuj2s2gnzvn1C/6z3319LKCnR/JvgLrwcMdPx6BCHqAMRzJK13AZV9Ec1X/uiIwbtamYanMYG4EsjNzc1A1F8yyDo5roE5mGsJCBCPClDvrqpauS1VRYRCIf+eA/Z1wu56gopvr6LTCWxguatv6ag2W/GdvGLtijfdXLv9C5iFhQsLa42mv5kkB7u5FtaeeAK6UGcpiryssrKy1ec6soGV+D59meHQa4NAd0qg8WlkXtUKxF9VratM6MUsaWFghf79xzww5F0g5enxWLb2fqqoQRCuj4C0DSuTvjCtEncYe1t1Z2a2g7H8GuHhMZIEOPg+1FY+3lbUrp6fU3wjQGYPIFAMUNRnFBldbCKGhepfMn3ESVtdXRyL9ySBkXkje9fJSKvOgvAkkDQvCgEbEOmKd9evjctVza3FObV4amBj4+ZW/5DR2rxtnaegEtZV6lpZWVnb1lhHm28fdL9l06d/bZbGj442lv+cCXyTgIJi5Yb1lSPdTKagINQpatb/n0XJPebEzczSWXsO+ouWr1++ui3nv7GBlZwVlJ8/otCU8h4JMkRESnKypjaLQFGHQNdsWL/GPns8oaZIehhYb5f5odZ3Pcj/z951QMdRXe1738zsrrosdyEXXMCWZEmrYrlgENiYAAESEhOwCWmUEEIxPRiIKKb3loQkP4RiwE5CIAFTjBHYRpKlVbVkG8vGuFdZXbs7M+/+Z0ScALEt7e7s7MzuzDk5EPTevd/97pvdnW/uu4/uDSW1fhWgR2vA7lX6Dg5UtO2BaljzEwrcb8x1Olwws+BMiGOSbjajzRDv2Q895ffG9DbCyROm7jyYftZdva7Bh0RxqOeR4rG2MBBtCz2q4pkn5OZ98aLM1YujKqwQgnEwSdvS23G44SISuBTgKSrx0I4YDQGTkVMFxBeRxLsbGtZG9LPrnHPOid/85Y5uI2PXy5eD0aC6uro2vewdww5OLzg5u13ubDDAl+0iyhhABNWJ0m9q6taa5qTxgCieN0/I2rj5TQI6J6B59uCYZEBkwn2Kv+f+5ubmrlAIsAWsUNgb2Nzc3EI3AT2qAp0cM+IVCF5keOXg1IRXgu3PNjB2vxoVEwKWFmjJPx66lEB9FDklB0KQTAhdbV6gXn9fKyvZp1pGtPp6nIIgwqjRkyArPTOQ8GNrrNwF0LIM2nfUxlTcExMZZCcJEMcQBseJXQ6QTsj88ftR0xw1ppIZY8F+1QSaNLEmYqfMGk05A7bdIQhlnOBTmSt7VYRvNFlMYg4vgOpXEfv+OyKKikIOHyhHfHshIaQgZ7mANJ0ApqjEU4yOSS9/COhjyG5srK9+Ntj+IHphmVdSktjU2t6plz0j7RgoYMHYsSWutNSu271cXWRkjLav6GCAAW5Z11Az3orR5OYWvCITX2BF7DZmYxnQKltcknNmdfVnTaF+t9kCVnhzl5+fn6Oo+AwHmsFjpPJKQOwCEK7p7R6ypKVluSGH18SMgDXz7QeyRE73IKfv97d0tRMEO9r8wHt8faKVopVeWaTS6uixISQlpsLJuXabmKNyRBzo0OfQ4XmuvyVi+b+PiUdwp4iQIiIkiwipEoJw+NOAek/IWFDZgvDNB2PLB20HEHUM5OdP/75X8f496gL7WkDaD1cHY8s58b/JpBwQQepOYI695KJ95eXlIfdY0kRAWXYOQpSHIlKqTLIDQZQ40SkIdAkBZFiFXwT4i0OI+21t7WdfRhrzuTPPTWrp3G7JU1mNFLA0jXVq7tSJvaB4VLJPX4v0urWgf58TxXtr66tC2mFhdNxTC6bP65a9rxCAw2jftj/rMSAwvDwxzvmKHt/5toAVvvzn50+brKjq/3FQi2JIvOpGYr9KSJCW6bE+B5qdmBGwCqr/ICVuO3g7Atx5JHI0oaqzww9yp69v54Us8ygQrb4ZaZwrAablnQ7xgv19ebQbhHfthN61D4GiqZhRdg1xAhSlCpDhEiBO+Eq4Eo/wCSCg/3lVoOtGXRD6w3GUUWiHYzIGsnLztxLRGJPB0gUOA9boZI4HZO7f4HSy/d3d3Xubm5v9uhjv3wieUFAw2OGjdC6oLgnEBAB2pULqdwnIlFsR+6qvGLuzsa76kXD3XuifPoAzi89M/rJ3T9j7SA0ES6BjDBawQBNRvTI/lwD+GihWe3zMM0AIuLGpoWayVZg4d+bMpC2dPfUc4HirYLZxRo4BF5MqgQkX19SUt+iBwhaw9GDxf23k5+dPULjwmsKVfABg4fFiPqsC4s8T452vGyleaSzEjIClBXvK2w/+ClVaDMRTtf+viVZdnTL4tb5WKgdVpb5/RuvFBBHS08dD7ujcaA0x5LhQ7gDY+i9o21oRsi0zGEgWAQpTBZicJPaJVQkCgIMd+7ZHoC6fKGWMv2CFJR++zMC7jcEYBjJz3NGnNAOuczDhCgB5V2pq6p6ysjKvMWwe3UspAFuaWTRMEHgqY0zgSKUqV39gpt8QDPGVZOa6/TMTVF9pTM6ZMydl176DRvSR0n15GC1gaQG43TPTEeSXvKo8W/eAbIPRzkCXgwn31NVVP2SFQLNy3FUEUGCmz08r8BarGAUmfM8h0Lsej0fWgwNbwNKDxW/amOx2j0EVVwLQ2FgRrwRkvcDpVw4HLg3lVMxgsxFTAtZp7z41XvZ1L+7pkn/k1fpa+RXgpIlWUfgMdJQVkZKUBiflzAl2vUT/PCJQD30OXR6thYo1rzgBID+FQVGqBJpW5WL9i1bfjlSm9rHjFtRGfBuONTNgozaCgdnTZ39nd3frciN8GeRjv4TCrX4/Lf/R+nP2lkKpad+mTJo0dTCinChJQhJj+IqfKxF9K8IQZRHZfXV11XebofpKWy8lJSWp+1rbtYb6lrsiIWABlLIp7ndmqapSZjnCbMCRZoAQoLGpoTain0MDIcGdW/ykj/y/BHvr4EDoivkxLuZ8XFLowcp1lXv1IsMWsPRi8is7OTkzhiHKq2RSTtDXsnmtaeIVIlzZ09X+ektLiyE9r77NRkwIWJdX74qP97eeB9x7w+fb6rK27NzoIq38KgavhPhkKJxSAolizPQ8DjjLvP0L8HqeBNlC1XgCEkxMVGHuUCfEMa3aCkEKoYAVwffX48SMC/GCZWrABNoTbAYMYCAvr6jJz5VoOJWCRMY2qLL3JCLqMnCboB5Zwry8vBTOnYnxgrSgQ+1+QA+jgdpgiK8Pi0+9cWX5yp2Bzg3XeFvACpzZnJy5CYLQ9mOfKv8u8Nn2jFhmAAH2xgnOy6trK942Kw8lJSVD9rd21BDQKLNitHGZhwEBsZsBnl9f7/kw1MbtX4/KFrD0y3FxcXGyz6c2+rmq3dMxoakwYF4B8SpZ7nklkr9Xo5bsq9/d5BRT/acCeEuRqzmIKHAiqWX357hpexOQrEslpn53gUGWtG2Ew0eMgfyxWvWyfR2JAaZtI9z+ARza/KnpCTouXoEfjnBCkij1fXL+pxF7qMiJ+N6uLlfhFfqULIcKx55vM/BtBjJz3NpbH6s39COXIK3s6Gw9O1JvsfRaWSUlJaLP55P8fsqRFeVFhdRJetk+lh2t+koA9nh9ffWtev7IDxW7LWAFx+BU99RcP6c3/KScGJwF68xyMvEgQ7aLc76PA+8koL6qSwGEVGQ4wqvK0SDQG5UQrQrL09RQW2SUw0D9ZObkNwJQVqw86AbKjz3+mwwwhEucIntdr62Dh63bApY+K03r3aiouFPm6lB9LJrfiiZeMQZXN9SNewEgsgUOUSNgERFe4fGIybKUr5L6GHJlxpGWQpfcA+u/qId9+7ebf6WECeGg5CEwY8ppYbIeHWaVgxuhu8Zc2wgP36yDnSpckO6AYQ4pvGSLuzJGXfC5aSoawhusbd1iDAiZOW7tBL4w3wThZSVZTHi9omb1ReH1Ehnr0/KnTfZy5T4/V8/99wNbWH5vaNVXx8UPver98vdbIxPpkb3aAlbw2Zg8xT0HET6w+IO+VubfV+rPAJtdoviHQXEpf/9wzYe7gmWmFErZmplrRvR4ved2qr0/AKCZCufOf9vT7q+w3GPB4o3AvMaMEUOnf/DBB90R8H1Mlzk5hfcqyK8GomSzYTMBnv/cK4exSCi+6xSk6kTB9SFP4A1lZWVdx8I5e+rswSJCzgFv10kc+ckKqQUqUcrX5ljq/hAQP5MEuKampsajd35sAUsXRllmjjumdqh8VXkFC+vrPb/XhcEQjVj5yw4XfvaZS+JpogzqaGDyk8j9A2r+2fxFHXyx6/MQqbPu9MTEVMidPBNSHQnWDSLMyPmhTeCt/z3IEa7U0yqqtP8lSQRnDRNgbJwEAhpz2zLwfnjc/Iq5YabaNm8zEDADJUWzL97va32RtGIFi14CsnWN9Z4pFoU/YNhnFMwauVftvcnP1cv+XTGnW9UcQ+xliM821HluGjAggwbaAlbwRJ8x/Yy0A962q3pV/10WEmW0h3A/APoRaa+A+OxxXcN/t7xledj7g5w+8/T09t7un/Wq/ktU4iO/EvZJu89CaCQQfP4iNRMBu5xMeqmmrvKqSGE4kt8TT5yZJDh71gBA1H/eD4R3RFCBwE+AigCs2yEKbziccc+cUV6yJRy9H88tnj18S++hXzBklyjARwD13RfaPaKJv8b8oB4IMf8d4wPES5rra5YGNm1go20Ba2A8HW1UTk5OAkPnNj8paaFZss5sBqyTCXB7Q63nKbOgNuONe1RutCqraypbkly9h+IVp5AIgFql1TmBkvn5ns9hy/b1oPrD/rsiUGiGjEdBgBHDx0D+8YWG+LOiE20bIW3/CNo2f2w4fK13lQMB4kSAokEEOUlaX6vI/A7NuKhM08tM20za8OTYDk3BQEFecUUv90816Y/PgXC0L05iGXpvDRiI40iNmTt3bsK+fW3XyaRcRkRDACA+xPwRAvvb6Lhhv1heubwjUnEdza8tYIWWkby8whKV+Asq9Z3qZNoLAXoJoB0B2+JF12NVNZ/9MdJgp0wpmM+RX0sAowEgSYd7LdIhBeK/PE5ip5jls1XbWt3a1vWWyvlcAhIDCSSaxmqiFRFoVVS9CFjnEIT7U1ISPisrK1MiEeecolMv2OfvuFMBngaEDgRKJhNUdCOiKiG7bRhPe/aDhvBUEtoCVvArLicnZxhjjlo/V9ODt2KpmcQQ2wRg99TXVz9uJuSmF7BKS0uZ9/zzU5RDvakoOlIUxOuR++cBQNBdyLvlXmjeUgv7DuwwUy4MxTI4dThMzTwZmEHVPIYGp5MzZX8j9NT/EciAfv+aaBUnYN+JgZOTCQpSJEgWzFBcciB31Px1DTpRapuxGdCFgcwct3a6W6ouxgw3gl7GpbHrdDxVyPAQQnB45oQJzl0JKbcoRBcSQAYAJQYnZGG7COyZhobq20OAE7aptoAVOrXZufnnc4L/A/jGVqDQDYdugRBxj3bogoRs+aD2pFvKtpZ5Qzerr4V5mfMcmxxf3iST/EMiOA4ABkd7VRYi+3yI6PrlJ541xr99PEL6phXOmtnp7/4TARnSE1DfFaSHNfQC0EEBsEUU2DOM0VtmERe16LRtuZ/kr3Af5N47FVIzgUCryhoG0PdPwy+RCQ0OEG6srqvUGreH5bIFrOBonex2j0EVKgFgeHAWLDeLGGArY+zBhrrqh82G3pQCllZp9eu1a9MkLx/GBEcKCuzHpCoXAdAgvQhs3OKBbXu2gCHqhF6gdbSTmDgIsiYWwpB43SjVEZ05TNGhjSA3vwS9PZ1hAaSJVomaaCUAjI4HKEoVYYhkBtHq6+H6V42a/9nJYSHANmozECQDVhawHExaIgjqZR6PpyfI8KNi2vTp0+O6e/13cE5ncICJAQpZnCF7a3L8uAXLypdpvdBMd9kCVugpmTtj7rCDvW3Xe7lyIxFF/MsRQdv2BJtFFDqGxSXeuqKirCz0KI2xUJQ/7Ufdiv8qRJhARCOCE42NwRqKFwSURSb8o76u6oJQ7OgxNy+vJNXP298CgFj8DdWFgDsQocohSE/W1FTq3stJjxx9ywbm5BSeAMjvUggyAUjbIqZtyTVkCwQCtBLhDc2NNS+GIbb/mLSygIWI1zfV1zxh9IEtk3JzT2DEtL6MY8KZGxPZ1iqv9guAj9fXeyJyunR/XJhGwPpKtNqQ5vT3ZnBQB6HAzgLOL0Yg7cND96tlX0vfNkLZa8rfvrrH+22D2jbC9OFjIe94+zTCo5HN5E5Qt6+Ejs0f6ZYPrZ9VioR9wtVgJ0BhKoPjnKauKpc7xH2JWRc0+3UjwTZkMxACA3Nz5ibsgP3a4QJfb9AagkXjpjLAblmgEzbW1gbdyNk4tMZ4KigoiJdVXKxwtRgBphCAVpF1zIsh7nah9FB1XaX2Q9aUly1g6ZOW7NyCuUD0KAfK1sdi4FYQoJsAP3cwcbMgqNd4PJ7dgVsxx4yi/OKLe1T/L5BwKgfStvFG3YWAH7sk/G6kXxLk5xVf5Sf5N5xIq36LiQsRe5FwMzD4NF1KeOCDqk8teWKW9oLF16Oc6Sf1SkJKB4LRA/luCjbJCKhKTHhmJLoWL69dtT9YOwOZZwtYA2Hpv2MmTSmYwpD/DfpetMXERQzYPgbwZEOD536zRhxZAYsIb13dmOpDZTwDdSgwYRrvE634uHAT1qN4YV1LNew/GLvPEcPS0sE9aTqIGPEXm+FOd9D2lT0e6F33EvAQ9hFqN9kgB0KqiBAnALhTBZgQbw3OEUARoeOMEfNrVgZNoj3RZkBHBqa7p89uV73aW23LnULhZNISAv9VdXV1bTpSEhWmNGFyDzv4j3ANqwAAIABJREFUkMrpRECYQURxRwhM29B9gBD+b3197a1mDtwWsPTLzr97Oj1MAIb2HWGAhzjABkFgDYzL99TX10fNqbxu99TfK1ydqhJ365cpc1higBuSROfC8pry9yKFyO12p/tUeAkABnS4VKRw6uVX691ERHsY4gdDnSlPfrz243q9bEfazrSCWfle1fsLhdQ8TcTgREPDgKlJIGFRY2O19tsmrJeVBSxAduMF9ec8Ho5m/0cifXJOQT4C1+7jrLAmxTzGtW2DexljTzfUVd9nHlj/iyQSAhZeXVGRJKiOLAZaEzQ2iYAWIPHJRhNVv7kaduz9Iqa3EZ44Lg9GJIXjs9jobIbJ36ENIG9cCj2dBwJ2kCIRjHSKfacIZiUjZCaautLqaPERA3nNcfPXzAqYAHuCzUAYGMjOKyzlXNXEi4j0qAglJAcT3XV1VdoPewM664WCNHJztTffnb3+R0lVRwBjDgaobXcCAt7KCdoZsJp1Jn4reJg5W8DSbw2VFJQMOaR03aaQejUBhP2LFKGv2XS9k0llcYL0/BrPmm36RWMeS3Omz3Hv7j5wNwF+1zyoQkeibfVkjL3WWOf5aejWgrOQlZd/M3C6nmKhXw6BFxHfEZiwsqGu6rngGDP/rJLikoxWX9clKuezACGHqG+HUMjP0QiwixGWNjbWGHIAhNUFrKwTxj2xbNkyNdwrZnJO/jQE+h0AaMJlLFyEgHsFwKfMXHl1OBEh33gDzWhpU5Oj7aC/SEBlHDFMJ6ILESiii2LL/i9gy7Zm8Hm7BxpGVI3TthFmjBgHOWOj7gWcbnliShco21ZC5+YVA7KZLAGMcgl9otWYBIKCZN1OjB+Q/3AM0k5YEjs/T0+/YldM9+wJB7e2zcAZcLunvu3nyllm6IkTCHqtNwtnPGt9Xd2mQObF8tiSkpJE9GKuQIQEwqaPKj/aaxU+bAFL30xl5eafAUT3EkDYjk9GQK2nhAcZVgjEXqyvr2rSNwrzWdO28PbK/CUE+C5Z8KXAMRh964KG8843qlLj6zimTCkax1F9joDOMF/G9UXEAPZyhGXDBqXcVFZmvoMM9I32K2tnTzlp0E7B+xOF+CxOpL3cDaUKQBZQeCGDxd0e7q2Dh7mwsoDFgN00+cRxj4dbwMrKy5tJHJ8EgFjps9PX8woBH2us9zwYjvtGb5thF7B+XbMt3eFt/Q6AnEyAFyLnxXoHEaw9r+KHus8r4OChPcGasPy84UMyIHfiVJBY2F9qWpYrZVc5eNe/Dio/ctFEggAwNp6BS0AY7gRwJ4sgsbDfWsbxSdSD0PXTjAWeZcY5tT3ZDByZgSl5BZtUzsfr8ebTSI4FZOtUGc5ubvZEZTWHkVxawZctYOmfpZycwotU5HcT0QQ9rWtb5QmgRkAsY8D+Vl9fvVZP+2a3VVxcnNzTKz+iAvwYgII+4dtMcSLgaocgXVFbW9lsNK6sKfk3E9KNIQobRsMO2J+EgnZS3vL6+urHA54cBRPOmH5G2o6efZcxYLM48VOC7JFVAwS3NzfWLjeKEisLWIhwq0tkj4XzJMvJU9wnI4J26t5Uo3ISYT+aeHWAIXvYjKcNHo2bsD1lX1O9ebTobT0fUDwBgP8CSDVlKUpNy1rYs38bEOcRXj+RcZ+QmAoTx06B41LC0is/MkHp7BXbNoB/0z+gp+2//dK0XlbHxzNIERmkSADZSQIkimG7nXSOKEBzRByZWp5x0eqTApxpD7cZ0J2BzBz3DoC+I+EtdUkoPsq5c3Fj4+pDlgJugw2KAVvACoq2Y046s/jM5N2+/aUK8V/yI/dIC9QpIbBmQHhfIP5uQ0Otfie2BIokwuMnTZo6WHSo9xDwn0dHJRYeRMQnm+o99xhJbXFOcUY3yk9xou8b6ddoXwjwu6HOlOfLqsrqjPZtNn+zp84+YY+v9QIkXEBIE4lgoE1uNwHhXc2NNa8aGZOVBSwG7LZRPcMeW96y3BcOziZl55Uwhlrj8mnhsG9Gm9rplwzZ4sZ6z2NmxHc0TLo/cZdW74pv926/AlHMAVIvMer40WBJ/7J1O7RsbQRvr9byIPYuZAKMHjkessdGdDenqYlnSg/4v/wQ5K0rYFQcwkgngySRwQmJAgySdL+FTMoF7Y7nOycNvrilw6QAbVgxwoBVBawEMf7ihGTpb7GyzSJGluNRw7QFrPCsgKK86TN6yf8gJx7SCxVE3CWh8C4RvpvePfjdcD0QhYeF8FjNzi4eDkwp5cB/GR4Phltd0txQu8BIr7m5hZerxG/nQKOM9GukLyR8XMAhdzQ0fBCb/VeOQnaOu/CHnNR84OzXHHjSsXKiiQYisudkufee5mZjT/m2toCFi0YdN/zR5cv1F7CycnNPJWKLAWC6kfdTJH0xxHbG8M6GWs9TkcQRjG9dn76vLa8/V+TyyUR0BQD1exR2MID1nuNXZfCsXw2t7WE9tVRv2LraGzl0NGSNLwCnIOlqNzqMoY8AazN2/rVt9IGyWaPjxIThTq3Hla63jhWoahew+6b0i6oMaTJpBUJsjJFhwLoClvNcjvJ74Sx9j0xGbK9HYsAWsMK3LrJz879LRIsJICdQLwjYLaKwmoiWjJTiPnzfs2p3oDaieXxOTk6GQuLdgPQzq8eJAG8MTUu5uKysTDEiltlTZw/e52t7RCUesebx4Y4TgRa7JOE+j8dj90Q9Atlnnnmmc8fu/Zci0YXKUUR27cRGIChzio6ra2oq1oc7Z9+2b2UBS0B2R2K849Hy8nKtX6FuV1ZO/mkEdG9MiVeAPQzwxoYGj9ao3nKXLk/hl1dXSwm9/BpA4RIE7TRBspQSUr2pAvYd2BGz2wjjE5JhwphsGDUow3ILOEyAFUC2HpD9g4OyA0Hc+JPdd7Ah3tbbCJ1zwuTT1GYRQAVUKuxthKZOU0yAs6qAlSzFXzYUvEv+af/wj4l1agtY4UtzSUmJePBQ5w2c+MIATnnjALiJAXs4XnDWr61dUx0+hJa2jO7sqQWKoD6vErf6CT+rRGDXNTR4aozISF5e/gKFw10cSOvRGIUX3iWC8nBDQ4NdedVPdgsKik/yqvIM4vS/DbEJmgUQr21srBrY6VA6ryQrC1giYOkIGPLIBzpW//278uq+WNo2yAD9DPCqhgbPn3ReXoaZC1nA+vXqDelO6LqCgF9p1YaFO9t3w8bNtdAbs9sIGRx/3AkweXTALzMNW6jhdkTaKe3IdiIIfwGufA6CY6fkSKx+sHB8u+Z7+9KMOFSPv51IuC3cWMxrn7ag3DI14yc7D5oXo40s2hmwqoAVx6RXOToX1tauit1y32hfnF+Lzxawwptst3vGGL/q1d4czyWgfnrOYKcDhPtlUGubGmreCy8y61svnlCc3JOgXKoSf9TK0SDiAQcIj9bWVz1gQByYmZN3LwBG6W9EKvX3OB9vaam020gMcDGdOWGCc1tc8iVMYN9XuXomABAD3EAIC5vqa94foBndh9kC1n8pnTTFfQpDTWRE0xwwp3vCv2WQIfYiwFWN9TUvhNtXOO2HJGBdU7t5otjbcS1wZT4ADQon0HDaVrgKlevKoK0zdp/L04ePhcnH54JLcIaTavPZRqGdUHweVW8VCmKHVxhe/WxxxhEXws4l064GkO7lICSbLxAjEFEbw67Fx13kecQIb7YPm4EjMWBVAavviGIuTGtsrNpiZzb6GbAFrPDnODO3cCqQ+gcAOFoTT3Iw6V2Zy8+PjnOULa+0H74HmpW8vOKJHJS7FM4vGugcE47jDNnz6+o92gv2sF75+cXTZFVerBKdFlZHETAuIHtQ9gkPb9iwNnYfkoLnneXnF2d7/d5JgEiCKO1rrK36JHhzoc+0tIDFhLvSUhMfKSsrC7lxdWZu7klE7HEEKAydVWtYYIg9iHB5Y13NawBg6dPrghawrq1ozBHIvxC4+n0gSLFG6o6OsmpTBeyP4W2EzvhEOGFMNoxOG231VPaPH5kfmPRnIO+7hJKXY2rjk9PG7e1v4o5X8/IAE+8lEM/ub2w0/l3bRkjA14ya/+kp0RifHZM1GLCqgKWxKwIraGjw1GpvYq3Bto0yWAZsAStY5gKbl5VXOJO4qvVmnPz1mVpzWpXz+cmic2tlbWVzYFbt0do2zQOtXT/hoFp2i4mWRQL84/qGmsvDndHsnIJrCbjWly0h3L6MtO9g4l8cjri71q79dKv9vWUk8+HzZWUBS0B29+BBSQ+HKmBNmuKezhCeO8bLj/AlIEKWNfGKiP3CJdHfoqEXa1AC1jXVTaMFn3cRkqq9mTnmSQsRylPAbvd2HYSmjRXQ643Rrd2IMGFUJpw4Kitg7qwxAWVgjr8CKEuQ1A6Ojs2Pz8jbGQh2Wprp2CEPWQzIbgxkXjSNJaBmJ2w7bfj8L/oV/KIpbjsW8zBgZQFLQnFlvCLOK28qbzUPozaScDBgC1jhYPWINjEzNzcPSRiUJLnmIqGzk/veBVC619XVfWYYiih0VOyelenl3ntlUr5v1fAY4hvDnYOu+mjtR2GrHiopKBnSqnTfoZByjVV5OhJuibF6BzquTUhxrjGqEX408WfWWKwsYEnI7k13iQ+HUk2bne0u5AxfAKBss+ZIb1yI2I0AP+ey9x9Gn3qpdyyH7QUsYF1eXR2f4OO/QQ5XA1q/8uowESpxWFO/Ajq728LFtentpo8YByeOyYZ40WV6rAMBSFrjceb8EIj/npi6XUVp357inN3LtBNAgrx2LJl2PYB0B4GQGqQJi0/jhwB6nx41v+q3Fg/Ehm9RBqwsYCGgkiA5fxKf5FxqPxBYdAEOELYtYA2QKP2G4eyps9Mcsp8tr111wK4WCZ3YgoICySfDlRz4k6Fbi4wFBKx1CGxRbW318nAhcLuLf6hy9SGF1OPD5cNouwgoCwx/lRDneFXvE9+MjsX2900GLC5g3TMm0fXw22vWdAaT16wsdy4JsBQATghmvhXnIGIPMPYTX2fbP1taWnxWjOFImAMWsG5YXbWQgO4EgKh7gK9sKYeD+3fG7GmEkisOThw9BcYMHWvp9U3MUclReFwkXz0HsbPbkbvv+UKU9Qhq58s5J6pCykMIwrl62LOeDeIIVJYx/9PZ1sNuI44GBqwsYGn8I+CeRC7lVa6rtKsYo2FBHiWGOQVzUnbJBy35RszBaFBdXZ0lsUfxkopIaAV5U+fJxJ9WSB0eEQChO/UDwKPNDbVha66emePWKq8eBwAWOlxzWECCWxN7Hb+rtJu2myMhOqKwsoAlMuG+YULqQys8K/oO2ArkmjKlYJKKXBOyrf2QG0DQCNjFGP68t6v97WgSr776LR3AdUN57U9IVRcD8OMCmGaZoa3eTqhd9wl4fT2WwawrUEQ4cXQ2TMj4RisJXV2EzRiyzQDsUYXzdxxM8iam5rSVZqH2w0XXi5aCsEM55XEAvFpXwxYyhsRrgHadl3Fxyw4LwbahRgkDVhew/p2GnUk9jkz74SBKFuURwrAFrOjNbSxFdnLRyaM6/D23+0kNex+pcPGKgE80NdQsDIf902eenr6/u22Rnyu/Cof9SNhkyD4Wkd1SV1dVFQn/ts/wMhCLAtaJOTnHCyBoW8pHhJdd81g/LF6p/t63omXb4NfZHbCAtXBtUxbKvruIlPMxQOHLPOk8NhICgk88y6HbG/LhBlYJ+X9wpo8cByeMyoIEKc78MSA7QMzxez/rfULqcaipwxw9pVlZuotW3yZi55KpNxM6biES08xPUhgQIm9H6v1TxvyqmO0FFgZWbZMDZCBKBCwt2tbjhCFTPqz9cNcAQ7eHWYiBM4vPTP6yd0/Ab4nNEKJdgWWGLJgGA2bmuhcCwaOmQRQgkHAKWG731ItUrj6rELfsSezfphMJfz10cPIf7G3uAS40iwy3soAlCeKDGQnDHnxn9TuHBkr35MkFI1Hi2kEeUbdz7GgcIEA3Iv7cKeKb0dCw/UhxDljAun7V2msAo6tE9kiEVLSUQ2sMbyNkkgMyj8+FMUPNupUfu0lwLiGverOakdg7eMcOtfTUU5WBfpDpMW7na+NHcUp/CkD4nh72LGmD6INRCz45w5LYbdCWZqDAXfwPL5fPJiLR0oF8VQLdM8iZ8JvVVaufsnosNv5vMnDuzHOTWjq3d1iRF1vAsmLWwod5ck7edQiobZGz5BVOASsrJ+9S7aRDSxJzBNACsnuSva6H12wMrsdQtPAQzXFYWcByMOnhwY6kBwd6KENeXl6qn+MeAHBGc06/ERtiBwO4fF19zV9B6wUdpdeABKzrP6v7LpD6BJA6Pkp5+E9YXYoXyms/AL/fG+2hHjW+zOPz4Ph0M/S3QwIgFQBVEuI+dkhxFz5YON4Ub7S3Lzn1eQC6LFYXCSKvSBT2zk+9YOMXscqBHXdkGMjOKfgNB64dIhA9P0gQdmfQ0LwPGlIOAiyL2h8ckVkxkfE6r6Qksam1PahGs5FB/F+vtoAV6QyYy/+UvPyrOIfHCMhhLmQDQyOi8HqaK/GmssoyXdsezJ46e/BBf/v1fq6Grb/WwCLUZ5SEwh6HIN5YVVPxqj4WbStmZMDaApb4yGBH8gMDEbBKSkpcHW29u7zcHzXVkf2tJwTsJAZXNtfVRP093K+AVfrxx2K7lPhLBHq6P+Ki5e8fVf8rdvtgAYC2jXBiRiYkOuKNTykiB069wEABwE1ef/w5z52apannprp2Lim8mcB1I4E41FTADAPDuwTo/VP6/Kqw9JUwLAzbkeUYmF10StFuX8dKAEi0HPhjAEZExcHETx0yzu9lvV0NDQ1aM0aKphhjKZaSkpLEfbaAFUspj9pY3e7CM2WVHuDAc6wYJAJUA+LtTfU17+uJv6CgeK6iqL+Xo+P0QQ5Atzc31N2vJ0e2LfMxEAsCVnFxcbLsg60xJF5pvxUPItCNTQ11fzHfqtMfUb8C1sI1dXMRlOeAeNRXXx2mt+qLKti/+0sg4vozbgGLKEkwZVw+jBoyxiC0qH1xalstegHYLnQkXZlUdIKnVBOzTHrtWzp2hF8Z/TwBO8ekEMMOi4DeHiV+cj5eEL0lqmEn0XYQFAOZOW6t/0EU9zPAyiRB+vkhpuwTe3s7orEBZ1CJt9CkuXPnJuzYs9+SDTXtCiwLLTQDoObmFrpVUu/lAGcZ4E53FwLiLgGF0rq6Kl23+mVNyZtPiFFR6SAga5FAWlRTX7FU9wTYBk3FgJUFLAmFx5JZ3AOralftPxqpOTkzholMafJyeYipiA8fGI6Ie4H4nU0NdX8KnxtzWT6mgHV5dbWU6OM/BYLnzQU7vGh6FD+sqn4HFFUOryMTW88anw9jho8HxH41zuCiQOQIcIgI2gHxAIqO+7na9f7jM2b0BmfQ+Fk7XjvlBSD8MQEIxnuPvEcEXg7s4JUZFzbVRx6NjSCWGIh+AeurbCJivYTiQ0RQLcvUERfHD0ZrQ85oW7/nFJwTv1ne0W3FuGwBy4pZCx/mWe5ZQzt4750yqb8On5fwWkagxU0Ndbfr5aWgoEDy+umnhBQNz0cckd3XVO+5Qy9+bDvmZcDSAhYTHk9PGnr/8lXLjyhgFRTMHE1cXu1V5VHmzYB+yBBRFZF94UR2z9ratS/pZ9n8lo6pTtxQ0ZRJqu9+IOVc84eiL8IV1f8En88yWoq+wQPA8BFj4MSMLEhy6rhLR6uoImqDPqUYW4E5XnYkpix9IGfMgE+T0D3QEAzueq3oGpVctwAI6SGYse5U4j2I8vMZ88vtbYTWzaIlkWfl5u8iopGWBB8kaAHwPUkUn/WqfKdLkDrj4tjeNWvWaBU+9jbDIDkN5zRbwAonu7ZtIxnQxBqfTIs4kNZ70JKX3gLW9ILpk7ycL/ap/vMtScjXQItM2OZkjtKqms9esHosNv7+GbCygOVg4pODncn3f1T50d5vR5qdnT9ZEsW3fVzWdoyFqfqif34NHMFFxjbHC9LiCk9FTGwb/Dq3xxawPq38HjF808BkmMZV3bY62Ll9U+w+G4giuCdMhfTBGSHlROvCjoDtBLCtr9IKpRUyi3/56WkTdW2mGRLIICfvWpI+RMUJrwKxuUGasPw0Alo6KnXnJXhWi8/ywdgBWIaBQvf0v/So3osBgFkGtI5AJSbUSsRe7iWlnlD1x0vS/jR/2o4PGj6w+2bpyHMopuZNnx7X1O3V8mG5y67AslzKwg54ck7+IgS6N+yOwuRAbwFL6wumcHhDJTUpTJANM4uIzw+Vk28oay6z5JZnw4iKEkcWF7CeHS6kLX7f8/7ur6ejYMr0Kb3o/RcAjI6SNB0zDARUEGErcXiiqbHm2ViI+dsxHlXAunrTJqe4t/NiBCVm9lN+nRyvKsPKyrditg+WxkXWhAIYPex4YBjgMyIiAUE3IG4Cot3EpAbC+JeemH7C+mi7ybYvOfkVAPwRAIrRFtuA4iFewcSOG4/7Ud2aAY23B9kM6MDAqVNPzd3rbasGgNi8777FoYOJZYiw1KcoW5EhdzCh1+US12WUZ7Qvs0811GHFBW5COwFpX2u7Jcu4bQEr8HxH+wxbwPpmhifnFXwPObf+C37EDgR6uKm+1rLiZLTfe3rHl5mb/wcgulxvu0bYczLxd4PikhavLF+587C/gpxp+Sqqf/KTkhsLLzURQBaZ2Oxi0iOVNZ+9YgTvZvRxVAHrmormiQLJD6Dqs3x5bLDEf1j9T/DH8DbCIcMyYPKoKZDsGtgLJgT0csQNSHwzobADHIlLHi86cW2w/Fth3vbXii4DirsDgMXEfuv/zQnvBVCfGTV/zc1WyJeNMXoYyMxx+wFAip6I9ItEQnEfMHhWUWmTitwnApATpDZHPKt3Op0dZWVlin7ebEtHYmDevHmOpo3WrEy1BSx7TX+bAcsLWAQPZE6acPuyZcvUULOridOt7T0LFFW2/At+RPzYJeKNHo+nJlRe7PnWYCA3t+hJFdQrOZHlfj9JKLyeKDlL11Sv2aixnZmbe5II0hMq8Dwiivp+xFrllciEJqcgPrTWU77EGisuPCiPKmAt/KzmFAR4G7iSHB7X5rfatGs9bP2i0fxAw4VQFKDwhBkwfNCxWs0gBxSbCfy1iGI7d6a8+UTBBO2I+5i4vnx19CCGx/8DAE+OiYCPECQivSzKG64cccleSzYsjtW8WT3u7Jz8Zg402epxGISfiyhsVUF9BYht58j7tvyKKHSkOFzrxXhxW1lZmfbf7H5aOiWktKRUXNr6liVPgrEFLJ0WQRSZsbqAxYA9N4QlLSqrK2sLNS1Tc04+XmG+u73cr21jt/JFiPjHpvqaK6wchI09MAaK3MX3+7hytUI8IbCZkR+NAOsB8PrMhvEfNuduOZmIPwkAUyKPLPwI+iqvUGh0CY7HY7ny6jDTRxWwblhdcToB+yD8KTGvBz9X4MPyv5sXoAHIsiYWwqghY0BgXxO2EYlQ2AyqshIRZe4atOKJwgn/MACOKV3seG3W60Ts+wDoMCXAcINCtYrxrtuOW1C7ItyubPs2A4cZKMotvrib/C/bjATPAEPcJ6H4kQxKrcqpCxFIQNErMbaB87gNdXVlHQDAg/cQuzPnzZsnNG1ssWSlmy1gxe66PVrkVhewRCb8dagjZdFHaz/6PNTs5uUVzVCJv6ESD61JbKhAQpzPEHeLyB6qq6t+IkRT9nQLMVDkLr7Px5VrrChg9dFM9AoAq0Skywggx0LUBw0VARSBCXUOFB6orq38W9CGomjiEQUsIsIb11R/h4DejaJYgwrlQ8874PfGbmHJoCEjIXtMXt82QmLSDuTKOwDYyR0pdanvTnittBRj/uFm12sF8zkl3keAY4JaZJafxL0I/NGM+at1O6La8pTYAYSdgXkwT2jKsaZAEHZyQnAgIOtBgEoCWEtEBzkSl0DolMj5ydCe5K3LW5bbBzYMjF/MzHFb8vvRFrAGluBYGmV1AUtgwqdxzHn72po1q0LN2+TsvNORoeVf8Gsn2w4VUn+5snbll6FyYs+3DgNF7mn3eLlybTQcQGAd1oNHqolXIhNqHEx8sKqmIrarar5G4xEFrMurq+OTZGE+qfIfg6c8OmZu3r8VNnwe1W2cjpkolATIGpv3yuhh47eAmLxVUuCvD500qTM6sqtPFBv+fGJSQtzIDwGgWB+LFrSC/M8Jwo4b0i7Y0m5B9DZkizKQnZP/CQeK2e27RqWNIetAgPeJeAsH6hOwUpxJZc4EobKsrMxrFA6r+cnMcVtyS6YtYIW00lhBQYHLKTsTfRINjxfE9B7Zd3yv6h8eiNUhjsTtKtB2Tnz7fu49OE4d2pNyYopXjx5OgeA4PNbqAhZDtk5E8fa6usq3gon/63OiRcACgCXNDbULQuXDnm8tBorc0+/0cv9ClXiqtZDHHlpEVAUQqiQR7/V41r4TewwcPeIjClg3VG8cwmX/QlR7b4t1smTi8MFnf40pGpAhuBIcIDoF0P5ddImXwpiEJeUzrrfkiUpGJG/Hayct5SSchzG6jRBBqQPec0fGxTXaMbb2ZTNgCANud9EpPlUpM8SZ7eQbDEgorFFB9RCQFwB9aVLi+4ltidV2hdZ/abIFrOi9aWbOnJlEPZTdznu+dzhKIkAAhojgQoAEABwqAI4koNEK8aGBsOFi0k4OfJdKfKfKqRUZ9hCQD4H+04RcQEF1oGOzU2CrucS3lZeXa2JyWERTqwtYAgrbRSYsqq2tDGnb+Zlnnuncu+vAPC8pIdkJZC2EZSxihwDw+8b6mlvCYt82aloGCvOmLvJx9XoVeJppQdrANAZIZEKFREKpp77S8hWfeqf0iALWzRX1GYqq3AOk/lRvh1azR0Swsv598HZrrUCi+NJ+cSVI4IwXARDBESeCKH3V94pEsUwVhCtWn31DyL0DopXB3a8VnK1Q4u8AMCZPIyTgfiC6d/SCVfdEa47tuMzHQElJidh6qOtzhdTjzYcuphD5RRTWqsTXI6LXJQifMxFeW7t27cGYYuFbwdpV3lcAAAAgAElEQVQCVnRkf27O3ASf5DvrgNI5nQP09boUAOKR2DgV1FMiFSVDVBFxJxHVE9FeAPRzBHIA80lMXOFKECtWr16tVUWHvJXV6gIWQ+xFYIsa66sfDyVfRUVFI3x+/huF+DWh2In0XAbocUrSdR5P5epIY7H9G8tAYd7Um32k3qgGKKobi9L2JjKh3AHibdV1FfZL2iMshyMKWAurGsYxn+8JAjon1pcQAcG2gzth3YbPoo8KRJDiJIhLcgBD6Ku4khz/ewopIWriRMkn599WHn0k6BPR9qUZcaCMrwDAmGgoeCTWiNTfo/TFolEX7GjVh1Xbis1Avwyg2138A5/qX9bvSHuAUQxwAdkeTrycEDtFZF8mo+vNObVzGkuhNOQHaaOC0MOPLWDpwaLxNqZPnx4n+sXT2tXeOQrxVCRwSYzlypxPJCDReESBeWSIMgA2aVt+AaCHEHmqFN8ST66XV3hW7AhG0LK6gKUxSIC3r2+oWRwYm98c7XYXZ3LiL8pcKQrFTqTnIuC/hqYlz7O3gEc6E8b7L3AX3+Djyk2ceEDbmo1HGrseRRQqHSjeUF1XsSZ2WTh25EcWsFZVjUOGjwLx/5RGxzKBXsUPH1VGzyF7glOEhEEuELRid0kASdsq2F+CRenSTux+zXNOaU9/Q2P17ztem7GMk3RurG4jZKA0I/bcnn5RzZuxugbsuI1noKCgIEVV2WY/VwYb79322B8DCHgIEZs48T0OJlS5IHFpRV2Z1jQ4LFud+sNj5N9tActItkPzVZKXl3qAhAs50GkAIImA4znQBE4UF5plc8wWmXCQE9Vw4u2ASGlS0oqR0rCXl5UvG1BrCFvA+iqPOTkFxRzpI06UYI7MBokC8R/N9TXfD3K2Pc3CDLjdRdfIXL2VE420cBhRDT2eOU+yxasgBKxrVlWPFhHuA+B2cz8AUFQFVjV9DD2dhyx7w2jN2JOGxIPIAFBgAxOtvhYtCUItAr+g7LzfaG/07OsIDOxaUnCSColvAGB6bBJEMgC/fdT8VQ/FZvx21JFgQNtG2N7ee55P9cdWs8JIkB2iTwTYBwibiKBTQuHN+Hjpr+Xl5VFbsWkLWCEumDBPL8ksSTwkdX1fJvUiBHACwAkEkBFmt6Ywr/WE4qBuIAI5XnBuS+8Rbn5745qjHtBjC1hfpS0rL28mcbT0tjttO6WIwst1dVVXmGIx2iAMZSA/r/AqP6dbOfCY+KwzlFydnMVJzOHxeGSdzEWlmSMW3lxb0TiccfUW5P6FURl1gEFpfbD2dOyHmnUW24bKEOJGpEA841pf0YBFq2/QhKggYeHH599aHyB9MTO8aWmmI1kd1gQEE2Im6G8HSvKzorT3rpEXtOyPWQ7swA1noKCgYIiisH/KpEwz3LntMFgGdgLAdgeT9koglp5dN7ch2rYY2gJWsEsjrPPQ7Z6aw7l6mwI8gwCOA4IxYfVocuMMsZsTNTBEbxxz1IxgQ+/8p+ef36i2twWs6BGwEGCHE4V7a+qr/2DypWnDCwMDbnfRlbLKb7MFrDCQq5NJW8Dqn8gjClil1bviO+QDC0D1Pt+/idgY0evvhZVV/zR/sIjgHJYEiQ6tFzsCc4ggoD47NUiSLvcPFl6xTyM8+jLYvmT6MgDHuRCzpxH6twL5bs5Y4LF7Epn/0yJqEM6bN0/YuHHzKQrQR1ETVIwEgogKEW0BgK5EMe4mFX2rouXNoy1gmWcRFxQUSJyzk32qolUIJyLAWPp3Q3bzoIw4EkLETu1+FFHYnuqIf1EW5bKOLt9FhKSdSm7p6nI9emBFQwUWIlSlSvE/XlO9ZmPEV5wNwHAGcnKm/kIF5XYCGmu4c9vhgBgY4kj6xafVn/7fgAbH6KAjtz4iwoXlNWcgV5fHKC//E7Zf8UHFxjXQ2XbAfJRozdjTEiApQejra6VtF9T+qfdFgviFoLBTV/7gRq1/iX0dgYHdS3KzVEhdSYDDYpIgIs4Qrjtu/idPx2T8dtARYyAzsyRRknouk0l+LGIgbMehMrATALvSHPF3ra5e/UYwzaZDBaDnfFvA0pPN4GxpwpUAjnldsu9OAEoEreLKvvplAAG0RvAHCakLCFIBYEi/k0w+IFQBS9uu3tbWNdfP1XdMHmp/8D4alpbynbKyMqW/gfbfo4+BnJyCn6hAdxDQ+OiLLjoiYoj7R7mGT1heubwjOiLSP4qjyhw3rK44nYB9oL9La1rUTiM80NUGa+s/NEcACCCkxENysgMkAQAZAtOOEgzjhQBc5eqkT394x6YwurG0aSJgO14v2QYUyz+SvU8rvj33Hf+zrXssnUwbvNUYwMLCGVmqqvzTp8r2m0WrZe9reBHgEAF2pUgJ15R7Vln2BBVbwIrsIiwpmPW9fXLX0wiQQACDIovG9h5pBkIVsGbOnJnk76Gfdau9T0Y6llD8I8KHTfW1c0OxYc+1LgNT8vIXcKLfEsFE60YRE8i/bG6otX/LHiXVR1U8FpZXzQGVPtAKemJimQwgyO7eLiireXcAI8M3BBNdkDTIBXEO7NsiiAZnhxzOX2FC2gtlp/7MG74orW15x6vTXid0/QAATH/cdniY9u9H8P46Y37N0vDYt63aDByVAZadVzibuPoeATCbJ2szgADdBNg6zJF8Vll12TqrRWMLWJHJ2KziWZkHe7s+RoB4AtCqruzLZgBCFbCys4uHE5PvIaDLrEynLWBZOXuhY8/Ozf8RJ7gLgE4M3ZptIZwMIMAXTQ2148Lpw6q2jy5gfVI9BUV8Bkg92arB6Y3bK3uhqqUKOlp36236mPbQIUBCWjwkJkp944wWrb4OjkSxg8vypFU/WGQsCYYyHpqzfS+MHeFzjd0ABCmhWbL07MtGzS/7k9UioD7B/nJxdzpIHX5FULGTkp2gZuzI8iGUcqvFE6N4MXOK+zuAENm3DTFKfpjC1k7jack6cULesmXL/GHyobtZW8DSndJjGry84HJptVylVYhrvZq++sFkXzYD/2YgVAGroKBgtCzD7xTgZ1mZVFvAsnL2QseeleP+ASDcTQSZoVuzLYSTAQTwjXCk3f1R9Uf3hdOPFW0fVcC6/J/V8QmD2CUIyu+sGFg4MGut0A91d0B53XvhMP9fm1rZm8DANSgOUlO1k51NdpEwquwHt+wwGSpTwdm25JRWBIzZLQsMvU854NCDQy/auMtUiQEAglLmgV1CejpIvVw9tQfUu70k5weCMwUdj0iulMUHt/Z0a/MK4Xn7uNtACAzz2Lk5cxP2sfaf+rn/KbArscLMtnHmEaDLycSXklMTrrVC/xZbwDJmbWi9iXgXX3RQ7rqeiJKN8Wp7sRoDoQpY+fnTJ3BVWeonxW212A/jZYBdTuZ4yVNXcZVVY7Bxh8ZA5pTC8wD5vQCUHZole7ZBDOwfLCbOWVWzqsEgf5Zwc8wNaAvXVJyHIPwdiOytGP9OZ0d3G6yu/xCI9DnZ7z9fKlr/KoYgJrtg8GCXqRcPOZ037O/ufKb5glLLvAk3mtCdrxW/wCnuJ1rBnNG+zeCPga8DmfKz9Aur/m4GPJsmXO3sOtAZJzhZGpFypR/VG/XC5QJxn6pQvsJ7u1IGj/BObHnap5dt207wDMydevLxhxT/HT2K78cUs9t5g+fP3DNxVYIiXNAN3a3Nzc2m/R6yBazwrqIJEyY409LSErt88nIgKAqvN9u61RkIVcAqdhdnykArvKo80qpcIMA+gQmPNNRVP2zVGGzcoTGQlZN/DgdajABTQrNkzzaOAdoSJwn5Ho+n3Tif5vZ0zIfr6z6tnckE/nsg1VZp/53HXn8vNGythQP7Qy9AEsSvdEEmMhgyykIvDUXBK8bRiBWn32rfSEe5v798dfQghuP2xvI2BiL1Z6M2rXoJSyEiW+++GPtT1+5OPlgSFWcCOOd3g/+ecH4cI2FbCjkfaiffi3GY3Jm1/7mucPqzbffPgNs9tZBzfp9CagnZW4r6J8xCI0QmbEsS4x7vVjpfrKurazMjdFvACl9WpkyZMgiY4ypO/NcEMDx8nmzL0cJAqAJWZl5eHnCstTQfCF8iCbc2NVS/buk4bPBBM2ALWEFTF+GJuC5FdZ5S3lTeGmEgpnB/TAHrpx9/7EoTE38BSM+YAq1JQBzqOACfNa4MCo0gMUCtKIcBDB2VYtn6HM6coz/93g3bgyIhRiZtf/WUQ4CoHT8dkxdi7/OMd9yXvmD9l0YRsD1jXtxeP0snLolJTDitE5XnjPJ92A8DPBAH0h+6hN4/FO1K3oP29kKjU/ANf4V502b6SLlXJXU6AJhwT3ZE6bG+c6Slfoa/bqmt3W+2YGwBKywZwezs7GGcSX8EgHPC4sE2GpUM2AKW9uiB60fEpf18ReWKiqhMsh1UvwzYAla/FJlyAAL6nYL0XjLF/aSsrsyUL+2MJK7f7U3Xr646FwD+BEBDjQRmZl9tna1Q0fQJqOrA2t4IkgCMfXViYOrIRDhceWXmGPvDRi7X3aee2XFXKdqNrY/G1bYlxY8jxF3XH5fR+ncEX7dA/IKRCyrD2ky7KXOeo7dNHAd+IT5OFHJ7SXmMACIuHCJhrQPEu/2iWlO46+Vt0ZpnK8SVl1c0gxPdqgI/xe6RY4WMBYYRAV4nid2SNW7czmXLlqmBzQ7faFvA0pfbzMxMhwtTRnsF7yMAcJ6+1m1r0c6ALWD1CVgNI+LTLlxRsWJ9tOfbju/IDEzJKzyLE7+PiHJtjqzFAEN2IFmMezJlWNLDy5cvj+l2Jf0KWFd/ummoJHTfAOS/xVppDh/aHn8vbNi+Dnbv+eKoTvpEK1ETrRAShiSA06lVXkXPRYIod+1JSfBcccXAVLzoCX3AkWz485CkhLjsjgFPiMKBAqg/3tXZ80bhFR5d1wllznNUtYoTSRXSJIEN56TeRwATzUghAfxL4nR93n55C4J5Hq7NyFU4Mc2ZNmfyIV/HlV5VvsDechROpiNjmwH+LV4Q7xnjG7N+WbM5Tiq0BSz91sLMmTOT1B61uIvLt3Hip+pn2bYUKwzYApaWafQMlhLOWeVZZZ8kHisL/1txzp56yqwDvu6HZVKLY5QCS4eNgOudoriwpmbt+5YOJETwA9JUri+vORc4fxKIjw3RX9RMP9C2FyqbPvlGPEwSQNS2CCKAKyUOXAmitlMwai/mdIxdefaNhm0PsyKRO5acsocAY7Y/B5L/DQnk24YvqNoSav6q4XKJjeieqKg4WkIYrCBdC2CNxr2M8D0J2N2E1JC79+W+kwvty3gG5hTMSdmjHLqUE9cqIzOMR2B7DCcDAgjLXYLjgYQUx9qysjJvOH0NxLYtYA2Epf7H5OTMGOYU+Xl+rvxK5mpe/zPsETYD/8uALWD1cbI2Kc5xemVlZUy/XI3l++O0otNmHPC3P6oQnxbLPFg89gpU4ZdNTbX1Fo8jaPgDErAur96ckuhruwlIXRS0pyib2NpxAKo3fgYK94PoFEFAAEeiA1yJjr5/j4lLkp4pO+emq2Mi1iCD3PXatNtVcoW1eXiQ0AybxoHmjpn/yYfBOCyFUnbO0JZxHNVcAYQEDjSfEM4Ixlak5zBg5U5gT6eKiR9k7Hz2YKTxxLL/zFz3LxmxawloPAFJscxFtMUuMmFFnCDcl9ae9tnylsiW2NsCVuirqyizaITsoF+oxH+lEqWHbtG2EKsM2AJWX+bLx/SMODXSn42xugbNEPfcaacW7+3tfEwmdYYZ8NgYgmOAIZQ5Rdc1Hk95Y3AWrD1rwFLLwjXVc5H4AwDgtnbIuqDv6PT3rG34Yq2gYPeprhQXSEi6GLaakbLzbxvwGrJabHrg3fTKhGQXy4jp0xoF9C3oTtn/t4lntQxovzZBKWtO35yhKjTLy8CBRKcBwMV65CPSNkRknztBfCJJZG+M2vFn+ySRCCak0D3jhzL3nyuT+h0AsHs8RjAXersWkL0jMqF0woQxtZHsiWULWKFlNju7eLgoqpcqxK/iRCNDs2bPjnUGbAGrbwWsaW6oPSnW10Isx3/atNPyD/S2P6EQnxXLPFg9dobol5jwpqLAbY2Noe9ysRofAYkP16/2/AiALwag8VYLNHS86CNkaxioG1TAfeBKWVr3xV9PBAZvhm7buhbkuPhJa868bqN1Iwgvcvq4RNy+m29CYDG7/RbB/w5nvmtHX+jZfDS2CQA3HHdJml+B78ugxgnAsgHgZwrwqKuOEYE1OYjdP5QS3hq2/7mu8K5A2/qxGCgpKUk90Np5KUO4SiU+mvrOh7WvaGAAAV/njN+5vq5uU6TisQWs4JnPypqeJkjyJSrxm8iuvAqeSHvmfxiwBaw+KsqHpaWcXFZWpthLIzYZmF08O2eft/1JldSS2GQgmqLG/RLi0+ku8cnlMbYtOCAB64bqjUO4v/sGJPVKIEqJpiVw1AdrJlUyrnwKDHtlZ+rbTxVM8BweW/Lm/SWE+ALy2O0NRkxc8sn3bl4QC2shmBipFNiuE6dfycn5TDDzo2UO53jSmIs/XvPteLQTBNXW+MtkUOOBYKSAeKVM3BUtcR8tDgFYOUNclLun91O7sXvks12UP+2nXlUpVEnVKv1i4rst8qwbgADxRY78rg11dVsN8PY/LmwBKzjWp0+fHuf18rP9qnwPAU0Kzoo9y2bgmwzYAhZoh0mtHR034vTllcvtHlgxeoPMLp6dud/b9rRCXNvdYF8WZ0A7WVRk4m/r6ta+BQAxsx0sIAFLy/H1q2pyQaBS4vxsjNbeIYKjEbj8NgDIIKWtfmzq+I+OtL6L33piuAt8N6Cq3mTx9R8KfLns/NscoRiI9rmblrqHupSUfdEe5zHjo+6LFf/+vx3/s61erdqqadglV/aCMhQRnQKwaxTgCbHGDwK+S4C3FO19eV2sxW7GeLVTzlo7u38eJzjO8anKKQQkmhGnjSkwBkTGnoxTxPsr11XuDWxm6KNtAStwDufNmyds2bK90K8qD6lcPTlwC/YMm4EjM2ALWJqAhdUj4gZ996PKjwz/PLTXpTkYmD119gn7vO3PqqDOMQciG4UODKwhgtvWN9Z+qoMtS5gIWMDSorquvHYmEt2LXJ0FQIIlIu0HJDHHFuDKUgC1FaXk9ck9k94rPRX7LbEt+fv9CwDolWjgIMgYFCUhYdrqM679T2VakHaidtqGP89MSopj5RyErKgNsp/AGMqrOp85rqyrxeEAAoEh/EwFGhyrfByOWyT8i1Nw/jZz95/t0zxNshi0Bqc7e9tniCDcIpMSsyeImiQdIcMQEA+5BMelQzoGvWN042JbwAo8fdnZBeNJoCeI6LuBz7Zn2AwcnQFbwAJAxPp01+B5H1Z+GLGt1fYajSwDs4tmj9vnb/udSnxuZJHY3nVmYBUALmpuqFmls11TmgtKwNIiuaGi7iTOuSZizQSrvqlmjj0E9Bqocgs5EnepJK18etrEgMpqT3734dNQVp9GlWeaMsPhB0UgCO+UnXfLOeF3ZU0P1X8okEYkOy8kcrxkzQiCR93V0APdWxVQVQCpdlwX73TG232G/sunANglgHB5chy+efzWF73BM23P1JuBQnfxhT2yf6gkiItsIUtvdo21x5CtZiRc0tCw9gsjPdsCVmBs5+TkZKggPEkA5wc20x5tM9A/A7aApTV5xA0jHSmXflj9vy0d+mfQHhENDMwpmDN6r9z6exXozGiIx47ha88UyJZJgvTbmpqK9dHOS9AClkbMjeVNxSr33YmkaPtordG3hontBOwN4L7PAOPahMT48kdyJwS9vWv6e4+lOb2+64HTomhfLMeIr63s/NsGxXD8/Ya+87WTR3Fi2/odGAUDejb0Qsd6Pyg+AN92H3gPcCAOMNgxGtA7GIDbfbK/nmYGWIVIP83f82pzFKQ/2kJgBXlTz+1VlQyRsZsVUkdFW4CxEo9TkP7g8gu3lTeVG3b6py1gDXx1FRQUpCgK+41Myi0Dn2WPtBkYOAOhClhud3GmQuoKlauWPRETEbc6Qbilpr5q6cCZs0dGEwOnzzw9fXdX6/Oc+NnRFJcdCwBDbBNRWpwKcX8qqytri2ZOQhKwNGKurWjMETg/G7j/1wCUbk6y0EuMvc2IL1NB7OXO5ManCsfrJiac8vf7LkOA580ZuwGoCLopwXnOJ9+54WMDvFnSxab/mzXU5aJ3AcRCSwbQD2h5uw/aPT3Q04Eg75fBt18Frn5zklN0QoLvBGBkt0z7Np2JIC1y+B3Pjj/0fHs0rg+rxzRhwgRnUtKgWQqHURLDC7yq/B2rxxRr+BmyjgRBPO3MmsraUgBuRPy2gDUwlkuhlL2dv9ztV+R3OdCwgc2yR9kMBMZAqAJWUVHROL+flsikFgfm2TyjEWAfY8KjjXXVD5kHlY3ESAbmzpg7bHfXgT+qQOca6df2ZQwDiNiCiNdNnjjuvWXLln3rScwYDEZ4CVnA0kAu/KwpjZEvm7jyIiAcbwTw/n2gQiiuQlKeYILQo5Jz6+PTMzcDou4d+k/516OngiI/ipy7+8cVfSOIgKPAPin73q32iRZHSS9VF0i7WuLP4lz4R7SsAHW/HzoquqBjL4LapYJ/vwKK/9jRDVKzQSBntFCgWxwCsO3E4IyC3S9HfdmvbqRFwFBmZqYjyTl4QofSOZYBziKEWyMAw3YZJAMMsMIv4TmfezwHgjQR0DRbwBoYXScUFAyRFP4OEUwd2Ax7lM1A4AyEKmBlZxeNQpE/rXJ+XuDezTGDIXa7UHq1uq7yCnMgslEYzcAZ089I29mz/8+c6HtG+7b9GcUArmOcX7FuXd1nRnk02o8uAtZh0Nd9Wp0PDsfZTPFqp/IlGR0MARKy/2fvOqDjqK72ve/NbFF3rxiMC1i21VayEDYgmsEBQoAYUoAUihPS6M2GGIzpPQlJSEIK9ceEHptqBK6ytVpJLmBsXHCvkixp28y8+5+xITFgW6vVzOzM7sw5HDjovVu++3Z35ptb5FWkaTeSxPaQxHb1KC9aPR3R1Let41+7L1ciuh6FuN1qn22jj2BzzQW3DraNPTY0ZNMLE0aSkFbZ0LSETRLtKrR91Ap7NiCIqAB1twpKLOHt0Ns3GKCjDwC5ZYRfRy0X5KsLQPtr/+1PdySOqLsyRQhgaWlp75iGx3q5NFgI8WOFNLchaoqC0RW1eZ7sk888+7SPpk+fbup9gW6TS2B1Hpmjjqr2FRR03BMX6tWdr3ZXuAgkj0B3CaxRowIDmCzuIYAfJW9FyncKBuyt5U1Bt3ws5aFIjQGTKiflfR7d/hQRXZAaC1yt1iBAy5nAnyxfHqqzRp+1WgwlsHTTrw6tK2DtO44kOec3qIV/BGTFkyq2E+fnIWm7EbyR3NjuNdNPPrnTCYJGQl3977uvBoRHjJTpKFkIzcKX9eOPJl39uqPsttDYz58fPxAJXwCQTrBQbbdVkUrQUbMbtq9A0P9ba1FBSbLduMxlyI2PAkZyt+1KNwEMcKsKOL5y+9OWNppONxyt9mfS8EnerTnNAzQt3itb9p8RE/EpMaEOsdoOV19iCCDiajXqD6xataAtsR3Jr3IJrM6xOzoQyPeptAGI8jtf7a5wEUgege4SWJWVlXlqHK6IaPEHk7ci9TsR4d0VjSH3hUvqQ5ESC84JnJO1Tt38D0E0OSUGuEqtQoBkxl5CkG9saFi83iqlVukxnMD60vBffbS6j+zd04NUuQxJfd4ch7znahBf5dE0sf7EyrWzEFNW61n9xgPVpIm7UWhV5vhqb6n7ygiRLak5/+aM9D+R6NAH1dKWrXSyAHwnkfWpXhOZvxM2L0IgItDaNFCTJK2+7kdPtQgYuATWweLLFRhdtudZvYzQ8FLnVJ+nTNCvP+BEItRLCNWX6/Wf1aFGf6mSODITfHeSj724Z/S8UK3pQxNcAuvwp6K6ulrauad1GQEc66Tz49rqTAS6S2Dp57WlpX1iXGj/cSYC+612CSwnR6/7tuutEFDy/osALuq+NFeCnRFAxIifeX8m+2DWokWLIna2tau2mUZgfWnI9BUrPK2trX24wj2q7DmdCeXPXTXyy/XE5HYG8ndJCa8kWRUdHs+OJ8vLlWTlGbmvcMWLnj6ffjYNiW4zUq6zZOHqmvNvGeksm621dtOz1SWEELJWa+LaYsHdsOkDnaxCoKi2b5Kg0Vef7IFAe/sDkOlfP0abbro8CfDvWjx2TXnzLLeZu+lom6ugqqrK39Ym8hgD2c95ZbsWfYSA3CmG5sKekHQk3NqnV96QmpoaUzO1XQLr8OE4pfT4I7dpkbR7M5zQIUxyEUe2I0/yP9WuRv5DhDuJUNE0oaqy2ukLXI/HwxBAFmHVV+DLuaBZab8zSTMcua27BJbudGFxYAKQmOdIAL4w2iWwnBw9Q2zHwqLSZwDgB4ZIc4XYGgEEaNFIPfGTZcuW2drQLhpn6RPklXV1clYbz9ZtVLLi3MNYPqm+EmDyRQQYYCLWHwA0Yp71DKAOSXmBq8oKhUWjFPMLb65Ga9eubZ914YWd/lB3EQdDlle/PHMqAN5liDAnCkHcJby+qz/61jXPOtF8K2ze8uzxRxLwJwVy26RvKyubYfO7cYjshn0lgkJ/pDMx/4cxhB7xYkDgVkDuKB0IEGeaNrRs1wtbHGW4a+xhEdDf3G/aFMnKyYkxznP9OYzN3Bnbq/dRcZvBpejs+GXmCQaDpr4Acwmswwd3dFFpMwEUpOgI2FZtb0/O+zERnya4WK8oXy3Yb/d6xWC/P15TU6OPTNF/qZP5tcZJwyd5tuZs9esgaJqGBXLBESoT97XGw2k7YdUIAmt0Scl4EjjftocnAcP0aomBvp4Xv1v77uoElrtL0hCBwuKyZ4Doh2nomuvSQRHANtSgbMWK+jXpApClBNbBQCMivHAWsNF9ALfkBvfZM7CtjVbs3EmzJk8WZkwNNCt4J8x+ZDyLx+5CIarN0mFrufqER4L6mvNvKbe1nSk0jghw0/MnnAjAa1JoBmqs6kwAACAASURBVGg7Y7D1jXZoXa3sGyhPprcz/qq3vdQSl8A6xAFQVD74+N3/2pzK8+HqNheByZMn87Vr135BXnmGZTH5qd2xNrf82lzYvyJdRn5/Y2PdTWaqdAmsQ6N7RtUZwzd27Mj4B2iZ8bWcsStUNVory/K+Ob5HH320mDVrlv6rnAw5leyRxsmTJ7MVK1bwXt5ew6Og3N6hxdKqxMglsPYfDQTYJCG/q7GxLumKmGQPmbvPHgi4BBYAR9Yqc/YXFLBJAbpNFVove0THNCvaSWEjP/44uNU0DRYKTjmBZaGvlqg66eW7ZyLArZYos6eSxurz4mXT0fwJT/Z0v3OrNj9/yvFENI+sGsWnE1R6k7JWBXa+1w67g3HLCauvo9I3ZwCIloGdg5WBKzAuFwWa/7EcrX14yUCkbekyq66qHhmJxW5tU6P/fXhEAE77s7Xc32wDw7ayKWQqni6BdehgFRaVRQDIZ2A4bS0K9eoCAE1GqcWLfGpWi++ZmvU1BnWWNMd1vVcOyN4pSPAIgfNTpg0ksPQSQlO/O8yJ6H+lEiK+sqKx3p1CZzLQdhWf4QQWceDBPt686+YunfuRHqOioopTNdBmElClXWNmhF2I/A95WfIN6dAPy8lfwEbE0nAZ1a/c81sgmgYAkuHCnSAQcTt4/L+tOetq983OIeK17cUThyoqPQzAv2NWSPeVAioEFFahZXEH7JgXA2GjwltEgF5KmcPvAc2JXgH67oScrLtHrPmdCR3IzLHZlWoaAiwQCOTmstxz2tXIb8JafNgXmhgAegHI636Iksf+yHB/35w1c0z7nDmRwMrivp3cI4bX1tbuTR7Zw+8cd+ypvdo9e/S3wOk+zUMvUQ1LyJo9XHpsaLTtiVkrV+7LsnLSVVFy3I8VUB+I789QcOxzgxEEVkXJ8SUqqC/HhDLUSTH8hq2Ir65srD/P0T64xieNQAYTWEJC1tiL5d3wQeiD9w8EsLzsuGvimnK7SiKty9qzuf+kpaGFOglvZYZv0mf1UBsd+0NkOBIGCTxpzoMVGFPvASFONUik88QQLKi54NYJzjPcMotx3bMnTJSQv2WkRlIFqB0EFBfQsaIDtr4d3d/PyqZXb1EMIDKT5z1cSGRgNQhwdvH2pztsGjrXrNQiwKoD1T2J06UtSscPFU3rs++ZkkhiDAsE7ctqcX/bE4hRH0/eTR/WfXh/AkuTWuJIAkvybuMyHWMmgVVWOm5JVFP0VgPpeE718SRhAmhGxPfyyXfTwqaFO5I6QDbaVFFW+ZOo0GZqQhtgI7O6ZIoRBFZR0bihAtUHBdH5XVJus8UI8EahGvuuEwlVm0HpSHMylMASHNmKPv78m+YunjvnIIHD0UVlMwjgunTPDpZAO7qpqWmdIw/vF0an481DyuNR/fLMRwHwNyk3JEUGEMASOZdNfO/0m91JaoeIwcbnq6uB4E0A2DfUINlLJ62UFrGv+XpsQxg2vxYBzdS2xMla+s19vbL6Au51h7J9HRkv8N3xeGSYO4nQuLOW7pKmT5/O3n3t3f6yJN+4K7b3FAGkZ7YwBOxFQOne1yHp8CJAbEVTyLQyNicSWH7u3SJ5aJRZBNb48eNzm9vCGwEgP+nA2XMjIWAYAT7zMelt4tpUs4cEWA3D6OLA7UBiGjk0c84IAmtS5aS8ncruy8Kq8rDV+BupT0LW0MOXc+2HtR9+YKRcV5YzEMg0AgsRNQa4BgTdu2xZ/T8OFaXTAqcN2aG1PKSROI+I0nbSlD4wysOzhoZCCxw7MMolsEz4rtlXRijoBsDukRMmmGaNSMTt5PPe9+Gkax+xRqHztKz/14lDuQQzAFhSU0Bi21QQepngnjB8/mIENNOKYMzDljGAnvGAeQocLFmKyT1KW/7R4mAXXNNTjMDEoonZETly6W6l/bL9pqCXAQwSQD1SbJqd1CsXNp3rmw7m9Gx0IoGVxT0buQfGmEVgHReYcO1eJTwzzd5wK4jY4Ed5SU6B/+qamhob5z4n//ErKav4oSrEHUKIL0uZkxeWgp1GEFi62WOKAxMFibdT4IJhKjmyiMz43+pDS35lmFBXkGMQyDACSzBg6/r6c+6YW/vh050FqazkuCviFJ8qiI7sbK2T/+7l8tuDWb/z3wi+EXaiHy6BZULUTpjzaBGPRR4CQaeZIN4pIt+tOf/WiU4xNgV24sbnT/oOEL6cqO7oNgW0CO2rWt78fAvEWyweHZiooV1Y1w/HgqZ4urAjM5a6BFZmxNlCL3F86fgBKoPL25TwqXpTeADsT0COfBA1EDfVL/zHBpcv/MxAmf8V5UQCy8+96yUPFZtFYBUWlW4CgEFm4J0KmQxxAwlRT1r8eysd2N+qK5iNLQl8hwTNEEBjurLPLmuNIrBGjSk5HRm+Yxe/krWDAJ7/uCmkv0R1dC+cZP3P5H0ZRGARA9zCON7fFAo+nmjMxxSVzRRAv0jDTOH/QqAPFvEx72XBhsX/TBQXO61zCSyTonHyy3c/SQBXmCTe9mIJcWFc8l646JxrN9ve2BQZ+PkLJ05EjT0HCIcs8dEzrZRWDYgAdrzVBpEtalrdavTL6Q1aS1q/5EjqdLkEVlKwuZsSRKCqqsofiSgT40KbgoQcEYYAwnBBlGlN6YSM/MHGxrqbEoSuS8scSmB9JnmozAwCq7S09MiYBrUA0K9LQNp38Vs95eyn5wfnP2dfE42zrKio7BwNYQYRFRsn1TpJRhFYo4vKTgGAOQTk6LdvCPi2zDw/a2hYvN66KLia7IBAphBYDHGnhNJjDQ1LZnYF9+qK6v67Y21/EiDOovQeytbBCc5atiz0YVfwscNal8AyKQrVr9w7DUlcQwA9TVJha7EEuBNk6ZEPz7nhHlsbmkLjtjx7/JEaytMA8PIDzYhtVyG2UwUSAM2LwtCxLg5kowmCRkLGEKHnvmmE7nUgAi6B5Z4HqxCYXDjZs8G3aWJUKJM1IfTfq2ICypTmdORhUmNDw9JSM/B2JoHlWePLksoWLFjQZjQmY4oDjxGJKwjAb7TsFMj7t19m30+3PleHw3FMSeAsInEXEZSkAO9uqzSKwCotHVcuBP1TIbWw20alUAAi7pIAH2psDN6bQjNc1SlAIBMILI6slSN/tKFhyfRkIC4urrhYJfVOAnD2xNFOnEfErV4un1NfXxtMBqdU7XEJLJOQP3nOo8dQLPL7jC4jRHi15rxb3TG9hzljG1+o/iEIeEbdrUJkkwKqAtC2Igptn8SA0rKLxtfBQOjPR4EaS4fnGWO+TCRgAmK8l9sDyxg8XSmJIzBh7IQeLSxyEZGoQsBSAjqGABydZZCA9y0rm0Km9AVzIoGVxT2ferOkcjMIrMKisk8A6JgEYmLbJQxRL97/z8rGYT8CmJWmr5YODn9RUfm3NRAzCKjItgE6jGFGEVjFxcWDBPBbNNpXYuTsC/HvfgmnZBIR6+yAGWN9uhNYHFlYRv5ofcOSqd1BbGxx4HaN6NeQxsNwEECRGH9naEHOxa/W1Dim965LYHXnZHeyt/rlu58BgKSadJtolnWiEeYh41d8cO5Nq6xT6gxNBIArB15yhGfcnhu0o1p/uXddO+xdFgXFgc3Yu4t4L38PwLajuysmbfb7QNrpU9ThI/Y8uzdtnHIdcRQCkydP5qtXrztbFXQCZ1ilkSgVROnKMrsE1gGn0889H/vCUuWCVcZmYOnT2z6PbA8RkGO/7Blgs8SkP7a377lzzZo1GfdrXVRUfoGG4k4icmTmkVEEViAQkBUFv6+C5sjeMQf+GDHAj7yy58ZgcLFe2uteGYJAuhNYfi7fFwwtubm74awuqS7YLdqeFSBOd+r01UQwQIBmmfE7GxrqHk1kvR3WuASWiVGofvW+m0iIaxGor4lqbCuaAPYwxh774Ds332lbIy027OPcS3upWXBuDEUfRjiSybHzI9LWghZlp8WW2EcdQw49FUdWJJgCogf5R5IWOWv0zlntpihwhboIJI4Anlxx8om7Y63VBPh9gTQ8DUdLtxw5qH//OXPmGE5IODEDy8c9K/1h6TijCazy0soLIlr8CQJw5P2QhCzCgT0UU7LvW7myJiO/m4uLKy7SQNwhSDgyi84oAkv/+hw1tuQ7iPhK4l+l9lzJANsZsAebmurusKeFrlVmIJDOBBYCPraiadh1RmXIlpSUn6sI7fcEMNiMWNhI5maGeN3yxvr/s5FNhzTFJbBMjNKJrz8wlGnqU0BUbaIau4t+tub8Wy+2u5Fm2rcafuWN9Gu5NI5iMAjswxC/q4Ho86XOGNsFbWyDmSbYWjYDBn3l4aBGcm1tp1XG+VC+w5eTe8+INb8z/IHaKh9cPWmHAJaWVl4QF/GxRHQNAKbRhxXbBmb1rHxv8XsfGx01JxJYfu5Z4QtLVUYTWGOLAy9rJM4Ch5akepE/TKjOaGhocEyJhdHnuayk4scqiekqCUdOXjGSwBpTHJiIQM9oRP+9lzMab6vkScj/r69UcON7wfc+t0qnqye1CKQtgUXwcLiteer69eujRiJcVBS4XgNxKwGY0m7ASFu7IYsY4go/8ilLG5Yu7IYcS7a6BJbJMJ/02r3/RkHnAVFGYk2AHxGHqz8695aQyVDbTvyyfj+6LIbasUTk5aCTVjTgYEaS3AoRaSOEM7F+EAAQEPK8eSB3DLddDFNhUB7K40ZuOyqIMF2kQr+r00XgUAjopTMRVVzmZfLkmKacvO/j6/ALASIe7pkSCtU+bbQrTiSwfNzT5A9LE4wmsAqLSvV7AEem2nLG/qlyuOXjYHCr0WfESfICpcf9XBHqb1XSHDlF0kgCa3z5+GPCSnxmjNQLnBTDg9nKgW2UOL8jFFryN6f74tqfGALpSWDhA1qsY8aqVasMH0BSXV2ds2dP+ysaaNXpPJUQAcKcsVl9eY/fvBd8rzWx05SaVY6/+UwNbIlrPenNB38FinIzEg1MfFcarURoAcDHas67JakpEE5DYl2/y77XDPHjBQqZEX5LAxrSmQ+MqxCVtsJebUdnS9P27xxk6KE6si+s4TFRVD74+N3/2my4YFegi4BBCFSVnzAurEQvVEi9ziCRqRQTk4A/1NRU161mrwdzwIkElp/JofaIfNIqg3tgOZXA4si2MEm66LzgpIXTM/ylQkVp5XVx0m5ThJafyg9ssrqNJLCqqqr84XD8coXE48naY6d9HPHPfb09pr6/5P3ddrLLtcUcBNKNwEKEe5lQ71+2bFmzOYgBlJccVx0W8ZfSuaH7fuxwG0N8cHlj8CGzsDRCrktgGYHiYWRUf/CH/tDc+hIAjDdZlY3F019rzpt6JSCQjY1M2rT1/a88q1lEJqlM5HmAjVNIDOsqQx9lO6CdbUzaBqdvZMChp3QUQLTA6a50y34JWIumUWH5rmcy+k1/t0B0N1uCQGVlZb9ITPu+KrRHLFFokhJ9Ao+XyS/WNywxvNTdiQSWj8t10VjWyUb2eZo47sShm6PtswnoWJPCaJpYBuxWiWl/zOTSwS/BLSopny5ITBVEkmmAmyjYSAJLN3P02JIfEOKzJppsmWgEWM+B39rUVPe8ZUpdRSlDIJ0ILER2n4eJh0KhkOnNhEtKKq5QhPoYAaTrUJsvz+R6BnDX8qaQbbMyXQLLgq+Pk167dzYKOjNTywgBcb6Q8aaPzr7Z9jW1iR6HtQOmnLhXRCYrqA2UiI3UgEYQkDfR/V9fJzytEOabIKoYWradrDmW79PLCL0sB3LiIy3XbSeFWSg/zFU2/dhdTxmeAm0nP11b0gOBiUUTs7fB7stUEI852COSkDc2NdaVGu2DIwksJtdG41mnGUlglZeOuyyiKTMJwFGlZwxxJTD60fJQqM7os+FEeaOLSu4iQMMzFa3CwmgCa2xp+STQ6M8aiCOs8sFMPTLjf+iX1fPOdxa+k7nlAGYCbCPZ6UJgccRHJEYPhkIh/aWv6UkSk6sm+z8Nr3tXIe34dGihcJgjSQi4wCvJN9TX1y620dH9rykugWVBVE74z4OX81hcL6EbZIE6+6kg6ACGD9Scd4ujp5ys73NZaTtTL4mgOooR6rE8WgBlGwI40yDCtkIHbDdEnBOFcPJCD22ME003zOYs5JWF246uc/tfGQapK8hkBKqqqnoqUXo6rMW+ZbIq08Qj4MYVTfWdlnt31QCHElgLo/GsM4wksMYWB17USJzrtAbuDNjVQo38beXKlRk5dfDr590lsL6KyPjA+CHtqnKrQsqUrn432HE9Im5hAm9Ytiz4nB3tc20yDoF0ILBkxp/0yL77li6dvx4ALOsZW1xcXqqQtgQAHJmJ2oVT1M4A/zRKHTZ11spZ8S7ss2SpS2BZAHP1B48UUEvkbSQYZ4E6W6oggMc/PC9+DaCzGlN/3vfKYR0Yv7wD1fFA0AMBhhBQLpnQvDjMtkKYbbFl/KwwiqMEPaXBQJFeVqiznQ4JWJtGrLR8xz8/s51xrkEuAodGgI0rPb6yXYs4OcN288qmkOEjsh1JYHF5XjTW/i0jSZvCorJ5ADTBSR8iCVk7Q7yooaFutpPsNtNWl8D6KrrV1dXSzpa9U0jQ783E3UrZEuOvS4zfVl9f22SlXleXtQg4ncCSkK+TOF41bNhR786aNUuzFj2AkpJxZ8WF8qbVeq3Wh4DbEPHu5Y3B31mtuzN9LoHVGUIG/f2k1+59n2lUTUDMIJEOE4OLycNu/fDsmz6wu+Fr+v2sb5yiUyKoflsQ5TKE/gLA9Kal5G2FMNsMESVid4hMsU8vI/RgDuQqmVlG6AF2TT+Av/Tf/nSHKQC7Ql0ETEIgEAhkgZB+HdHi95ikwmyxLoH1BcJeJtVoInZ2U1OTYd9DhUWl853WB9TL5X9mS5475y+dv9bsw+cU+S6B9c1IjR5bcgUhPumUGHZmJwJ0ALCr+/TM/UdNTY3a2Xr3785EwPEEFuPTGOT8oaGhpiUVEdDJ65bm8Pw4KZWp0G+lTgl5yCex25YEl/zHSr2d6XIJrM4QMujvJ85+9CKMRR7O1GmEBBAHwrs+vOCWGQZBaqiYLQOvzApr4vI2iF6hAmQjUE8AyDMj0+qQhqPYl4EVxswtI5QoCwq0UYbG1inCCGFcxbZn69CCOn6nYOLa6RgEsKiofLQK2jLHWPxVQ10C60sCC6X3NYqdm+kEFkO4rHeP/H+5D/H/+6C4BNY3v90qyyqLIkKboQrt2w797vuG2Yi4FQGuXN5Yn/YZJukSs6764XQCCxAvWdlYrw9QML3v1aGwLS09/siYFtHLF9P60gfdcGR/HJDluePtRYv22MVZl8CyKBKTZj/uDUfblyBAkUUqbagG7+tz3rCps/BCy9M9DwXGhr5TLt6NHbdrQDkImANAOZaSVl8zTM/ACrNtNoydNSZJTIICeSBARx9rFNpEi5/kJ3yo3TF8+9Nu81SbxMQ1o2sI6DdzAMr7MU0d1rWdtljtElhfhMGD/B1B8fMzncACootXLmtIiwlzRn3CXALrm0jqmRi79uy9RgDdbxTONpBDMvI3PYC3LG1cusIG9rgmGIyA4wkse3w/Y3lJ5WlhEX/H4PDYThwChIFw2opl9baZOu0SWBYek+rX759PqlqFAJlZRogYRFme+sHZ179tIezfULW232XntIFyfxy0AXpTWQTwpZK0OtBA9O2FdtTLCMOphCiluj2QC3lqhpURIp5cvu2ZD93sq5QePVd5NxA4dty4XlIs/oAg/Ek3xKRqq0tg/Y/A+o+g+EUugeUSWAd+GE+tPLXfzmjLTJXEZan6kHZXr9FTCL+0Z1RRydUIaJsHu+7ipO9HANXD+ZT8/JznampqMnM8thFA2lSGS2AZE5jKysq8eFy8HdPU44yRaF8pCNBMiNetbKz/ux2sdAksC6MwfvbvJsnR9qcAqL+Fam2kCgmJpn1wwa13W23Uut5XnLSXxx5UQIwlIH1yBLfahkT1dbCNEGGZm4gjUw7ka8ckCpfj13kIr+qH+C+395U1oRw/fnxuNBrVgsFg5rLEJkB9TuCcrJ2w+0d7lcgTJog3W6RLYH2BsMz4qxKnHxr1+ZgwYUKP5taOtwmhwuwgGiWfI2uUGPtNKLT0Q6NkOl1OSUn5eFWImQLoJKf6YhaBVRU4cWxYC9+pCO07TsXmYHYjgiYEnPnxstB76eSX6wuAS2AZdwoKCwNDQBIbjJNoX0l+7nm+QM6Z/v6S9z9NtZUugWVxBKpfnvkpAI6wWK1t1CHijN7KsLtmXXihKSM59UyqIFwptR0V54M7+KgwxmYqSKcSgMc2IHRiSAffBJFM7oPF9TLCfgDt6c/zSsB2c8HOL9r5z4+ccj6dZKde3tHWFjlFVbV7FNLKDmY7A1wrkH3fL1EoGAwqTvLPTrZOLJqY3SJ1/KRdDdtuWs3hcNIzDfzc83pdqPYCo/F04hRCifGXZE4/MorAmhSYNOxzdcdLRKLEaHzNkodIb6LGpi5fXu9OYvsC5Iqyyp/EhTZTEfsy1x15mUVg6WAUFpXcAoAz9ycvpc/FAONIdPqyZaF5qew35AREA4GAnMtye+2Jt89WSSvhyBrymO/s7W3bd69ZsyZmJx9cAsu4aOj3mR2t0eoOLaZXF6V/hRXCr/0S+1Oq75fT6ovWuONonqSTXrtvHmqiCoBsmwFknvcAhLgMuHzTh9++fo5RenTSatHgyT4A8OfFc49QmHKtRvRdAsoySoeVcph/L7TBFogohg2BstJ8Q3TJlAf5WtrzvB2AdGHFtufcMe2GnJqvCpkwdkKPNhb5pULizkTEyyj9HyK7bcSIIWtTMZY5ERvtvGZSZWVes8Kv2atGptvZzoPYFpcYe7ypIXiD0XY7lMB6XuZ0uVEE1hnjTi7eHG19RgCNMRpfs+T5mfzPfJ4zY25w7mdm6XCa3FFFZVMR6C6n2X2gvWYSWCUl4y7XSJupkejrZIwOZjsS7eHIv9XUFFwKACLd/DPCn+HDK/N65OETYTX2XQLwHiCTOOIGzcOr4s3NzXYhslwCy4io/09GRUVFf0XBf8aFMtFYyfaTppPagOzyUSOHPpfKe2WXwLL4bJzwzuMn8fb2fwNAL4tV20cdwjU15936WHfe5uikVVO/S7JIxQLOoZcGeKmK2hUElGcfR5O3pJ1tgCjblbwAh++UKRfyxbC05Xn1WnIG7KrW7RtfOhncUdVGH9fCwsIcJvl/KkDo3zMJXwyZwoifybnySSgU2tqd76iElabJwjFjKvsBV/4iiM5xkksIEAHCG1Ysq/+D0XY7ksBC/nR2ljxl0aJFESPwOHPcqVWbos1/E0COGS/Lkb2KhLc1NdUtNwKDNJDBRheXTiWChF4G2NVfMwms6pLqgl2ibaYAcZVd/e+OXX7uWcZBvmRJaL4+adYlsQ4As6ioqK8A6TW9TJrokMkJezyM3+73y08Z9d3anXi6BFZ30Dv43sLi4tEArAYIehsv3V4SObJ3ObIbGxqWNqbqPtklsFJwJk5+5Z4NRDQkBartoZLhTL8n+/453/r13q4Y9CVppQoawIHlAqMzNKDrBVDakYFhSS8j3AlEmXmfIHMJcnlfYGHHVisc8mgTwA5OcF3ZjhEvIExXu/IZcNd2jsBRR1X7svL3fh+Inup89cFXcGDrVFC+nSXL24LBYOYyyV0AcMyYwDBgsFyA0LNhHXRhWz9vftUHSz8wfNqWEwksjuwfOVmeq4x6yJo47pRTtsZa/6iRcMxkDobwLiN2c1NTsN5BB9k0UysrKwdHYupvVSEuN02JBYLNJLB080cXl95GBFPhqxk4FnhmjYosLtchSVcsbViol9Zm5s3pAVBPLpzs+YSvH0xMPC9I6D3+DvtMzQC35Xtypg2UledmGfSCINnIuwRWssgdep9+HtZ6NnwrKtTnCchh90Fdx0Ni/EaZ05PBYLC167u7v8MlsLqPYZclnPT6/XNQ1U5P2/SSzhBB9jEwdm3NuTe+1dlS/e8bB0/2b1N8wxAgWyIo1RB+K0CkdYMk9LVDG22CqJa5ZYReKoA8bRhQIofEAWv0TA8E3KyRmD57x8jnp8P0jL8BNDpseg8KRcFJAsULgsjfXfky8j8roPz5yI6BK+esmWOrHhbd9c3o/WPHBo7VUHxstFwL5LVceP65vaZPN/7z6EQCizH211y/59dGEVinVJxy4o5Y65MChGMmczDERplxt4n7/g8flhVX/FhB8YAmhKNfFppNYBUVjTtFgKo3uk/biWR+7mmKA/1sWWjJ4lRlXljwm9CpioqK6v5cVca1iejdRGJ0pxu+WICI6/OY91bwwatGfccmqvvAdS6BlQxqne8JBALDVBUfU0g7q/PVzl7BEFUJ+Y8LWrL/XbPe+kmlLoGVgvNzwlsPj+Ph6PsAkJMC9fZQSfCzmvNveRIQD8pPfADTpZ4D1hTFCHN9AEP1PjYC4Ah7GG+NFe3SOojBnrQhcLqKmg9zoYCGgqrKXd1qu/UIuM0DbK5XeP50zM6/6s1Q3csEBMaOrTgamfiLSuIUA8WHfZL0k6hGq1c21oUMlJs2ooYPn+TNz9l9QUQozzrQqZaVTaEeZtjtRAKLI/65Oct7zSaDMgROKT9l3A6l5e+CqNAMjM2QiYgKEF26oin0ghnynSSztLR0YFzgrUT0CyfZfTBbzSawdJ2FRWUPIMI1hyklczqMwBBbAdl3ljfU1Tjema47wIqLxw2XGFwTF+pFGlGXfzsY4Kos2Xtzr9aCOal6MeYSWF0PfKI7CovLxyFozxLB8ET3OHWdh0l1Msh6VqblpYQugZWiU1P98t07AKBPitSnXC0h3K+Q/NDC82/Qcdh31cGVMhsQKdZI9JE0liMY3S2A0v4L4FDBUH2boJ12gqplZqLOvjJC1hdYxNFlhFEGuAYJ/p6vZP1tWPOTKUm1TfkH3gID9vW9kv1TBIkHTVAnAHA1AlyNEmxZXu9OJzsQY73/FefaIoW0oSZgb7ZIl8A6AGGOWZTFLQAAIABJREFU+Ie21rzr1xv0RnXi8RPHbGnf9ZwAGmt2IA2VT3TxymUNTiRkDYNB/07lHt9VQsBdBOT4N0lWEFglJRU/VEjcTg4qmU3mwOiNnDUhzh+Rn/3R6wsWtCUjw2l7Kisr+8XjYowixA2CxOndmTiHepYnyjeMGDFkbioaYTuZwGKICiN2aVNTnS1fMEwaPsm7LXvnhXESTxBQ2ieqSMBnapr88IoVi/ZY+Zl2CSwr0T5A18lv3P8iKOoFlAkjNw+GMbLPhMSuuuOc2XP79hkyNoraUcBYPhD9QgDp47alFIXGNmq5vwNaxcaMLiP0UU/IFUOBnFdHSAxhEyP2lo+kf4/a8Xd9vK57mYTAl6WDKmivmaTiS7FxhrCQCB/OYfIntQ21q03WZ3vx+gjpvS0dF0WF+oztjf2mgaS/DV/eVG9Kg3EnZmAh4GMde/NuNorAqq6sHrwjsvc1ACpz0vlAYFf06Zn7j5qazByyMRkm8zWl6yfEhXo/EYxzUuwOZasVBJb+8Pp59vY/EdGP0wGzTnwQXpRvUAXVLVu29KN09Xfy5Ml81ap1o4DBpULQRQKEQT2MsVYCuKGpqX6+1eWYTiawPExu9nD+0yXBRa/a9cwFAoFj4yrcrZE4z642GmmXxNgVMofnjJpenIhtLoGVCEomrKl++7Ex0NGhl6NkHlGjkxHbO6BiUeuT332vpd4n2HcV0MYTQLd71pgQqpSKbJc/gxi0OJHAMQQ3P8uFPBgCWtxR/RD3cGDvysg+9OXkPTVize/c3kmGnIZDCwkEAr0VFV5RSUwwWdU+8QywhTE+W5D2b78nq2Hp0vlrrdBrRx1VZdXDw1r7PIU0J/YlFDmSf8aS+oXTzcDWiQQWEHs43JY71SgCSyeXI4r4EACqzMDYLJkexp/M5t6ZC4ILPjdLh53l7h/KQL8VQJfY2c6u2GYFgaXbM7ak7BeaoFsAYFBX7HPoWsGArRCkzRiel/1WumVjlZSUHEUknaCSmExgyoTdeUzQzcuXNyy0Mv5OJrC8jO/kKF1eF1r8upWYdVXX2LGlJwrERwmotKt7nbZeQrZeljzfDgYX6ZN7LUk5cAmsFJ6Sk169pxUF5aXQBGtV74wA27AXIKICftYClWsVOLlZggLVPYaHCoTI2gx7Nb2MULM2VjbRJnMO2dgPpKgTygixjQO+IZCasjn766jN/9ptExjT2ozCwkIPk3y/EUD3W+0oA9zBGM4BgW/5gNUuaVqyzmobUqlvYtHE7B2s+YG4UH+eSju6oVsd5O9d+G7tu6Zk0rkE1v7IFBaV6hkG47sRJ8u3csQtSPzSpqaler/SjLqKiioHC1CnChA/SyfHrSKwzqg6o+fm8M6/CaLvpBN+h/MFAZolZI8KxLplDXWzne63/lJM0/gEVWhnE9JkIvOe1ZCgRiDe8nFTvd4Y35KruLj8KQ3EpYKIW6LQQCUeJm31MOnKJfWL3jRQrOGiqqurfa2tHT9RhHaPIMo3XIHNBDJgTygx382rVllTUuwyByk8ANVv3P8XUFRHjyXuFL6WGLBPmwHbFYAt7cBWNQOGlX3bsiQJLozkwAgl85LQOsXtiwXcG4EWWg8xEU50S9qt81NvyBVDQJA9v64kYDsF0Msa0Ibe5H/q6B1/3Z52QbCxQxPGTRjZHAs3kAFTB5N1kyFuRcJ3JMB5ftlTszC48LNkZTlln14qszFr+20CSB8b79RLWdkU8phlvEtg7UfWiQSWbreHsSsKCnKfqamxfsKSWWeyM7mjAoEBXIFpgDTFiQ+3h/KPIcYY8mlNDUvN6JH4DbUlJeW/iAstU7Kw9vmPiBoBfcKA/Tmb+5bW1i+wjJDp7Fwn+vdAIJCvaVitCnEyAp6tgRiW6N5urpsrCKZ9siy0qJtyEto+rvS4x6NCuVwl4bjKF5lJm2RgU+oaam1PlJaVHTdK0ZQ7NBKTEwqMwxf5mefqSLztjytXroyb7Yo9nwjN9tom8k+Z/fgwEW1fYxNzjDOjQwG2bBdgSwywOQr4iU5gHfwsX6TmwxhFBmZJwqFxLlopqd2zGmK0N2PLCLN4DuTCYNBi2VbCflhdHFgHAjyngfZ5Nsk7fPEeLw5tebTFNgZmiCF6b4pPPl33D420i+3gMkfciQBzCVm9hPzNUKj2Y6vSqa30X8+82kw7pxHCzVbqNVoXQ7ZteWPQtPROJxJYHibd097e+441a+YYVvrsVAJLQv4+Z/zXoVDtSqPPnh3lFRZW9OeyNl0Q/DQdmrYfiLHMpGYPZ9OWBmufsAL7SaUn9NkoOp4RRBOt0GcnHQjYwRFrNUFvI+fzlzcstbQ8LhksioqKsjn3n6OI+PFAeJoAMqUv4uFs01+CoURTl4dCdcn40JU95aXHPRQTyhSNhH1urBN0QGbSeg+Tfr60ftFbCW5J6bIxJeXVIIQ+lMxRZfTJgCYh25HNc8cvqq8xndtwCaxkImTgnupX7t0LJHINFJkaUXENWP0OwB1hwLAKuGoP4N7OCdhC9MOZUT/00lhq7HaAVsrZAq2KXkaoOsBa402UOIcs6geeuGnPmQkZzZHFkOAlgdTIBbYVCP9rR+16cmtCm91FpiBQWnrcpJgWs91bOIbYQQBzgcRn2XLWe1kRz4c1K2vaTQHBYqEVZVVnhrXYWUR0VXemMFls9kHVZXPPnUtDtb81yxYnElg95Kxb81rzHjZyvHtRUfl7KmgnO+28METNg57LvX78v0WLFkXMOid2kKuTVyip9wHiD4go7dLiZcZ3epg0dWn94r9YhXdxccVPVNKmE5BBTb+tstwYPQig/w7WIWKtjNKigoKs92pq7PU7WDW6qmdEVqfEhTqEITtVkBhhjPddl4IACkP2ipdwRl1Tnd5LyLSrorTy7qhQr9JIOK60TWbSahnYL+oaat81DSADBeulhC0tHb9USZsqiAoMFG1LUQzxhVEjh11s9nRNl8BKcfhPeu2++1HTbkixGUmrZ4u3AtvUBqAS4OrmfVlXXbkkRPhRNA+O1hw/obkrbndpLfPEoJnWgkKZW0aYBX0hRwwGIaz9yuKAKgc2WwWqQcBWn2Dzlu/sWHshzMrMpmRdOrnmLx5TVFYngALma0peg4SsQSPRJCHbIEm+vwaDCzY6MSururA6Z4/Ufp3eyFYglZADe2d8PYpHyDkD3w7OM42EdiKB1cuTc23/8O4/zDKwBKC4uOIxlbSfEJDjXtYxZEuA04+X19fr2ZTpeLGqQNXIVjV2BxBdmI4O6j5JyDZLKE+rb1j8D6t8nFQ5KW9DZJveaPokq3TaUQ8C6p1uPyHAeiCxXmL81ZEjhzaZ/YB7OCwqS4//bpsIn46EOQzZWXYhchCwTWb8Kc49DwdNHCBRXnLc9KhQfiVA9LTjmTmcTRJjH3NkvwqFnNOfsKSkcoRKykxBlBmlhNxzSzBUe6+ZZ8vap0EzPXGo7PGv3ztEVsUGJ5nP6nYAW9MMIAhwbeu+MsHuXD/QCmBUXHLLCA8DYrt3FcREe+aWEcrZkEODQEStef6RED9CwlcR2DYP4HIpN/dTd5pgdz7lxu8tLg78TCHxR+MlmyMREfci0XyB2MwBlw2gXr9/p+mdDnO0GSe1qqrK39YR/wUAlQPCmenUjHRlU8jUeyBHElhyzq93R3b/2cgeFpXFx09sh+iTRHSkcSfTOkkMcRYH7ZrGxsbN1mm1RBOrCBz/s4gSPU8AnWaJxhQp0adkfUFgPWulCWPHln9LY9pjQDDcSr221YWo98NoAIBNellntiS/i16cu2CBuY2fJ02a5N2zbc857Vr8TCLyMuQBAcLyMsFE4oKA23zcc3cu+Z6uaagxpTVFoPi4aTFQfiNI9E7EJjutkRhrYoC/aWioq7GTXZ3ZUlJSPl4V2t0C4MTO1jr97xzZzoFSVrGZLwhNvXlzegCssD/w5yvlnH7DtqHQbM2Cs6ZdwFbsAohpgFs6APdEDBuUeTTzwbmRLOjtlhEe8six3G2wJ749Y8sIOWOQRQPAq/Q37WPJABsZsmfjQlvj454NINRVxduftj3BYBogNhc8uqh0HQEcZXMzD2oeAuwAxKUgRFzmnqa+csHf3ln6jp6ZZZvr9MoTR+yMhX+kCBoDII4jgL56n17bGNhNQ7K49+G60OLruinmsNudSGD18WRPaafI34PB4P5pKwZc48ePz21uiywAoLEGiEuFiJiH8dvi8Zw/rkyTUuCJEydmb9+x+ylBUKWROCIVoFqpkyNbIwObWt+49EUr9ep9Glet+kwf8jKJANxSgwPAR2BRhrBWI7EeifQm+xEgaOqdlffeB7Uf1HcnU/nUcaf22hXbexoAnaLuI2lIRmAjCcQwArB9iSxDXOPh/Nph0Y63jcyG/RL+spJxN8SFdp0A0c/Kz4MRuiRkIc7Y1aHQ0o+MkGeVjEAgIAuV3aSAdq0g6mGV3lTpYYBvL2+qP9Ms/WlzM2oWQKbLnT6dnVieewOLx0xNtUvKj/WtwJdsA2yOAe6J7s+00ozvts4R4fJoPgzRbP+bkhSMRmxikgJ74FNQoXvZbkbYkioZ2dgPsrVBhpYRIuA6D/F/xEFdLAvclSVozYg9z+5NlY+u3sQQqApU/aZViT7stJ46B/MOAfYg4CoiaGMMWwDpvYF+77/fXrRoT2JoGLfq1IpTj25XwxeGtViVQOqPhCME7OvZkHb3Cn39+UfU1NZsMg69b0pyIoHVU8r+aQQjzxhJYOnIFBaVhgCgxEy8zZSNAJvyPTk35LfkvGJkfzAzbT6U7MpA1W/aldi3EeGkdJo0eDgsGbCPPcin1jcuecVqzMeODYzVUPwbAFLWX8lqn5PRh4gqEO1hyDZrJHYjwv8eOAg1D5O2C6JWAWIvIUWQkCOhFxFzCWiQBlref/US+gBgEAAMJCCvE3/DEOBjDvjTpqb62u6QeQeLRWlpxa/jQruJiAYmE6tU7uHIlzLg1zY21s5PpR3J6K6oqDgiEtceF0TfSWa/w/YIP/fcHQzV3maG3Wl3U2oGSGbLtFUZ4ZZ24Iu2AtvSDqA3Y9dJK0WYDQFcLHrAyBgHbjw/ZrrtVino8H0MUS2csWWEfjkLssUggNj/7lGSwZ4B7JKBPa0y7VXQWKs36t04eu/fLCcLkrHd3bMfgTFFZWsEkFXjrS2DHQHiBLALAbYIhLhEGOacryaB7/aR8ua+F3yv1Shj9Mai0Ta1WNXUc+Kglimk5TNAfSKRftPfIx16XB0KK4nx3TKnAUaTNF/X50QCq5eUcwnP4y/U1NQYOjWktHTcnLhQT3Nyg3BEXC8jv4Nz8azZZ8eoz/mBckpKKk9XNOV6RCwSIMxLZzbD+G7KZMCWeSQ2tb5+6RvdFJXU9rKycTfGVOUWAkj7Js5JAdT5JkJAvcmuAkAqIWhAqHNcDAD1t99+gvQbPgAAHzOB31u+vL6pc4gSX1FcVj5FVcWtThwwwIEvkji7LhRasihxj+2zsqSkokIh9REiGG8fq8yxhCHbNMSTWzF7ac02ozW4BJbRiCYhb9Lsx/MiavhTUFOUyrkrAmzhFuCrWwDiGsDeOKD+bwuvgdwD3wvnuNMID4M5y9sBu6NbQBPWxsbCY3BYVQwRssQg8GlJZTxHPcheBIInNBRt2UzsGLnl+d1oWCGsXVBKfzuKiwPXKUR3AZD+hjXdL31sgT79rJkAWgHhv6QCAxaTgW3XELYJoe0AgIj42nlmjHI48TzGsBcQ6x+j+P/S1gkZAmQjQi8CyElnwurrhyRH8p2/pH7Rq0a/1U4HAqu3lHsRy2MvG01gnVBe/b1mZa/+5rmPkz+0en+aHMk3e8iwQVemsgl1VzA85bhTynaEW2cIEGMQYBAB8K7sT4e1DDDIAKY1NdW/lQp/Joyd0KMZw3UEdHQq9Ls6nYsAA6yDfSRW8DOjvNg/IVO9jQCGGiXTKjkccR4S3tDUFNQz0xx3VVdXS3tbwnfEhfpzAeldSogIGhHMX9kUqjY6UC6BZTSiScgL1P1ZztradhlX4tY1JG6LA1uwBXhoB4Aq9mdbWUxaHQgVA4SrovkwQLhlhIc6Qsg02MM+Bg26NukxiSNp2y25OAD8oj+IBPuleVB6CxGmxYTSjJz2BrY8txsB3Tw/20a4c8MKi8o+AaCRTiwJ6Ny7Lq0gBJ3QQpX2/ZsOkiqrk1SkP6xyQJQyiaQ6HJJ+mfUJBoO7uoR2EoudmIHV05d3vpSFbxhNYOnDAFo7ossAwPGZkwwxwpF91tuTX/3+kvd3J3E0LNlSXnrct6Mido2gfaVreg+7DO7BhIsRYOqKpvq5loB/ECXFxRWjFVI/AABHk7ipwi9T9SKi5kf5b8xDty5ZssSQ75sxxaWXEOFvyYGZ7Ig4FxndtDwUqnPqmRg7dkIPgR3PEYBpPaLsgg0CduTKvkcWBxcaWkroElg2iXD1K/ccBUTrTDVHb8C+aAtIH27aP0EwpllSHpioT5dCLxgRYcDI5RcOhVlH1gqIKtGMLSPM8vrArw0CjB46C98L0mLG4fpoXFvryRLRlz8f2TodpptfB5voQXfXJY1AaVHlBXGI/4UA0r4BZtIguRsPi4BP8jyYl+e/raamxvSGgk4ksPK92ZMGHzXgXTOyiwqLSj9Noz5ABIDbPYy/39Cw9GK7fOwmFk3M3sVafhMX2iW0v0wwNxMzrr4ZD5xHRNM+XhZKZeNnPK50woNtWscvCcBjlzPj2uEEBDCaJ2VdqGDkLSPKlwuLyy4EohkAoL8MdNTFEN5lxG5uagrqjf4de5UXjT8mAuF/EcA4xzqRmOHEAFf1lvNOqAnWGPbi0CWwEgPf9FWnvvZoPw3idaCpgw1VpnNBS7aB5/U1+4tL9CbsesaVDa8CyQNXtOdAgWA2tM4eJvGC3bArvDFjywj1KOSII8An9JfJ/7s8wD/2gHwTSMrCfPJFBmwZGEWXtLLHoTXQisKismUANNrNvjIQ1AwTJYF2dFNTk7kvi77A1IkEVo7kP/XIYYM+NIPAGld2/I0danQaAeWmy7HTsyAJoEVG/lpjY93lqfDrnEAga7MqXRQn9RoBdBQA6eSI/o97j/+/gMwDwKkrm+rnpSJGX+qcNHySd33Wtu0IkJ9KO1zdzkNAbycgM29hQ8Pi9d21fnRR6QUEcBcAHNtdWVbvR8T/AKOpK0KhRqt1G6wPS0sqZsaF9jNK81JCABCIsHhFY8iwvl/uj5vBpzFZcZNXvOjZvn7Dd1lMeTZZGQfu0zbsBc+/VgBvje//3w5Jaro20gN67at4ca9DIbBHagKh97HM0CuPDdzXB0vS5I1ZwKaDorz07J4R7W6WVXofiNPHjx+4uS28AACOSm9PXe/MQiBb8j7BZLqltrbWkkmjTiSwsplv/FkNZyw24/tU7/2xY0+r/vClDwpIx0vok239TL6urqH2NTMdDAQCw5jg18WJLlCE2vsLssq9pz8E6F4mzekl+ae+V/eRPg0zpdekykl5GyLb9EyEDC7pTGkIHKtcYqxD5jAoGAx2a6DLmOKy8wXRTCcSWADwhiZw2iqDG9un6FBgYVGpTqobRuykyI9O1SKwPTmy54Ha4KJ7O12cwAL3xy4BkKxacuJLM0YwJq0C0FubJHjty6ra37pX7AiD9OIqkDZ3gFNrzC5hvWFEB7jTCA8T/nDOcojEYk4NcYIH+6vLUE/KYwi+XILepZ61ucd4rz5yWmqmCSXlgLup2wiMLSp7VwBUp+mkoW7j4wroFAEVJRy1or5+TacrDVrgRAIrV/KU19bX6g/5pqRql5RULI8LtTATsoP0CUwelJ/LZvKz67zq6i+PlbTVS5K0iTweD/n9/q+8XoxEIhiPxzHap89/U9H7xeMeH/lObVHDlxLAuQYdz4wS42XS632ysqe+s7BmuR0cryyr+kWbGv1dJnwO7IB3Otng5fKi/PysE7vTp/C40vGTOrTo/RqIMQ7E5g1BbOony4J6T0XHX6eOG9drW1SdS0BFjnemEwcQoK4nz/nWvNC8nd31NXGipLua3P2dIjD+9XuHSMTeRk09fEqnfruj7O9fRa1x4LPXAl/dvL+Vr8OvLFmGX7flQq5bRnjISMoFzbC9Yz2Ig/Vsdnj8DzQfOQDzIMg+gF7FMuRPyAGWv79thCCacuQPP3wyjdx1XTkMApMnT+YrPl0TBIJiFygXgWQQ8HPPDGDqQ919c90V3U4ksLJRGrO0celKs/K2T644+aQdsZY39cmXXcEyndbKKO1ggGs1EDuJaI8AEQYijpz7kCBXQj4yJpSMIPmsiquH8Zd6SLnTPqj7YJVVOjvTM7a4fIlGWkVn69y/uwh8HQEvz+kb6gYJcFpl9YQd0bZHVRIBB6KbVgSWjv/4ivG3tMYjNwqiQzf4dWCgDmHy3CPD/b81Z82cbk0kcwksGx2ISbMf94Ypfj7G4s99wyydm4qpAFENoEMB9tEm4E07AeOmvCRNKSrXR3tCD5fAOmwM9sgNIEhLaZzMUM44AM9i+4irvKM49D41G3gf7zc/DqTdnk3xx3pdbE0pkBm+ujITR+CkipMqdsXannfixJzEvXRXmoYA4i4ArXplY+MK03QcRLATCSy/YMODBo5rPxjeo4vKNhDQECtj4erKbAQ8jD/fS86f9v7S99faBYkMKKm1C9RpZwdj7LHlDcGrk3Xs1IpTK3bGW36vknBcA3EEeI0Dn9bUVGeLbMpkY/D1fYVFpR8iwngiSOs+Ogxwo0+S76qrr+1WEoJLYBl18gySc/LL9xYT0FIAkvf1rYqpgG0KUFQFDO0AqXYbYFQ1SJs9xVzAe0JxO3PLCA8TnkjuSuiIROwZwC5apZcHynkMmI9BVi+EvqdngzTI14kU9VNG6i8G/XDxe11U5y53IAJFRRXXq6DdDEC9HGi+a3IKEUAE1c88l/Tp3/OVOXO698avq244kcBSUQz+tLFxc1d97cr64wPHX9WqRh5P9xv1rmDirjUXAYnxf/X05kytqa3ZZK6mrkkvrqoapHVEFwsAYwc4dc0Md7XDEPAyeXaoYclZyZp9esXpJdtizU9ooFUlKyNV+/xc/mc+y5kxNzj3s1TZYIbe0wKn5W9T9iwSQHoVVrrzM+/L6PtRY+OipO810h0gM86YqTJPeeX+YRBXnxO7O8ZhRANY0wLSvE2AHZnTtNsvSXB9Wz74utAKzNSg2FC4lNcK28L6d7dzy0Y9PRjwHA5eP0LfU/3gOdrfJaQFiR8N+cFHTyM6GIQueZy5i4uLK+5QSf01AWRCenXmBtoEzxnDRcDgsuX19R+bIP6wIl0C69DwjCku2ySI0rWZu9VHzdXXCQIS8r/18eVPfb/2/e12AkvPwlLaldNb4pF/ENBXxyvbyVDXFlshIDGc2tRQf3eyRp123GmjtkWanxQkJiQrI1X7srjnqZ5y/l3vLHnHkmnCVvp5XOn4n7WJyMNE1LUHIiuNNEAXIqoc8UWZw1XJtnVwCSwDAmGEiI2DJ/u3xfzHthXgwHeHSucsad09he9IjwybZPC5Md4L8lX3eB4Ouz2eehDCWQSWpwcHuQff926h7wl+yB6d/Hc0gTozApFHj/lBUJ/m415pjEBxccVPFNLuBqD+aeym65rBCDDAz5Hoe8uWhRYZLDohcS6BdWiYqsom/KJV7fh9QkC6i1wEuomAhOxPA7J6T3170dt7uinK8O2BQCALNc8vIiJ2GwHlGq7AFZh2COT4evZesuT93ck6dkrglGE7lJa/CaCTkpWRqn1+5vlLflb2zLkL525IlQ1m6i0sKp0NAGemexYWIvtURn5HQ8OSb7ZNSgBglyFIACSzlhBMl0IDPitRhTqAA+uPgL/SgMZuYAo86evWhFSzTLZM7iS5B4xv5WmfQ9kdQGN5n0BbuKM7IizZ68lD8PSVAWWEHiVeyB3r3/ff3b5QWwdAPz3i+/Nrui3LFWBrBCaOmzh0c3TXbNqfWu1eLgKdIoAAcb/kvS1H+J6saahp6XSDCQtcAuvwoI4uDiwnEqNNgN4V6SLwFQQY4GO9e+ZNq6mpabcjNIFAoLcQeF9c0y4mgP3TatzLReAgCCDg3D49887ozhTCSZXVgzdF9/5TIzrFaSD7ufzHXpLvnneWfrTRabYnYu85gXOy1qtbajVy5ITIRFw8cM0cCfg1TU11XR6uYcBTZFdtzez1BJP5mgE5xa0UG4Yaz0ZGV2lAX5lCso1p8IKvDXZCeve6OtxJ8Eocpu3tAf+dI53Zx+ag3ks57bAt2uXPvCVIStkIvoHyvobsuUM45JZl7SsXNPoSIC4a8ulHL+F0c0a+G22vKy95BEYXB2qJhP5d6f5uJQ9jxuxkyN4lVdywYkWoMVVOuwTW4ZEvKxt3dlRV3khVfFy9mYQAPjhaHTZ11spZcbt6PWZMxRHIxWOC6GzS++C6l4vA1xBAxJVZnrxTly6t2dYdcCadMKnPxr3bnhUEp3dHTir2+rn8u3xfzn1zF81Nun9SKuzuis7K8spzOxRllqD0/h7QXzRKKP0pJ8czbcGCBW1dwch9EOgKWkmuJZjOVvXdNKYDomP19GAZ2eQ4iBMBQDqYyBgS1Hvi8CbvUiyTtM6+225S+0Be3Fklclaj2eoPgmKT9mjcj+AfLINcwMHbm0F+sR/kXgc94sbBhMqDHlIf7PeDWlv1tTDOQVfSlwiUlIybGhfqDQCU76LiInA4BBBhKSC/ZkVD3YJUIuUSWJ2gP3kyH71qzf8RwAWpjJOrOyMQuOfCpnOnTYfpth7dXVQ0biih9hABfVsQGf/WLyNCnZ5OSsi2eJh0XU6+/6XuZF/p6OgNw7cqu58ngElOQ8vH5Efy5Kz7a7pJ4tnd7+LS8j8pmjbF7nZ21z6OLORFaVpdQ61eOpnw5RJYCUPVtYUEwFYPuPyYvRQZh0Q9OfBTVKCTCSg7EUlruAJ/92Z2GeGJnnw4o8V9CXW48yJ6roYIOxLJAAAgAElEQVQ9e/cmcqRMWcNlAP9ABt6B3n29rXJHecHb37qYIYjNiHDhoO9/tNAUB12htkFAT6tep2yeJ4BKANzkTNsExmaGIMJqzvitMqPXgsFgSul9l8Dq/HBUFVcN6gBlnkra0M5XuytcBJJDAIFmrmhqmJbcbmt3lZRUjtBIvV8j8R1rNbva7IoAQ4xko3eGyuOPBYPBcHftnDR8kvfzrK0vEeDZ3ZVl9X4fkx7sndXjgXcWvrPDat1W6quurvbtam57T5AYb6XeVOhCwNcZ4bRly4LLEtXvEliJIpXAOgLA1f1+OrQDlRMF0UBGUKohnUIAPRPY/pUlW7kGr3rbYROk9P67q2Ybut4jcfjt3h6Gykw3YTyrA7bHP7HULcYB/P0Y+Id5QcpmkH0UB/9RPgCemoJPIu07R8jz3sQLQbMUCFeZ5QiMHVv2Yw3pUQBws7AsR9/+Cjljuznw3yF6nwiF5u1MtcUugdV5BAKBgIzkuTKsRt2G7p3D5a5IEgEnEVi6i6NLSwtR4EwAOMfNxEoy6GmyjSHGGeCfNNVzx4oVi4waQoCFRaWvAMC5ToPJi9K9+VL2QzXBmnQf4ITlJZWnRUl5RVBiyS9Oi+WX9iJgmCHek5PleWjRokUJTbBzCSwDov1J758OjLH4aXGkkRzwaAFQTUADuiM6jgRBOQZvSrbsN9kd17q093rRB3pE3TLCQ4NG0JYdgljMXIwQAfy9EHLG+oBlccjSCazhPkA5NaTVgXggxv/o9cRm9LkguLVLh8td7EgERheVXU0A9wCQz5EOuEabggACxGQmvZDj8d49f8n8T01R0kWhLoGVGGDHHDM+V/KF7yaCXya2w13lItA1BJxGYOnelZZWFmpCu10jcb7bE6tr8U6X1QxRRWB/lJg2IxQKGfpSprC47BUgclyWn4zSjMG53kf+M39+c7rE+VB+DB8+3JuVVXCzCtr0dPcVEZdy4rc0NS19PxFfXQIrEZQOsmZF3mU9437lTAW0CgbQFwGOFwBHJSnuoNtW8jg8601deZiRviQrK+DNhfObvcluz4B9en7feti116iXMl+FzJcDkF+ZBSyHg68AIWukF9Bjt7YMYieh9q0h319QlwEBd10EwFFFJT/nwO8VINyR4+6JAERUGeCbHNkdDQ1LG+wCiUtgJR4JvZQwDOofFVLPSXyXu9JFIDEEnEhg7SexSgtVjU0VIC4gAPdmOLFwp80qjvgHj4Qzg0HjX9A6mMC6faCv92NzaudkxANySUlJAYD0RFxo30+bg30IRziwl2RJvr2+fvHHnfnqElidIXTA3zcOvsYfjree2YHxMzSgPCQoJ4QRXRDRpaV6GeF/vB2wDmw7NKVL/iSz2MMZ/LatyxWYyahy7B70hmGn1ulnPWH/PD6CglIPSAP94PEDZB/jBfTZjbT6mjuknLVmtfzOydNrMnd0Z8IRTo+FxcUVFxPQHSppR6eHR64XySCAiBoDfIsB3tbYWBdKRoZZe1wCK3Fk9VJCj/Cc2C7if9FIuP2wEofOXZkAAk4lsHTXxgYCx6IG1wmiyYLcISYJhNvxSxiiQgB/5qTe19TUtMkMh5xKYEmM3dqzIPd3NTU1GVGiNHnyZL5hzeZxYRGdLYgKzDgLdpHJEFs5sGsliZ7urIepS2B1EjW9r9W6vpef1gqxizUkPwcsFCAKhQWj3BUEWCpH4T8ZXEaoF6j9XO0FA+PuUT3UUSXUoCO7EaLdKLXkEkDPIhm8w/wg+RGyjuDACjx2+U7r1A6E6DNeTbmxzyXGv6XqVLm7IGUIlBVVnAkcz4pqilt6lLIopFYxAr4vM369nTKvvkTEJbC6djYKC6tzJG/bJf/f3n1Ax1GdewD/f3dmd1XdbbmCDabZuMiyMaZZJoEAgVAS/MAEAuFR81IIyQPiFCU4hARIeBBeAqSQhPZwElrAicFYBoxxkTsOxeDeuyxptWXu984ITAi4SNauNLP7n3M4h3M8c+/3/e7d1e63M/d6Hn6qvLuyZXg8e78CYS5g+YmNGjXqsFRKL01bvczC8kebHJ7v/oLtAvmVa+xdCxYsWJ+tVMNawHKMc1N/p9cvn615ttWL2WfLNtPtDh06tNiDe5VCf5HptoPXnsxX1Rv+uWTBy/uLjVWBfeis7HHVCbsk8bUkvEIHpr9Cj7XQNl/wZ0kkicmxOng20Dv/Zm3++xN0gEZxZbxD1voIfcNiIZ3WYcvulm3I4ThAx6NdFA8uguM/ItjDwO3sAiaMbwu6S42cdMhF1UtDP55MoCUCUjm6ss/Wxt1nW7W/asmFPDfcAv5jgwJMs2JvXrZwYWAeG/yoKgtYLZ9j/uMSSXWuhdqftPxqXkGBvQuEvYDlZ1VefnJ3sY3jkvC+ZVVHcaxzUECkViD/W+Dinmw8Nvhvf59CugaWa+SGPr3KfjVlypREDs6AfaZUXl7e3VPnO2nrfSPX845J5P7SaMGPX5778pp95RrGb6pZG7c1fa8cuCOZ+kFCvJ4OTA8LHazQdn12aktUMa0gjiXpvCk0f2J8C1TwvXjXrI17TjQciWOrLjtgKsYAHQa46DCiEE6XCKKdBG4nF+KG/63AIH7622/Pnj6uCnyM8IAzIbdOqKioKEql5CzHyA0Jmz4ht7JjNh8XECBlIC+qixuXzp+fueenM0w9ZOjIuAcvVJsNpMX2fXvRonUZpmhRc4MHD+6iTuSrgOT8wrUtgmnfkx91FA9bwXUKhG6dslwoYPnDP2bMmMJkfXJoHPZnAE5p3ynB3jMp4Ih5o2m3Qc+ZvHTp7E2ZbHtvbYX1Diwj5msxF78+0CNm2fZr6/arUGWeLn9+tGftw7m+dIaIbHWBK85f9Lnnq1C11zt4wv+tNQMzaEn3y76cFHuhCnoDOEqhgVko0RNgTqQxr3cjjEJwue2CQxs5Xfc13dWk0FCyFPGGvd+pV9jTQZcxRSjoE4VbLHA7OpBIbnkaaXzGVb26bEL2//Bn4G2HTWRYwF9Dx6TNkXG1Z1rYOzLcPJsLiICIqS0wkScSqdTtS5fWvBuQsPYaRsXw0WvjNtknyDF+PLYgFLD8mFjECs6sEeD/NG3+e9mymrXDhlV8JQ29RbV1O223dXa5UsDy3aoA8/iwYQNj4t7qqZ5tVYva2pP9ZVbAMc6UQhO9UyLevNmzZ7fJ4uRhLWAJzFcGHXXY/ZMnT/YyOwrBb+39H2sxIQ37YPCjbV2EEWMWOUavnD9/fs3eWsqtb7AttHq77IqL65D+sgc7BIB/i4/bwiba5PT50QSejtUj7eXvY4R9NILr4h3bxDuUnRgL6bARW+o2fBh+rLNBtxOLUHhkAUwUcEsdmGguv+Q1rsYZcshFLwX6S20o51d4gpbRo0eXxuN2rIjekFJvXHhCZ6TNENhSYCJ3RmLyh9mzg1+oHll+/PIGL3F4M/IKzClBKWD5IP7jhGlrvqLAdxUaqjvZAjOgrQ/kL56Dr731wVo8xw4bcb5V/AjQY1vfdNu1kEsFrD1q5eXlvQuk4Ozd6cRECz2k7TTZUyYFROT/CtyCiUBidVveVRTWAhZUrlm2ZL5fwNFMjkNY2hoy5KTOMPGvemp/GJaYDzJOW2Ait7pR3DtnzpxtH28jl7/N7tNrVc9rBm3X+C0evDMU8Ff0D2Thak8C26PA9Fgc8736g5wD4b+sgxrcFOduhPsbSevEUVu4DN1Hx1A6pgPEAZxCAxPLn5e5q7tP7RmpeVnGI+9+mQn/qzxzGTTdjRU3XRtcewGgtyu0NHOts6X2EBBgbVGs8ILaWnnzrbdm7m6PGFra58jhxy1psKlQfdEPUgHL9z7qqBNLowWNX7FqJypQ0tIx4PkHJ2Ca1piTJ+PGfmX5ggVb9rQyaEj5mRCZBOiIg2u5fa7KxQKWL3lORUXR+gR6JQ3+z4MtB9Dma/W2z4iGv1dHnE0Fxrl/B5K/XL5gwda2LsiEtYAlqle/sWRhzt+BtJ8ZLqOGnzAyKam7Ul765PC/EvadgQA7jeKsJUsWvP7x10f+fLNtyrzKLCpb8XULe6OF7a5AKLZZ80vMMyNxTInkbwGrCAYXaSccHuff5r281NPFiD5bMHbT3ebULX8yBUWHSE7fabXvNzuD+CuC9AW9J9T4HwZ45LnAwIEDY12Kex7aKPGvp629Ps85wpq++muDJFyMm1BzzvZ9rYcQxOQqykfPi3vJiiDGtq+YglbA8uP01/3x4jo+oelbUuodFSbPMMZqRBocmMcKCpxvfvxxpvLyUZ9KWe8nYVtEPFcLWHvm1+DBY7pEo+mrE573HfAHm8C/7IzIax1N4dcbTeOympqadlnkmAWswE+TfQZYWVnpbt+5+xJr9X4boGWPsiEaEWeV49gz539svdO8KWC92/nqjrui8Zs82BsRksLVRyfCnGgCz0Xrkc7T3Qh9izJ18bW4f8McD1/AhZlTIMX/sdHbtrV/cXG6/89elPW2x0XWdvhd/gqpRco5pN+XXmrXRYjz1z+QmcugQYMiXYu6Dt+djn8/ab3PBjJKBrU3Af8W8h+J493RXh/yWzMsI8qPm9nopUK1qUAQC1j+GPgf2E2dN2JbOj4pZb3TWjMuvHbfAv6djgUm9sNddVv/tHz58k/s8nXqyFOP25qu/VnaemPD5JjrBSx/LPw7j6PRaGldPLnUs7ZXmMYnX2IVIC6QP+8sjl2zdtYs//XVbmvDsIAV7lnn/0AbK+xwvYr+PNyZHDB6jcKdWJyI/nLmR+6+z4sC1j/LLh/SCO9HadhzAYQy590xwbRoHHO9ugOOdK6e0FUdfDPeOVfTa1ZeLswbUTH/MWjjgH8CVSofewZ87SOVw1WwoFmN5ehJBe6uyulY8Op4PkaYoyPcqrTkuBFjPtvgJSZZ1WGtaokXZ1XAFbOrS+fSntXV1Y1Z7SiLjY8Yflx1o02F6ot+UAtYe4bJL2Rt3rbrfgi+nMWhy9OmZekA7XXKc0ue27EvgE+P+fSQLfGdd4WtiJgPBayPjJmcNvrU09bFd/wjTydyINMWyJv9TIcz/76welVbPy64NxAWsAI5TVoUVHn5ccM8601Kqz27RReG72S1Yo9+c9Git/eEHspiTnPd/S0nL+65siKhdlIC3unNvS6o51VHGvBCpF3uNA0ESQkcnI+OOLohLx4jVCjSEKQjMKti6kwsKMLzA1Y+tN8vc2sfP+5IseZpi4KjAzFo7RCEIL64Lu6edPSV4Vgnpx2I2CWAESOOOz/ped+3ao/54K7cnP57GJJBtwokesY63Dx27rhfhulxwb35lg8bNSWh6TNCYt8UZtALWHssh5VXfC9t9TpVWwZIXnwoyNI88lepqBeRGW8smn/AL0GnVpx6+Nb0rrvD9oUpzwpYTVPlwgsvdFa/u+ah2nTi8wL4u6vzdZKlF9G+mhURT1W3l7ixu+fMf/22Nu5+v92xgBWk0Tj4WI4dOvJKiL3Tqub0I0pW7FF5UcDy17t6s8d7o5OCO5LwTjz4qRGcK2fHEk0FrLjN3/Wpe1kX/9WYs69R/4OkX6CKOzCbXZW7i1MFjx++44FdzZ2Fa57oW+ja3hembdEfmntNLp4nBQ3d+l7wyV0rcjFX5tQ6gdNHnXrKhsSun3mwRwjQQQO+qUfrsg3s1f57366Icd5wHT2vpiY31rArLx/1l4SXviCw6p8MzKbFHvL2okWheAT77DGn9llRv/NBQMcqUBjWO+zba34I4D/CtL5nYZfzps2etrg5cZxWflrvDXbbvVY1TPMa+VjA2jOeFRUV3VKePJO2nv/Dpr+dNwtZzZnsrTvHfzRwW0ScOYsWzTtgYbh1XR3c1SxgHZxbEK8aNKz8RmjT5ho5uVuvAElr9Nh/Llz4zh7/nPzF2b/z6j+6rRuYcpLfTyB9SRAn28HEVB+VpgLWXM3fxdx7WhfXJjohkiObp77/CKDEAexwIDui6v41mnYePGL7b9YezBzxr1n76NgxCrwMSKB31zzY/JpzncH2z/W+ePHfRPJzm93mGPGcfxc4c3Rl33WNdQ96ao9UaBmAYhplXcB/DHqLwGwqNLHL5i58zf8S3W5rgmQ626HDRz2UtukvZbrdbLVX6ETXGdeOnDt37sZs9ZGNdkdXnHBjfarxMgv1F3j37zThsR+BD+4KWVPqFj03e/7M/2oJ1mfGfKbLuvot91noRS25rr3PzecC1h77ESPGDEzb9B/T1hsg0G78sSYrs9ICss6BbOnbp8cJU6ZM+cQ6clnp9SAaZQHrINACeslZoyp7rk3t/lHa2itzrECdhGBbkYlO8RC9ecGCVz7cETcnC1hv9b66W6PXeEMS/m4cuXW8GG1AtduQt9/KS+HgDJRieEO4azP+Qo4ANjXddSDOax1MwT0D1j/wZiZm66qHywcZif0eUnBcJtoLYxsOEm/26hUbIuOq02GMnzG3r8CQYRV3eWpPE0gxBIeqqtO+EeVc736RaoMR2Rp1nJtF7LSamppUrmU5dHjFA2lrrwpLXgVOdIki+qmPfkgMS+xVVVXmr08+86inGAroEfxy/smRaypcQVcYmI3dOpeOq65u+d/HysrKgi3bd/1agdAUZn0JFrDenw/+D/x/G/aPkUlJ/diz3uEK9GbRt/XvcgJJNb22xGzp7BZd+ErNKxta32p2W2ABK7u+bd364KHllynwQwD927rvDPWXEpFdqroDkKbCryt4OyYFt/Y/os+SyZMn/9vjZzlXwFrT98LCjanIBEB+kyHQQDUzL5bEtEgDam3+fi8/1EZwdaN/F3S4Dv8WSEDWKnRTVMw7pSi+77CNv56T6Sx0ev+CdRt7XqRa8PtMtx2m9pLu7k6Hj69p9uOXYcqNsbaNwLjjThq2Ndngry3QUdSUWdi+OfbrVttA/quXJIA1RswaB85druv9IxcLV3vSHVY+6taUl/5uWyMfbH9R41RHo+YLc+aE9/Hr0084vcfGuq0PeaK9tKmYxcelRJBWlTcdwabO6l718uI5Kw92EekLAWfZ0PL7FfB/6Q/NwQLWJ4fq2GPLR6oRf2f2QYD2VcDfJSnnvhdmeZL6j8S85xp3RcSJfrWmZuaag31tZTnOTzTPAlZbi2e/v0FDK74F2JsBdM1+bwfdgxURf0e67arYDtimHy8FsrEoUjC91BY+9dKCl/yNDvZ75NQb1XRUuV3KVoy1sE+mYUsPlHwY/z0eETwfqcd85O9i7n3VxeXJTigMwVJg/iOCBrIyDbsiAmdbRy38zWGbH5ia7bm39pGx41T0OcD464Lk5eFgx6W9Jyx6OC+TZ9IZFTjzzDNj9Vvrz9uRqPuSFe0IlcMU2oNfjpvNvAuQd43gHaPOg4sXz30pLB/ym53hXk781KjKT29I7HqhNW205bWuOI8bSV+3cOHCnW3Zbzb6OmvUWT3XJjf/3lPP/yx4nAKRbPQT8DbrFHjTQNabiNy0pKbmrUy87o4ZOuIBgYbmzkIRSYti0tLF8/27E3h8TKDy+Mr+9YnEZXGbPMmqPfSDOziihNqngP8FfDUUa0V0aVr0p28uXOgXhUN1DBlW8X+e2i+E7XOMqF79xpKFD4YKu42CrRxUWbItUvcTC3ulqgbg+5/sckU2e2o3+xv0+AwGaHRN5K0Y3BmREvPyq6++us9db/fHllMFrEVll/awovelVf0XZM4eU6L1mOnG8/cxQnFwqi3BcfHgfh4VlbUQXehAUp1Q+MSATQ8+3pYTcsPDowd5xvyPIvbptuw3SH0JEiv7Tpg1IEgxMZbwC5SXl3dXdS5Jqz1ZFcUQ6auqh+fq4pkHO2IiEhfFcgtd6Yj8U9T8afHieUsPtr0wXte/srKgaPsu/3HxUBwRcb5aVBT57axZs0IT84Fgx4wZ02V3Q+IeBboLMNxqU+E5Zw//MUG/WAzVFRC8I67cvbSm5t1MJjxoaPmvAFwdli++rpiVEXGqahbOyevNbZozBwYPHXEOoF+AoBdUjgK0Nx/HfV9OgO0QvAmVDUVu5KliW/i36oXVoS32Hz/ihIn1XuLrntruzZkbQTmHBaz9j0RFxehxiXT6dqt2VFvcUelvBqKC3Y6a1R6sv37mh7eXuHDeLCsqfTXqFr3y3KvPHVShal/Z5kwB652BX43V1e26KK3eQ0F5kWUrjgWxFF5y67Fd8/cxwoFeBFckgvUYof8rp4XO9RdlLxTzyp83Hvbr9toGfsXv+xe4sT5fBCJ5/SuF1fe6HHrJ6oy+aWbrdc12wydQWVlZUrczfkoj0mertZ2NGP+27WOsak+FhnuhvoMbjqQD85aFXSYw24pNwVOzF84MzR1IB5fyvq/yt7F/8+13p3qqp2a67cy3J43iYcgbb8xfnvm227/F4cOHd3Ikdm3cpsqNoqcCIxVa1P6RZSQCa8T4a2ouherGmHGf7RGTf0yZPbs2I61/rJGhQyu+5EG/p/AL94E/rIE8GXVx8/z5uTm3szEClcMrO+1E/YUp9U6AagcIKqDwHzPMr/UgRXYJsASqa42YtyNO5PH581//ZzbM27rNz4ypHLi+ofYPnuqYtih0ZCY/WWKMvXHpwoV5+7miOY5Dho28xqqdqNB+zTn/QOc03cUKrfOLtwqsBNT/29K0nZorzk5P7NoukZLp9bZ+blstC5EzBaw3ul/eM2m82WnYQw40EGH/94QreDpSh0VNm9fl53GoRnBxqgNK0+07hR3IVgVes8CWAjiLi5KxPxy+44FArLu05vETz4Q1jwNOh/ycJf4vZrtv7Duh5uf5mj/zbluB0487fcCOVO0ZjTY52KrGjJheCj1WVfvk6q/YIrLVgZnnqbdWIPVFEfeFOTVzns/Eo0ptO3pZ6U3GVFQeVZfe/T+e2tOz0kNGGpVGETyecuXbb9fUbM1IkwFtxC8qvvfe2kHJdOKLFughCv9x4BEKlAQ05L2GJYC/4O1KUVmkottiJrqsayT67NQ5L69oizwGDxl+lTHOWQotD+D7mzX+HaCQzQaySBUPL1487y9t4ZKLfYwZM6awvj41wYNXASDiGmegZ7XC5uBSLf4djAayQYCFntqNYmRdgRt7et68WQtycWyHDBnxFTFyWVrtsCAv5v/+zqmYZwSTbKpx6rJly/z1NHnsR+DYoeVfs4qbm+6mbN7hv2/WKrDFqHnHwvM3ImgqUglM0hjdHJXI0s5wZ72wYOaH/9a8pjN/Vvt++89QPvNwdcSUxS/zYHNy4fa9MT0Tq8dcpxE2Tx8kLBUHJ9sinBhv+x2zDaRWFDM9se9GJbIqIu7kYzb8drW/3lWGpnRGmln/+IhjFAW3WRs9LyMNhrARQXp93wmv9glh6Aw5BwT8Xzg3NzaMTXjpowRoWlMkYpzBKfUGCVBmQ7a7oXn/Q+QWIzLLU7tGIOrAWdujqONzL77+Yk78Kp2FaWdOLj/56G1e3TVGpNQVZ0TKprv4nwlV5MO7GUTViIjJQv/7alJV/TUpdKYAK2zavWfZsrn+7f95cwwaNCjquoXlFnqGv4C1EekFwQhr7aFBWzPL/wInKhuMkRrP2pUQJGLiLO4c6/DitNnT/Luv2vyoHF3Zd2ei4YykbXp/C86aDiKeC1PniLOiW7TDjKlzprZJUa/NB6CdOjztuNNGbk3tPDPpeV1V1ImIMzhtveEfLALfTlEddLf+OrVbHHHmpNV7V6DpiBNZ3sUtnTpt7rT3DrrVEF04cuTo0xqTyXEKae0dqf57QEvfB5q1oLNC0yLmuTcW1UwPEW27hnp1RUVkZlKvFsGFgAyxsJ2MmISq7ooad62n6eWe4l9/O0Q9R5xtBmZl12jpvGlzpr0T5B8ic6KA9XqXSzpEIrLAQg9r19nShp0vjaXwoluPLXn8GOEgL4pLEm1zc5FAGhQ6SyDzIupsjYr8Y8mm+mXj8e/berbhFDhgV+/cMzBW2L3XFaqOv15Fvh6pmLvykB7jV+bVF7N8Heww5O1/+N+c2FFhob099R8zVDGQiCPOkLR6xwDSWQPwy7YAdY6YDSqYZ1XXqCLtvF/A2tDNLX2hen61v65OoIr2AR9/OemkkzohgZN2Juu7qxpj/PrfB4dVcUxbFrAEqurFjXpTFy9evI5jCZw+6vR+O+3ukxtSiSMsEDWQzhZ6nCMy0NOmjYHarMDo78gUc9xFjV66xp8iIupFTWRVl0jpK9PmTHs74HOd4eWJgH9H44b3to6sTe0akwa6N/09E1NiVIZa2GMAdLLQwCwI769jFTGRRSlNz/X/pgmsRoy7oVtBp5f4I0zrJu2Fgy6MbumxpdljHY1GderUqf4ujjyyKDBq+KgTUsColKa7OeLErer2XgUd3/MM3nhp1kv+3/5QHqEvYCkgy3t8+fidkngtlCNwkEEnHcFfIrVYapoW9c/LY4BG8fl0KTqnsjaNkw6w0ALTFMZ/V37trU2N84JctPr4RFj/6MnnecBvAcf/xT8PD7WONNzW++K538vD5JlySAT8D34bCjYM2ek1NBWwPH/NkY8cfqHDgekaEefQlNpDPLXdRFDg39WlQKFV9X/1bM4boQokKYIGVdQZyI6IcdZ4alem4W2yKnZPtxFIXcQ46yMomlvQCWurq6vzd9HFkMwjhplZAX8doO229ngRMzClWqr+psJ+FUs0GpPIkEabGiyQEjFSAtUi21SQ3v8hkEb/UVuFjUclskkE7yZtermHf99a2i8e9y4oXTR19vSmAhYPCoRFwN8JrTHqDWuw7/89S8E2FTWMqHGN0wNWBnlq+4ugi4WWagbvRPYfHYXKLhFsN2LeSKt9y6o27rFzRLaVxUoWeUUyl3/TwjKjGCcFPinQnA+8gXZTXOi8UVb8ZBypcwIdaBaC+2tBPRaY/H2MsFgMTvSKMLaxIJO6ngN5WyB/9cSuj6h5s0uk26x+a38RygXH1j5+3JGikR9YjUzIJFKY2hJ4q/pOeKV/mGJmrBT4qID/K/f2Vds7iZfqvQOJXlc1sIoAAB6fSURBVIl0qrNR4z8/HYHRmLWIePCa8/dcI3BSIiae1nQ8Bndn11jxxsa0t+5TCz61rb02neBoUyBMAn7BubZ46xGrG3cc4cIpEscpspoq9JrxRdyBkxCjcWu1sVO0aFsU0dWNkcbVubTzY5jGkrG2qYA58+STu9bW28PrvGRvVe1sxStqzuumuVE64jQCpi4K2Rlzi5Z32lW4YsryKfn7S39z4XgeBUIm0JwPvIFOyV//SsoaGmwe7vj0doGHvzt12KSpQI9RNoMblo5hfNK/s79Vh/+z6gYDecgKljtW1vdL21ldtz+SlR18WhVpCy+ed39FpKy06FrAuaeFl+bS6Ttr3eqywePBRR9zaVSZCwUoQAEKUIACFKAABSiQVwKhL2Ct6nnFoM2afCOvRu2DZNNG8Fi0Fm/m8WOEhyOGc9Il6J5s+VR2YGodNQ8mJTXPFae2uyOz+67747Zcm0trHxlzIcT9pcLpkWu5NTOfesdsvaD3RUunNvN8nkYBClCAAhSgAAUoQAEKUIACARNo+bf+gCWwtOfl98U1dX3AwmqzcJ4oqMMSk8jb3QgLxeCEdCFOTRQ2y9xA/MdmHm7Q5N+jcOoj6iwavOWhnF7ge+MTQwekU6XfV4lc3iykHDtJBGnRur/1mTDv/BxLjelQgAIUoAAFKEABClCAAhTIG4HQF7DmlV2yTYE8XaAaWB2zeNrZjY3I38cIR6YLcH6yZJ8vWlFJxeA8k4R9VAy2dTDue4ev/91afwv4fHilT6+CO/DIsTcA8rN8yHevOYpd0e/il/Nml9K8HWcmTgEKUIACFKAABShAAQrkrEDoC1hzyy7JiyLEvmagFeChWC3eNfm7vE9/G8EZyWL0s//aAEhUvKiYGQI84AlW+Lv9NGxw1o/EA3lZ6Vvz2JgJou4dCqd3zr6b7T+xdf0mVPfN09yZNgUoQAEKUIACFKAABShAgdALsIAV+iEEnuzYiEVeA1L2wx3QcyCr5qfgQnByqhCnp4qtC2exK+aeFOycEmNqtahk8xHL7837HUhWP3ZUb4PuP1B1r26+bE6dyQJWTg0nk6EABShAAQpQgAIUoAAF8k0g1AWsVYdc13lzonZ7vg3ax/PdVWDwsNmB9Xn6GKEWRVBcUvC7W1YWTir1ChsLS5I7Bqx8qDHf58VH89cqmDVHjJ0oIj/KTxddn06sOnzAFSs5L/JzAjBrClCAAhSgAAUoQAEKUCDkAqEuYL3X97qh21K1i0I+Bq0OX/3n5GK7sNrkz9NxGnNgK8rgfaY/IIBG3L863Uv/+6VPfe3dVoPmaANrHxlzGcSdpHD65WiK+0trY8xdWd5j/MqcXrA/D8eVKVOAAhSgAAUoQAEKUIACeSIQ6gLWu2VXnb0dDc/myVjtN80nOyewKFWf248ROgbeoK7wJhz1voURwDUf/L/ZrY7cOuOcm+7gfNi7wKpHhnQWdPqxiHNdvhkJdHOBWV/Z7aJ3/plvuTNfClCAAhSgAAUoQAEKUIACuSAQ6gLWip5XXb5VG36fCwPR2hwaow4ecLdhE9KtbSpw19t+pUj9VznEPdB0lR9XX3DLdwOXQIACWvto5SQFJgYopDYKRbd43roz+l+6fH4bdchuKEABClCAAhSgAAUoQAEKUCCDAgeqCGSwq8w3taLsP8/divhTmW85nC3eV7gT6yXEBSx/Nvp3VBmB7RRD8vpymJJ/7Sx4oFFRY57U4tjEl0+7gXfZ7ANr7SOjL1VEfwhxBhzIM6f+XbCx0Fk+stv4tetyKi8mQwEKUIACFKAABShAAQpQIE8EQl3AWtX76pM2e/Wv5MlYHTDN5zqnMC+1G8mQ7UaoBS7gCrQkitTFR0P6FAPS8qmpRhohMnHGuTf//IBYeXrC5icGlSS97nepSp7tRqjr+w7bMkAGL0vm6dAzbQpQgAIUoAAFKEABClCAAqEWaHmVIEDpbiq77rDVqOWi3R+MSSri4B53K7aLF6BR2nsoWugCfuEq6iB5Rn/gmC6QyAfrWbUmepEf7t7c5cc111yTPyvat9BrzaNjfyYiN6ii+be3tbCPAJ6+rt+E6r4BjIshUYACFKAABShAAQpQgAIUoEAzBEJdwPLzm1t2iTYjz7w55d6iXdiEFIKI0lS0KonA30EwPbIXtKIHpCjDNRTH+Rvc6PeqP3vDwrwZ9BYmuu6x4/9DNVqlMEe38NIwn84CVphHj7FTgAIUoAAFKEABClCAAnkvwAJWjk2BaR1TeDW9G0m1gchM/buqOsagJRGkB3aGPb4nTOeC7MVmTEIh35xx3k3/m71Owt3y+md7F9ndR/xKIZeFO5MWRb+234Tqfi26gidTgAIUoAAFKEABClCAAhSgQGAEQl/Aqin7Yp2FFgdGtJ0Dsa6DOyJbUCvtWMByBLZLAdApBu1UAG9UGXB4p7aTEfO9RCp616zx34y3Xafh6mntY2N/rirXA4iFK/KDiFbVwujMfhe/fMpBXM1LKEABClCAAhSgAAUoQAEKUCAAAqEvYC0tu/yZOFLnBMAyMCHcW1KLTTbZto8R+jsH+ndW9SqCvyi7N7Q7MLhr+5g4zgtwI9+p/uw357VPAMHvdd0jo8+1EpsEmGODH20rI1RtgE1d1u/S1/7SypZ4OQUoQAEKUIACFKAABShAAQq0k0DoC1grev5n5VaNT28nv0B2+3qph797O9tkJSzbKQYc1hHqGHhHdgJGlLW/iZiUilwz47ybft/+wQQzghW/718QiR36B4WMD2aEGY1qZ9/du3vINTVc2D+jrGyMAhSgAAUoQAEKUIACFKBA2wmEvoA1D1dHtKw+2XZkIejJGNwa24JGydJS7lEHdlh3wBGk+pRATugdOBQ1ZqJ0LL2netxX6gIXXEACWvPoKXdD5SqIFAUkpIyHIQKFpt/qO+HVYzLeOBukAAUoQAEKUIACFKAABShAgTYTCH0Bazoq3dKefd9Q1SPbTC0EHf2ydDc2eInMRRoxsEO7Q4sjQKEL79R+gGsy136mW3KcVyHut6s/d+PrmW46V9pb86fjK8WJ/Vwh5bmS08fzEMAzqPtW7wnz7s7VHJkXBShAAQpQgAIUoAAFKECBfBAIfQFLUWUW93zn0qTioXwYsObm+Eax4nHdhlYt5e4a2CHdoF0LgKgDb3RPoCTa3BDa9zwRT4FLZ5x/y2PtG0hwe1dA1jxS+aQIzg1ulK2OLNVo13Y74ovLa1vdEhugAAUoQAEKUIACFKAABShAgXYTCH0By5db0OnyThLzNqVgQ1Jdyf54GzH4buFmeC3tyt9B8Oiu0ENLoREDHfxBAaul7QTgfP8xwkgx7nvxtJt3BSCcQIaw+rETrxV1JwLSN5ABtjIog8ZH+kx4/YutbIaXU4ACFKAABShAAQpQgAIUoEA7C+REAWtF/8sLGhrwowZJfbudPQPV/X0d67A+1XjgmPwdBA/rCHtMVyBqoAM6QnsWAyGfHeo4CyTiXl99Fh8j3NckWPXIIZ2NDHgKkFMOPFHCd0ZMVx/Z45L33glf5IyYAhSgAAUoQAEKUIACFKAABT4qEPISxfup+I9CLe72xSOTji4DEOCFmdp28r0b8/A7Z8feOxXA9i6BN6onpMCBlhVD+5YAJiemxAfzQqyBXDD9gpufblv5cPW27rExX1aN/lBz7C4sQf0f+k6Ye3m4RoPRUoACFKAABShAAQpQgAIUoMDeBHKmWjGv99VF6jV8A9Afc6j/JTCxaOu/cWjnAqTG9oMpjUA7RqH9OgBuzkyDTwy9uu5EKY38b/W4G3ZyXuxdYNvDAzvETZ+/q8jx0LDfd/d+jgK1Ud18dI9L/sm7rzjxKUABClCAAhSgAAUoQAEK5IBALlUuZEH3ywfCeC+mYQ/JgbHJSAr3d2rAaiSQOL0/nLJCaMyB7dcBEs2PG9VUsMIILp5+3ndmZwQ0RxtZ+dgpJzgqfwLksFxI0ZHk1b3eeu23UtW6fQxywYI5UIACFKAABShAAQpQgAIUyAWBXCpg4Z2BX4017K69IIX0I/5jhbkwQAedgyJdJNE7HujVOH3xpYdMtb1Kmh4VzMdDoafPuGDiC/mYe0ty3vBY+ffS2uFGQDq25LrgnZuaXaq1Z3a6ZMk+np8NXsSMiAIUoAAFKEABClCAAhSgAAX2L5BzRZ43u325tMEkr/JE78rDwfeKEP1NwthH05qOdzTFKyb8oGJXafdtyTy0+DBldZzvJ2OR+2ad8c3t+exwoNw3PDGwu5fuM1MhRxzo3KD+u//ooFh7Su/lr8zi3VdBHSXGRQEKUIACFKAABShAAQpQoOUCOVfA8u+8eqvsP/snkbo1gfQlLScJ1xX+WuyFcP8G4J6EpDeUIrpl4MZDtwmqrJ/JhU884Wxx350M6Pnhyiyj0W5TlTNnfP6WuRltNQcbW/NE5UCkdSYgPUKZntGzNu2qe3HkNTWpUMbPoClAAQpQgAIUoAAFKEABClBgrwI5V8Dys3wCFzqDuxefkDTer9Kwg3Nw7LUQkVkuzE93SMPiLqZD3ZHrd+wQTPb2kquc9JefDHBF381Bh2anJIqTpn/+OzObfUEen7jusVP6WZWlgHQIE4Ox9qLeXYqfkrOmJMIUN2OlAAUoQAEKUIACFKAABShAgQML5GQBy097Oqrcrj3fO81TvTcNe/iBKYJ/Rkydt2Ia+Um9U/t8x0Tn5GE7etcLqtIHirzyyapO0GherwekUfdHHkrufvXs6/Pa4UBzZc+/b3tqVL+GhmK/6Blp7jXteZ5o4/V1jTsePvrKt3a3ZxzsmwIUoAAFKEABClCAAhSgAAWyI5CzBSyfS1FlFvdaebpnvV94sEdnhzC7rUbhbuok0V9sMXJv12jS9l9Zn9rHnVb7DGTMaz8vjOzAvSbReGV2ow1y65ISpEZNv+D7i4IcZZBiW/XIkM5GugZ+3TAjiSulJPl473NqGoLkx1goQAEKUIACFKAABShAAQpQIHMCOV3A2sO0ovtVw+tM4tZGeJ9F8HcntAbSGBP3iWM3PnRFpob61Ccm9bGuWZup9sLYjrUy4uUv3LIgjLG3V8zz7q+IlJWWxgEEcQtLNUhf0rvXq5NlHA54J2J7GbJfClCAAhSgAAUoQAEKUIACFGi9QF4UsHwmxVdjC3rs+G9P7ERAokEpZAmgCtSLSroQzqxBmwecvWcB9tYP779aOO3pn/ZOed7KsDwSlsncP2wrGr0Lxc6k6nE37MxK+zna6Ju/PbG0tDA506LY352wIABpeiKIw+qX+14yY3IA4mEIFKAABShAAQpQgAIUoAAFKJBlgbwpYO1xXNz9S1ekjb3Rgz0MQGGWfffavF+0AmSrQr1iuJtTsCcM2/Sn+mzGcuLTPy2NRCI/QGPjjdnsJ+htW+sd+fIXvvdO0OMMWnzv3DMwVtq98PMp7XoPgK7tGF+d0frnXGfrT8ouWsHHQdtxINg1BShAAQpQgAIUoAAFKECBthTIuwKWjzsdlW5pWd9JCh0PoAxAURuhbwTQUAg34YicdczGh/w7otrsOOXPtx5hjPN2m3UYwI48dSteWdKwEFVVNoDhBT6klX885RjjmmcFWghI77YLWGsBbBWDO/teNONXbdcve6IABShAAQpQgAIUoAAFKECBIAjkZQFrD/zm7teXrJFdP1WRkwTordAuCphMDowo1qlgByA2at3/2r5l5axxqG6X9XpOeeaOAZJOzROgSyZzDFNbGok8GIl7335x/M27whR30GJd99gpJ1gVv5DUEar9ICajr5s9+SqwS4DVqjq5X3LVHXLFysagWTAeClCAAhSgAAUoQAEKUIACFMi+QF4XsD7yJVlWll31tR1oPDsNW+xAulno4TiIYpaBNCh0tQJNu7dF1NzVsch5fsDKh9r9i/fo5+/pEPMS3zSp1A+yP7WC24NJ274vjf/uuuBGGJ7INjw2stLTyERFtAOAfoD0an30Ggd0uUB2QzCtT88ZP+Ii7a1XZQsUoAAFKEABClCAAhSgAAXCLMAC1sdGT6HyXtl/nroDjd9QaOz9fxbfSQykEIJCUYmqaMJarYMg+f45/lrs/grXkdWl6vz20M2/e/39ta6CdVQ++ePhUMnrnfgkFjl++tz6uXyMMHNzc8vTR5Um4j2+COucb/3XithCteZoSDPWy1K1Rrx/enA3mKYXkl3j2vV39fri8mWZi5AtUYACFKAABShAAQpQgAIUoECYBVjAasbo+UWtZRgf6dilY49GgzLXQceUozuSdVg1qLZ2FzDZBrFYtbfUKp+97WhNyxRR7d+M1HPzFMf5824T/1LNOVUNuZlg+2alCtn68DE9G92uV0Pd4QeKRqHJKNbeX/b2u9VSBa5NdiAw/jsFKEABClCAAhSgAAUoQIE8FGABK88GveKF2zsWJ5xrTTJ1e56l/q90RRRIdKk+v2pn3howcQpQgAIUoAAFKEABClCAAhSgQIgEWMAK0WBlKtRxf7ntRBW8mqn2wtiOutHjZnzuW/P8Zz/DGD9jpgAFKEABClCAAhSgAAUoQAEK5JMAC1j5NNof5HrKU7cPEcUjonZIHqbflLJGIn/sET/0y5PHj/fy1YB5U4ACFKAABShAAQpQgAIUoAAFwiLAAlZYRiqDcZ746m9LI9u3Xom094sMNhuqptQxtXUb3+tWc80DqVAFzmApQAEKUIACFKAABShAAQpQgAJ5KMACVh4Oup/y2L/++DSBTM3T9JvS3r2la7TmmmtYwMrnScDcKUABClCAAhSgAAUoQAEKUCAUAixghWKYMh/kyU/fMdTY9K9FdUzmWw9Ji4WFA6rPvGFlSKJlmBSgAAUoQAEKUIACFKAABShAgbwVYAErT4f+9H/cUZxstFfA8+7NUwJ4xcUXv/KZrz+er/kzbwpQgAIUoAAFKEABClCAAhSgQFgEWMAKy0hlIc7KP992HgyezELToWhSXfehGZ/77ytCESyDpAAFKEABClCAAhSgAAUoQAEK5LEAC1h5PPifevqOoZ717oTa0/KSwXUWVX/upuF5mTuTpgAFKEABClCAAhSgAAUoQAEKhEiABawQDVamQ62cXlWAXQVXwtpfZrrtMLSnkcjGGed8u1cYYmWMFKAABShAAQpQgAIUoAAFKECBfBZgASufRx9A5V9/cgmgD+clg5hU9fk3R/MydyZNAQpQgAIUoAAFKEABClCAAhQIkQALWCEarGyEespztw+RlE4Sq5/LRvtBblMdJz7j3JuKghwjY6MABShAAQpQgAIUoAAFKEABClAAYAErz2dB5fQqFztj10I173Yj1Ejk7RnnfPuoPJ8CTJ8CFKAABShAAQpQgAIUoAAFKBB4ARawAj9E2Q9w7F9vu0qAB7LfU8B6MM606vNu+nTAomI4FKAABShAAQpQgAIUoAAFKEABCnxMgAUsTglU/uPeo7Wx4YfieePziUOLCm+dccYN38+nnJkrBShAAQpQgAIUoAAFKEABClAgjAIsYIVx1LIQc+VfbvsGBL/IQtPBbTJWOqr6s1+dF9wAGRkFKEABClCAAhSgAAUoQAEKUIACvgALWJwHTQKVz955rdr0L8SzBflCsntL12jNNdek8iVf5kkBClCAAhSgAAUoQAEKUIACFAirAAtYYR25DMd9ytT/OcI0xH8Eay/KcNOBbE4BW7elawELWIEcHgZFAQpQgAIUoAAFKEABClCAAhT4NwEWsDghPhQY95fbvqNGJkE15+eFNc7bpmN8cPW4qjSnAAUoQAEKUIACFKAABShAAQpQgALBFsj5QkWw+YMVXeWzP70Wnk6CtV2DFVnmo7FR98qX5zU8hKoqm/nW2SIFKEABClCAAhSgAAUoQAEKUIACmRRgASuTmiFv66S//eIwx0tOEs+7OOSp7D98EU1H0PXVs2/ZkdN5MjkKUIACFKAABShAAQpQgAIUoECOCLCAlSMDmak0xj11+/fV6ncBjWSqzaC1o667NK16wsxzb9odtNgYDwUoQAEKUIACFKAABShAAQpQgAKfFGABi7Pi3wTGPXfHuZpM++tgHZurNF4s9gWnaPfTXP8qV0eYeVGAAhSgAAUoQAEKUIACFKBArgmwgJVrI9rKfCqn/74AuzbcqRbXCWBa2VzgLlcx78TUOWnqBd/eHLjgGBAFKEABClCAAhSgAAUoQAEKUIACexVgAYsT4xMCpzx7+wRJa5WoHpFrPOpGvyKlXX9XPe6KxlzLjflQgAIUoAAFKEABClCAAhSgAAVyVYAFrFwd2VbkdeLTPy2NqP05LL6US2thqcisqDFfeOHcm9a3goeXUoACFKAABShAAQpQgAIUoAAFKNDGAixgtTF4WLob99Ttn4HiNlU7IiwxHzDOqLm40BQ9OeWsryUOeC5PoAAFKEABClCAAhSgAAUoQAEKUCAwAixgBWYoghVIVVWVqS4vvAGe/RagPYMV3UFEo/it4+rEaedO3HQQV/MSClCAAhSgAAUoQAEKUIACFKAABdpRgAWsdsQPetcnPnP3Ia7X+Buj+imFhndBd2Net8DVL59781IINOjujI8CFKAABShAAQpQgAIUoAAFKECBfxdgAYszYr8C45752VhNp38J4NgwUqmgFuJ8I1Zrnph62bfrw5gDY6YABShAAQpQgAIUoAAFKEABCuS7AAtY+T4DmpH/2L/++DSBuQ8I366EKnKruJF7qs/51tZmpMpTKEABClCAAhSgAAUoQAEKUIACFAigAAtYARyUoIV04RNPOFuj731arb0fwKFBi28/8dzpOHon170K0YgxVApQgAIUoAAFKEABClCAAhSgwF4EWMDitGiWQOX06a7snvdZTaf8IlZZsy5qz5Ms7kyayB2vXfDtze0ZBvumAAUoQAEKUIACFKAABShAAQpQoPUCLGC13jBvWjjz+Xti9cmGCmO9pwHpFsTEVcQaY+5KJ7w7Xhn/nS1BjJExUYACFKAABShAAQpQgAIUoAAFKNAyARawWubFs5+40BlXUHG0pu0sAKWBAjFmozVytzX2gVfPvmVHoGJjMBSgAAUoQAEKUIACFKAABShAAQoctAALWAdNl8cXKuTUyZN6e4WxyZJKjQmEhJhpEoveGnG8eVM/w90GAzEmDIICFKAABShAAQpQgAIUoAAFKJAhARawMgSZj82Mfr6qQ5FTcoTWJ+e1W/4icRj5nVuEiZ13HFY3efx4r91iYccUoAAFKEABClCAAhSgAAUoQAEKZEWABayssOZRowoZPaWqtCBV+C3xvO+1aeYiM2xx0VXmtR0rqquq0m3aNzujAAUoQAEKUIACFKAABShAAQpQoM0EWMBqM+rc7+jTL9zeMRk3N5t0+luACKBOJrMWwOr7/y3WkuKLXj796+9ksn22RQEKUIACFKAABShAAQpQgAIUoEAwBVjACua4hDqqimfvLyrGzvPF09tgbScDuAqJHWRBq1GBJCCNGnGfqEf9TTXnVDWEGojBU4ACFKAABShAAQpQgAIUoAAFKNAiARawWsTFk1sqUDn9vhJpSHxKU6nrYL1j/ev1/duzHEAcQAX+LFRR/+4qQNP+rVtN5xknrdA7POn+x5nnXrm7pX3zfApQgAIUoAAFKEABClCAAhSgAAVyQ4AFrNwYx1Blcebz98Ti4vVSSHcPWmwMjFjZ7Vl3V6nYVVPO+loiVAkxWApQgAIUoAAFKEABClCAAhSgAAWyKsACVlZ52TgFKEABClCAAhSgAAUoQAEKUIACFKBAawVYwGqtIK+nAAUoQAEKUIACFKAABShAAQpQgAIUyKoAC1hZ5WXjFKAABShAAQpQgAIUoAAFKEABClCAAq0VYAGrtYK8ngIUoAAFKEABClCAAhSgAAUoQAEKUCCrAixgZZWXjVOAAhSgAAUoQAEKUIACFKAABShAAQq0VoAFrNYK8noKUIACFKAABShAAQpQgAIUoAAFKECBrAqwgJVVXjZOAQpQgAIUoAAFKEABClCAAhSgAAUo0FoBFrBaK8jrKUABClCAAhSgAAUoQAEKUIACFKAABbIqwAJWVnnZOAUoQAEKUIACFKAABShAAQpQgAIUoEBrBVjAaq0gr6cABShAAQpQgAIUoAAFKEABClCAAhTIqgALWFnlZeMUoAAFKEABClCAAhSgAAUoQAEKUIACrRVgAau1gryeAhSgAAUoQAEKUIACFKAABShAAQpQIKsCLGBllZeNU4ACFKAABShAAQpQgAIUoAAFKEABCrRWgAWs1gryegpQgAIUoAAFKEABClCAAhSgAAUoQIGsCrCAlVVeNk4BClCAAhSgAAUoQAEKUIACFKAABSjQWgEWsForyOspQAEKUIACFKAABShAAQpQgAIUoAAFsirAAlZWedk4BShAAQpQgAIUoAAFKEABClCAAhSgQGsFWMBqrSCvpwAFKEABClCAAhSgAAUoQAEKUIACFMiqAAtYWeVl4xSgAAUoQAEKUIACFKAABShAAQpQgAKtFfh/22UuvPtS+KQAAAAASUVORK5CYII=;" parent="1" vertex="1">
          <mxGeometry x="1310" y="340.79" width="155.66" height="50.46" as="geometry" />
        </mxCell>
        <mxCell id="3_XM-E1TAf-acxFjR0ga-16" value="WebHook" style="shape=image;aspect=fixed;image=data:image/jpg,/9j/4AAQSkZJRgABAQEAAAAAAAD/4QAuRXhpZgAATU0AKgAAAAgAAkAAAAMAAAABAB0AAEABAAEAAAABAAAAAAAAAAD/2wBDAAoHBwkHBgoJCAkLCwoMDxkQDw4ODx4WFxIZJCAmJSMgIyIoLTkwKCo2KyIjMkQyNjs9QEBAJjBGS0U+Sjk/QD3/2wBDAQsLCw8NDx0QEB09KSMpPT09PT09PT09PT09PT09PT09PT09PT09PT09PT09PT09PT09PT09PT09PT09PT09PT3/wAARCAG6AdoDASIAAhEBAxEB/8QAHwAAAQUBAQEBAQEAAAAAAAAAAAECAwQFBgcICQoL/8QAtRAAAgEDAwIEAwUFBAQAAAF9AQIDAAQRBRIhMUEGE1FhByJxFDKBkaEII0KxwRVS0fAkM2JyggkKFhcYGRolJicoKSo0NTY3ODk6Q0RFRkdISUpTVFVWV1hZWmNkZWZnaGlqc3R1dnd4eXqDhIWGh4iJipKTlJWWl5iZmqKjpKWmp6ipqrKztLW2t7i5usLDxMXGx8jJytLT1NXW19jZ2uHi4+Tl5ufo6erx8vP09fb3+Pn6/8QAHwEAAwEBAQEBAQEBAQAAAAAAAAECAwQFBgcICQoL/8QAtREAAgECBAQDBAcFBAQAAQJ3AAECAxEEBSExBhJBUQdhcRMiMoEIFEKRobHBCSMzUvAVYnLRChYkNOEl8RcYGRomJygpKjU2Nzg5OkNERUZHSElKU1RVVldYWVpjZGVmZ2hpanN0dXZ3eHl6goOEhYaHiImKkpOUlZaXmJmaoqOkpaanqKmqsrO0tba3uLm6wsPExcbHyMnK0tPU1dbX2Nna4uPk5ebn6Onq8vP09fb3+Pn6/9oADAMBAAIRAxEAPwD2WiiigAooooAKKKKACiiigAooooAKKKKACiiigAooooAKKKKACiiigAooooAKKjllSGMvI4RQMkscAVyWrfEK0td0enRm6kHG/OIx+PU/h+dBrSozqu0Fc7DNZd/4m0rTSVuLyMOP4FO5vyFeY6n4l1TVci5u2WM/8s4/kX9Ov45rKwB0pXPTpZV1qP5I9Du/iVapxaWc0vu5CD+p/Ssmf4i6m5Ihgtoh2yCx/mK5Oilc7YYChH7N/U3n8ca6+f8AS0UHssS/1FQnxdrROftv/kJP/iax6KDZYaktor7jdj8aa6nS8Uj0MSf4Vbh+IWrx48xLaUe6EfyNcvRRcl4Wi94o721+JSHAvLB19WicN+hxW7ZeMdGviFW7WKQ/wzAof14ryWinc56mW0ZbXR7okiuMqwYHoRT68U0/WL/S3BsrqWIZ+6Dlf++TxXX6V8RQcR6tBtH/AD2hHH4r/hn6U7nnVsuqw1jqjvKKrWd9b6hAJrWZJYz0ZDn/APVVmg4GmnZhRRRQIKKKKACiiigAooooAKKKKACiiigAooooAKKKKACiiigAooooAKKKKACiiigAooooAKKKKACiiigAooooAKKKKACiiigAooooAKKKKACiijOKAEzWFr/iyz0NTGx866I+WFD0+p7D9fasTxR44EBey0hw0g4efqF9l9T79B71wLu0jl3ZmdjlmJySf8aGz1MJl7mlOpou3Vmjq+v3+tyE3cv7sHKwpwi/h3Puc1nUUVJ7cKcYK0VZBRRRQUFFFFABRRRQAUUUUAFFFFABRRRQBZsNRutMuBPZTtC/fB4b6juPrXoHh/x1b6gyW+oBbe4PAbPyOfY9j7GvNqKLnLXwlOutVr3Pdgc9MUteZeGvGkumFbXUWaa06K55aP8AxHt1FekQTR3ESTROrxuMqynIIqrngYjDzoStLbuS0UUUHOFFFFABRRRQAUUUUAFFFFABRRRQAUUUUAFFFFABRRRQAUUUUAFFFFABRRRQAUUUUAFFFFABRRRQAUUUUAFFFFABRRRQAUUUUAJnFef+MfF5maTTtMkxGPlmmU/e/wBlT/M/hVvxv4nNsjaZYyYmYfvpFP3Af4R7n9BXn1Js9fAYJO1SovRBRRRSPaCiiigAooooAKKKsWunXl7/AMetrPL7ohI/PpQTKSirt2K9FbsPgnXZgD9jWMH/AJ6SKKsf8IBrePu23080/wCFBi8VRWjmvvOaorel8Ea7ECfsiyAf3JVP86y7rTL6y/4+bO4iH95kOPz6UFxr056Rkn8yrRSZB6UtBqFFFFABRRRQAVv+GPFEuhTiGYmSxc/MvdP9of4d/rWBRQZ1aUasXGaume5QTx3EKSwurxuNyspyCKk7V5l4M8THS7kWN2/+hythCT/qmP8AQ/oee5r00HIGDVHzOIw8qE+V7dBaKKKDAKKKKACiiigAooooAKKKKACiiigAooooAKKKKACiiigAooooAKKKKACiiigAooooAKKKKACiiigAooooAKKKKACsTxPrq6HpbSqQbiT5IVPdvX6DrWyzBVLE4AGea8h8Tay2t6xJMpP2dP3cI7bR3/E/0oZ2YLD+2qa7LcyZJHlkaSRmd3JZmJ5JPekooqT6QKKKKBhRRUlvazXlwkFvGZJX4VVH+eB60CbSV2R10Oi+C9Q1ULLMPslsed0g+Zvov9Tj8a6vw54Kt9MCXN8FnvOo4+WM+3qfc/hiur7U7Hj4nMteWl95z+m+C9K07DeR9olH/LSb5j+A6Ct5VVAAoAA6ACnUlUeVOpObvJ3FooopEBRj2FFFAGPqPhbSdSyZrNFc/wDLSMbG/Tr+Ncfq/wAPru1DS6bJ9pQc+W3Dj6Hof0r0iiix00cXVpbO67M8JkjeKRo5EZJFOGVhgj8KSvX9c8N2Wuw/vk2TgfJMo+Zf8R7GvL9Y0W60S7MF2nB+5Iv3XHt7+3/66mx7eFxsK6ts+3+RQooooO0KKKKACvSPAviA31qdPuXzcQL8hP8AGn+I6H8K83qxYX0unX0N3bnEkTbgPX1H0IyPxoRzYqgq9Nrr0Pb6Kq6dfRalYw3UBzHKoYe3t+dWqo+XaadmFFFFABRRRQAUUUUAFFFFABRRRQAUUUUAFFFFABRRRQAUUUUAFFFFABRRRQAUUUUAFFFFABRRRQAUUUUAFFFFAHMeO9W/s/RDBG2Jrs+WPZf4j+XH415fW/421I6h4ilRTmO2HlL9erfrx+FYFSz6TA0fZ0V3eoUUUUHaFFFFAD4IJLqdILdGklkbaqjua9W8M+G4dCtMtiS7kH7yTH/jo9v59azPAnh8Wlr/AGlcL/pEw/dgj7iH+p/liuwxVJHg4/FucvZwei/Fi0UUUHmBRXH+JfiFY6M721iovLwcEA4RD7nufYfmK831fxVrGtlvtd64iJ4iiOxPyHX8c0Aey3viTR9PJF1qVrGw/hMgJ/Ic1QPj/wANg4/tND7iNz/7LXiIAHQAfSigD3W38ZeH7pwsWrW249A7bP54rYiljmQPFIsiHoynI/SvnKrNjqN5psgksbqa3cd4nIB+o6H8aAPoeivMNB+KM0ZWHXYhJH/z8QjDD6r3/DH0NekWl7b39qlzaTJNDIMq6HINAE9UNV0q21iye2u03K3Qjqp7EHsav0Uxxbi009TxbWNJn0XUHtbkZxyjgcOvqP8ADtVGvXfE+hJrmmNGABcR/NC/o3p9D0ryOSNopGjkUpIhKspGMEf4VDPpMHiVXhrut/8AMSiiig7AooooA7n4dath5tMkbg/vYs/+PD+R/Ou+rxLS79tM1O3u0z+5cMQO69CPyzXtMUqyxI6EFWAYEdxVI+fzKjyVOZbMkooooPOCiiigAooooAKKKKACiiigAooooAKKKKACiiigAooooAKKKKACiiigAooooAKKKKACiiigAooooAKrX1ytlp89y/3Yo2c/gM1ZrnPHd0bbwxMo6zMsY/E5P6A0GlKHPNR7s8seRpXaRzl3JZie5PNJRRUn1gUUUUDCtbwxpH9s65DA4zAn7yb02jt+JwPzrJr0j4eaeINHkvWHz3L8H/ZXj+eTQjkxtb2VFtbvRHXKoVQAAAOwpaKKo+ZCvMvHXjp3kl0rRpSqKSs9wh5Y91U+nYn8BW58Q/EzaPpgsrV9t5dgjcDzHH3P1PQfie1eQdKACiiigAooooAKKKKACtnw14nvPDV6JLcmS3c/vrcnhx6j0b3/AD4rGooA+hNL1O21jT4r2zffFIMj1B7g+hFXK8X8CeJjoOrLBcPixumCyAniNugf+h9vpXtFACY4rzj4g6P9lv49RiXEdwdsmB0cdD+I/lXpFZXiPTf7U0K6t8ZcruTj+Icj+VDOjCVvZVU+nU8doooqT6kKKKKACvV/BV79u8M2245eDMLZ/wBnp+mK8oru/hpdc39qT3WVR+h/kKaPPzKnzUW+zO8ooopnzwUUUUAFFFFABRRRQAUUUUAFFFFABRRRQAUUUUAFFFFABRRRQAUUUUAFFFFABRRRQAUUUUAFFFFABXD/ABLmItbCAH70jPj6DH/s1dwa87+JUhOpWMfZYmb8yP8AChnZgI3xETjKKKKk+lCiiigBOe3U8CvbNJtBY6VbWwGPKjVfxx/jXj+lQi41iyiPR50B/wC+hmva+gpo8bNZ6xj8xaCQASeAO9FY/iy9On+FdSuFOHWAqp9C3yj9TTPHPHPE2rnXPEF3e5JjLbIh6IvA/Pr+NZVAGAB6UUAFFFFABRRRQAUUUUAFFFFAB14r2rwDrJ1jw1EJm3XFqfIkJPJx0P4jH4g14rXd/Ci9MWt3lmT8k8IcD/aU/wCDH8qAPVaD0oooA8W1y1+xa7ewAYCTMVHseR+hFUa6Lx3F5fimZv8AnpEjfpj+lc7Un1eHlzUoyfZBRRRQbBXTfD+YxeJRH2lhZT+GD/Q1zNbngxtniyz994/8dNCOfFK9Gfoet0UUVR8sFFFFABRRRQAUUUUAFFFFABRRRQAUUUUAFFFFABRRRQAUUUUAFFFFABRRRQAUUUUAFFFFABRRRQAV5v8AEj/kN2v/AF7/APsxr0ivOviTGRqlk/ZomX8iP8aGd2XP9+vmcbRRRUn0YUUUUAaXhvH/AAkunZ/57ivZa8U0aYQa3YyHok6Z/wC+q9qFUjws1XvxfkLXKfEpyngy4A/ikjU/99D/AArq65r4hwmbwXekdY9kn5MM/pmg8s8UooooAKKKKACiiigAooooAKKKKACup+G5I8aWwHeKTP8A3zXLV2fwutjN4qeb+GC3Yk+5IH+NAHrtFFFAHmHxDx/wkif9e65/76auXrpPH8m/xQ6/3IUX+Z/rXN1LPqMIrUI+gUUUUHSFbXg4FvFlj7M3/oJrFrovAcRk8UwtjiON2/TH9aDDEu1Gb8j1WiiiqPlQooooAKKKKACiiigAooooAKKKKACiiigAooooAKKKKACiiigAooooAKKKKACiiigAooooAKKKKACuH+JcBNtYTgfddkz9Rn/2Wu4Fc746tftPhedgMtAyyj8Dz+hNDOjCT5K0X5nlVFFFSfUhRRRQAmSOV4Ycg+le2aVeLqOmW12uCJYwxx2OOf1rxSvQvh3qgls5dOdvnhO+MH+6Tz+R/nTR5mZ0nKmprodrVTVLJdS0u6s2xieJo+fcYq3RTPBPnF42ido5AVkQlWB7EcU2uv8AiRobaZr5vY1xbXp3gjtJ/EPx6/ia5CgAooooAKKKKACiiigAooooAK9V+FemG30e51CRcNdSbUyP4F4/Vi35V5hbW0t7dQ20I3SzOEQepJxXv+mWEel6bbWUA/dwRhB747/iefxoAt0UUUAePeKbj7T4nv3zkCTYP+AgD+hrJr1y/wDCWkakzPLaKkrHJkiJQk+vHU/WudvPhtwTYXxHos65/Uf4UrHvUMfRUVF3VlY4Witu98Ha1Y5JtDMg/ihbf+nX9KxZI3hcpMjRuOquNpH50jvhVhNe60xK7P4bW2/ULy4xxHGsYP1OT/6CK4yvTvh/ZfZvD/nMMNcSF/w6D+Wfxpo5Mwny0Gu9kdTRRRTPnQooooAKKKKACiiigAooooAKKKKACiiigAooooAKKKKACiiigAooooAKKKKACiiigAooooAKKKKACobu3W7tJoH+5KhQ/QjFTUUAnZ3PCpoXtp5IJAQ8TFGB9QcU2um8eaZ9i10XKLiO6XdkDow4P9K5mpPrKFRVaakuwUUUUGoVb0vUZNK1KG8i5aM/Mv8AeU9R+VVKKCZRU4uMtme3WN5DqFnFc27h4pV3Kasdq8u8HeJf7Hufst03+hTNwT/yzb1+h7/n616grBlBU5B5BFUj5jFYeVCdnt0M/XtGg17SZbK4GA/KOByjDow/z0yK8M1TTLnR9Qlsr2PZLGe3Rh2Yeor6FrF8R+GbLxLZiK5UpMmfKnUfMh/qPb+RoOc8JorX17wxqXh2YreQkwk4W4QZRvx7H2P61kUAFFFFABRRRQAUUUUAbPhHUbfS/FFldXiAwqxUseke4Y3fhmvd+vIr5vr1/wCHPiH+1dG+xXD5u7MBSSeXT+E/0/AUAdjRRRQAUUUUAFQXNlbXibLmCKVfSRAw/Wp6KATa2OYvvAWj3QJhjktXI6xPwPwPFdBZ2sdlaRW0IwkSBF+gGKmpaDSVWc0lJ3sFFFFBmFFFFABRRRQAUUUUAFFFFABRRRQAUUUUAFFFFABRRRQAUUUUAFFFFABRRRQAUUUUAFFFFABRRRQAUUUUAYXi3SP7Y0SSNFzPF+8i9yO34jIryWvdq8t8baIdL1Y3ES4tbolhgfdfuPx6/nSZ6+WV7N0n8jm6KKKR7QUUUUAFdb4S8Yf2btsdRYm16RyH/ln7H/Z/l9OnJUUGNajGtFxkj3RHWVAyMGUjIIPWn15N4c8WXWhMIpA01mT/AKsnlP8Ad/w6fSvS9M1W01e1E9nKHQ9R3B9COxqrnzuIws6D11XctyRpLGY5UV0YYKsMg1y2p/DbRNQZngSSykPeA4XP+6ePyxXWUUHMeW3vwnvY8my1GGYDosqFCfxGa5TVvDmqaGf+JjZvHHniUfMh/wCBD+uK99pkkaTRtHIiujDDKwyDQB85UV33jbwEthFJqejofs6/NPbj/lmP7y+3t26jjiuBoAKKKKACtPw/rUugazb38eSqHbKo/jQ9R9e/1ArMooA+jLe4iu7aOeBw8Uih0YdCDyKkrzv4X+IfMhfRbl/njzJbknqv8S/gefoT6V6JQAUUUUAFFFFABRRRQAUUUUAFFFFABRRRQAUUUUAFFFFABRRRQAUUUUAFFFFABRRRQAUUUUAFFFFABRRRQAUUUUAFFFFABRRRQAUUUUAFZ+s6XFrGmy2k3Rx8rY5U9iK0KKBxbi01ujw69s5tPvZbW4XbLE2GHY+hHsetQ16f4x8N/wBs2n2m1UfbIR8oH/LRe6/4V5gQQSCCCDggjGKln02ExKrwv1W6Ciiig6gooooAKsWV/dabcCezmaGQdx39iO4+tV6KCZRUlZq6PRdD8f21zth1VRbTdBIP9W3/AMT+PHvXXpIkiBkYMpGQQeDXhdd/8OrK6W2lu5JZRbP8sURPynHVsfpx700zxsbgqdOPtIu3kdxRRRTPJEIDAggEHgg14r458Njw/rZNumLO6y8OOin+JPwzn6Gva6xPFuhL4h0Ka1AHnp+8gb0cdPwPI/GgDwqildGRysilXU4ZSMYI/qKSgAooooAsWN7Npt/BeWrbZoHDqex9R9DyPxr3vR9Uh1nSre+tz8ky5xn7p7g+4ORXz5Xc/DPxD9h1JtJuHxBdHdESeFk9P+BAfmB60Aer0UUUAFFFFABRRRQAUUUUAFFFFABRRRQAUUUUAFFFFABRRRQAUUUUAFFFFABRRRQAUUUUAFFFFABRRRQAUUUUAFFFFABRRRQAUUUUAFFFFACVw3jTwp5u/U9PjzJ1miUfe9WHv6jv9a7mg0GtGtKjNSieE0Vt+L1sk8QTpYLtA/1oX7vmd8enb8c1iVJ9RSn7SCla1wooooNAooooAu6Npcus6pFZw5G85dh/Cg6n+n1Ir2S1to7O1jt4VCRxqFVR2ArnPBGhf2Zpn2qZcXN0NxBHKr2H9fxrqapHzmPxHtanKtkFFFFBwhRRRQB5L8S/D/8AZ+rDU7dMW94cSYH3ZO//AH0OfqDXE17/AK5pMWuaRcWE+AJV+Vv7rDkH8DXgt1bS2d1NbXKbJoXKOPcf0oAiooooAKcjtG6ujFXUhlYHBBHf6im0UAe6eEteXxDoMN0cCdf3c6+jjr+B4P41uV4p4F8Q/wBha8qzPizuiI5cnhT/AAt+BOPoTXtdABRRRQAUUUUAFFFFABRRRQAUUUUAFFFFABRRRQAUUUUAFFFFABRRRQAUUUUAFFFFABRRRQAUUUhIUEkgAdSaAForlNZ+IejaSWjika9nHGyDlQfdun5Z+lcRqnxL1q+ytqYrGM8ARjc//fR/oBQB6/JKkSbpHVF9WOBT6+dLu9ur5zJd3M07nvJIWx+de9eHtR/tXw/Y3mctLCpb/e6H9QaANGiiigAooooAKKKKAE5rG8Ua2uh6Q8qkfaJPkhU/3vX6DrWwxCAljgAckmvIvFGtnW9XeVCfs0XyQjsR/e+pPP0xQzrwWH9tU12W5jks5LMSzMclic5NFFFSfShRRRQMK3vB+iHWdXDyrm1tyHkyOp7L/X6D3rCiieaZIolLvIwVVHcmvYfD+jpoekxWy4Mn3pWH8THr+Hb6Cmjgx+I9lT5VuzVAwKKKKZ86FFFFABRRRQAV5r8UPD2149bt04OI7kAf98t/T8q9KqvfWkOoWU1rcoHhmQoy+oNAHzvRV3WNLm0TVriwuMl4WwGxjcvZvxFUqACiiigA68V7H8PfEP8AbOii2uHzeWeEbJ5ZP4W/TH1FeOVqeHdcl8PazDfRguoBWWMHG9D1H16H6igD3yivJ9R+KmqT7lsLaC1XPDPmRv6D9DXOXvijWr/P2nVLoq3VUfYPyXFAHus93b2y5uJ4oh6u4X+dZ83irQrckSatZgjsJQf5V4M+ZDuclm7ljmkoA9xPjrw4P+YtB+AJ/pSr438OvwNWt/xJH868NooA9+t/EOkXOPI1SzcnoBMuf51oI6yKGRgynoQcivnEgHqAfrU1vc3Fq4a2nmhYdDFIV/lQB9FUV4lYeP8AxBYYH237Qg6rcKHz+PX9a6zS/ivbyYTVbJ4T3khO9fyPI/WgD0GiqOm6zp+sQ+Zp93FOo6hG5H1HUfjV6gAooooAKKKKACiiigAooooAKKKKACiiigAopCwUEk4A5JNeceLviPhnsdBcEjKyXY5H0T1/3vy9aAOn8SeM9N8OqY5XM92R8tvEef8AgR/hH1/I15Zr/jHVfEBK3E3k2xPFvEcL+Pdvx/IViO7SOzuzM7HLMxySfc+tJQAUUUUAFerfCrUftGh3Nkx+a1myoJ/hbkfqDXlNdf8ADPUfsfikW7HCXcRTk/xD5h/Ij8aAPYaKKKACiiigAooqrqN9FptjNdTtiOJSx9/b65oBJtpI5jx9rv2OyGmwNia4HzkH7qd/z6fTNec1Z1G/l1TUJruc/PK2cddo7D6YwKrVLPqMJQVCml16hRRRQdIUUVb0rTpdW1KG0h4aQ/McfdXufyoJlJRi5S2R1Xw/0LzZm1WdfkQlIAR1Pdv6fnXoVV7K1hsbSK2gXbHEoVQPQVYqj5fEVnWqOT+QUUUUGAUUUUAFFFFABRRRQBw3xM8PfbtMXVLdMz2gxIAOWj/+sefoTXlFfRzosiFGAZWGCCOorwvxZoDeHteltlB+zv8AvLdj3Q9vqDx+VAGLRRRQAUUUUAFFFFABRRRQAUUUUAFFFFABRRRQA+GaW2mWa3leKVTlXRipH4iu40D4n3dmVh1mM3UPTzkAEi/UdG/Q/WuEooA+g9M1Wy1i1Fzp9wk0R4JU8qfQjqD7GrtfPWm6neaReC60+doZV6kchh6Edx9a9X8KePLXXttrebbbUOgTPyy/7p9f9k8/WgDrqKKKACiiigAooooAKKKKACmuyxoWZgqgZJJ4FOryz4heMTeSyaPpsn+jIdtxKp/1jd0HsO/qeOnUAr+NvHL6sz6fpcjJYKcSSjrP6j2X+f0riqKKACiiigAooooAKs6betpup2t4vW3lWT64PP5jIqtSHGOenvQB9HxyLLGroQVYBgfUGnVheC7ma58Jae1zHIkqR+WQ6lSQvAPPqADW7QAUUUUAFeceP9d+1Xg0y3b91Ad0pB+8/Yfh/M+1dd4m1oaHpMk4IM7/ACQqe7Hv9B1/CvIXdncu7FnY5Zic5J/xpM9XLcPzS9rLZbeoUUUUj3AooooAK9L8C6F/Z2nm9nXFxdAEAjlU7D8ev5VyHhLRP7a1dfMXNtBh5c/xei/j/IGvWvSmjx8zxH/LqPzFooopnjBRRRQAUUUUAFFFFABRRRQAVzXjrw9/b2hMYEzd22ZIcdW9V/EfqBXS0UAfN9Fdb8Q/D39j62bqBMWl6S64HCv/ABD8ev4muSoAKKKKACiiigAooooAKKKKACiiigAooooAKKKKAClBIIIJBB4IOMUlFAHpngrx+ZzHputSjzT8sNyxxv8ARW9/fv8AXr6JXzfXpvgDxobnZo+qS5mHFvM5/wBZ/sH3HY9/r1APQ6KKKACiiigAooqpqeow6Vps99cnEUCFj7+gHuTgfjQBy/xC8Vf2PYDT7OTF7dLywPMSdM/U9B+J7V5FVrU9Sn1fUp766OZZm3EZztHYD2AwKq0AFFFFABRRRQAUUAEkAAkk4AAzmvQPCvw3ecJd68rRxnlbUHDN/vnt9Bz6kdKAOV0LwzqXiKbbZQ4iBw878Iv49z7DP4V6j4e8A6Xoe2aVftl4OfNlXhT/ALK9B9eT710tvbxWsCQ28axRIMKiDAAqSgAooooAKRmCqSTgClrkPHuufYrEWFu+J7kHeQfux9/xPT86DSjSdWagupyHirWzreru6MTbQ5SEeo7t+J/QCsaiipPqacFTioR2QUUUUGgUscbyyLHGpeRyFVR3J/xpK7LwBoXnznVbhf3cRKwgjq3c/h0+pNBjiKyo03J/0zrvDeiromlR2/BlPzSsP4mPX8O34Vr0UVR8tObm3J7sKKKKCQooooAKKKKACiiigAooooAKKKKAMrxJosev6LPZSYDt80TH+Fx0P9PoTXg80MltcSQzoUliYo6nsRwa+ja8u+J/h77PdJrNun7uYiO4AHRv4W/EcfUCgDgKKKntLS4v7lbezgknmbokYyf/AKw9zQBBT4opLiQRQRvJKxwFQFifwFehaH8LHkCza5cbB1+zwHn8W/w/Ou90zRtP0eHy9PtIoFxyVHJ+p6n8aAPJ9N+HWu3+Gkhjs4z/ABTtz/3yOfzxXTWfwltEwb7UZ5T3WJQg/XNegUUActB8OfDsIG60klPrJM5/kasf8IF4bxj+y4/++3/xroaKAOTufhp4fnz5cM8B9Y5j/XNc/qPwnlQM2maiHPaO4XH/AI8v+FemUUAeAaroGpaI2NQtJIlJ4kHKH6MOKzq+jZYo54mjmRZEYYZWGQfwrgPE3wzinD3Wg4hl6m2Y4Rv90/w/Tp9KAPMaKkmhltp3guI2iljO1kcYKmo6ACiiigApQWQhlJVlOQwOCD/iKSigD2bwL4qHiDTTDcsPt9sAJP8ApovZx/I+9dVXz7o+rT6HqsF/bH54j8y54de6n8P6GvedOvodSsILy2bdDMgdTQBZooooAK8x+KeuGW5h0aBvkjAmnx3Y/dH4Dn8RXpF5dR2VnNczHEcKF2PsBk18+399LqWo3F7P/rbiQu3tnt9AMD8KAK9FFFABRRRQAU+GGW5nSGGNpJZGCoijJYnsKYASQACSTgADOa9f8C+DV0O2F9fJnUZV6HnyFP8ACPc9z+HTqAJ4N8CQ6IiXuoBZtRIyB1WD2Hqff8vU9lRRQAUVXu7yCxtmnuZVjiTksxwK4DXPH1zcs0OlKbeLp5rD52+g7D8z9KDehhqld2gvmd5e6laafHvvLmKBf9tsZ+nrWBdfELSICRD59wR3RMD9cV5pLLJPIZZpGkkPVnO4n8TTaVz1qeVwS99tv8DvW+JcXOzTZCe26QD+lcZqWoS6nqM13OfnkbhQc7R2A/CqtFK52UcLSou8FqFFFFB0BRRRQBb0rTpdW1GG0h4aQ8tj7q9z+VeyWNpFYWcVtAu2OJQqiua8CaH9h077dMuLi6AIyPup2H49fyrrBVI+dx+I9rU5VshaKKKDgCiiigAooooAKKKKACiiigAooooAKKKKACqupWEOqafPZXK7oZ0KMPT3+oOD+FWqKAPJ9I+GN/c38q6lILe0ikK7l5eYDuvoD6n8q9J0rRLHRLYQafbrEv8AEw5ZvcnqTV+igAoori/E3xGtNId7XTVW8u14Y5/dxn3I6n2H5igDtKzrrxBpNkSLnUrSNh/C0y5H4V4pqviXVtZcm9vpWjP/ACyQ7EH/AAEf1zWUAB0AH0oA91HjXw8TgavaZ93wK0LXV9PvsC0vracnoI5VY/oa+e6TABBHBHQjjFAH0jRXhek+M9b0cgQ3rSwj/ljOd6kfjyPwIr0Xw58Q9P1p0t7wCyvG4Cufkc+it6+x/WgDr6KKKAOb8V+D7XxJa71xDfIP3c4HX/Zb1H8u1eN3tlcabeS2l3E0U8R2sp/T6g9c19EVyvjfwmniGw8+2ULqEC/u2/vjuh/p6H2JoA8ZopSGQlWUqynBUjBB/wARSUAFFFFABXovws10rLNos7fKwM1vk9D/ABL/AF/OvOqs6dfy6VqVvewf6yCQOB646j8RkfjQB9D0VFa3Md5axXMLbo5UDqfYjIqWgDjfidqX2LwwLVTh7yQJ/wABHzH+QH415DXb/FS+Nx4gt7QH5baDJH+0xz/ICuIoAKKKKACiiprK0lv72C0txmWeQRr9Tx+Q6/hQB23w08Mi9uzrN2mYYG226kfefu30HT6/SvVKqaZYRaXp1vZW4xFAgQe/qfqTk/jVugAqnqOoW+mWUl1dPtjQZJ7n2Hqat5ryrxjrzavqRhhfNpbsVXB4duhP9BQzpwuHdefL06lHXdeutdu/MlJSBT+7hB4X6+p96zKKKk+lhCMIqMVZIKKKKCwooooAKKKKACrWlWg1DVbS1P3ZpVVvp3/TNVa1fC0ixeJ9PZuhl2/mCP5mgzqtqDa3SZ7AqhFVVAAAwAKdRRVHyQUUUUAFFFFABRRRQAUUUUAFFFFABRRRQAUUUUAFFFFABRVS/wBUstKgM1/dRQIB1dsZ+g7/AIV5r4q+I8uoRyWeih4Lc8PcHh3Hov8AdB9ev0oAuePfHDZk0jSJsY+W4nQ/+OKf5n8PWvOOlFFABRRRQAUUUUAFHWiigDu/BPj6SxePTtYlL2rYWKdzkxezHuvv2+nT1QEMAQcg9xXzhXqHw08UNdQnRbxy00K7rdifvIP4fqP5fSgD0CiiigDyr4meHRZX6avbJiG6bbOAPuydj/wIfqPeuEr6B1vS49a0a6sJMYmQhT/dbqD+Bwa8AkieGR4pFKyRsVZT2I4P60ANooooAKKKKAPX/hlqf23wz9lZsyWUhj/4CeV/mR+FdjXk3wsvvs/iG4tCfluYMgerKc/yJr1mgDwLxHqJ1bXrm8Jz5m3H4KB/SsykGcDPWloAKKKKACux+GGnC88TPdMMraQlhkfxN8o/TNcdXqHwktwumahcY5knVM/7q5/9moA9AooooAw/F2pnS/D87o2JpP3UZHYnv+AyfwryPpXc/Eq5Pm2NsDwA0hH5Af1rh6TPoctpqFHm6sKKKKR6AUUUUAFFFFABRRRQAUscrwyJLGcSRsGU+hHNJRQLc9t028TUNOt7qP7ssYce2RVquW+H10Z/Dvlk5MErJ+B+b/2aupqj5OtD2dRx7Mz9fnmtdAv57Zyk0Vu7owGcELkV4/8A8J54k/6Cj/8AftP/AImvXfEpx4X1Q/8ATrJ/6Ca8BHQUGZ0P/Cd+JP8AoKP/AN+0/wDiaP8AhO/Ef/QUk/79p/8AE1z9FAG//wAJ34j/AOgpJ/37T/4mj/hOvEf/AEFZf+/af/E1gUUAb/8AwnXiP/oKy/8AfCf4Un/CceI/+grN/wB8J/hWDRQBvf8ACceI/wDoKzf98J/hR/wnPiP/AKCsv/fCf4Vg0UAb/wDwnXiP/oKy/wDfCf8AxNL/AMJ34j/6Ckn/AH7T/wCJrn6KAOhHj3xIP+Ym34xp/wDE04fEDxIP+Yj+cKf4VzlFAHRn4g+JTx/aI/CBP8Kq3HjLxBcgh9WuQD1CEJ/IVjUUAOllkuJDJPI8sh6s7FifxNNoooAKKKKACiiigAooooAKKKKACrFhfS6ZqFve25xLBIHX3x1H0IyPxqvRQB9E2V3Hf2UF1AcxzoJEPsRmp65H4aXpuvCMcTHLWsrRfh94fo2PwrrqACvFfiFpw0/xdcMq4julE6/U8N+oJ/Gvaq82+LdsN2mXQHJ8yIn8iP60AecUUUUAFFFFAGz4RujZ+LdMlzgGcIT7N8v9a93r51tZTDeW8o4McqsPwYGvorI9RQB830UgORmloAKKKKACvWvhT/yLFx6/a2z/AN8rXkteofCSfdpuowZ5SdXx/vLj/wBloA9AooooA81+I+f7ctvT7P8A+zGuSrt/iXbETWF0OhDRn9CP61xFSz6XAtOhH+uoUUUUHYFFFFABRRRQAUUUUAFFFFAHf/DNz9kv17CRT+n/ANau4rjPhrCV0q7lP8c2B+Cj/GuyqkfMY1p15WMbxlJ5Xg/VG/6d2X8+P614TXs/xHuPI8F3S95mSMfiwJ/QGvGKDlCiiigAooooAKKKKACiiigAooooAKKKKACiiigAooooAKKKKACiiigAooooAKKKKACiiigD074RuTYamnZZkP5r/wDWr0KuB+EsBTR7+cjiS4Cj/gKj/wCKrvqACuG+K8YOgWb91uhj8Vau5rhfixIBoNlH3a6yPwVv8aAPKaKKKACiiigAPAJ9Oa93+2N6mvCCM8evFe9fYW9KAPCJoWtpmhcYZeCD+f8AWmV0vxBsBYeLpwi7Y5o0kUdsbdv81Nc1QAUUUUAFdr8LL4W/iSa1Y8XUBwP9pTn+RNcVVzR9RbSNZtL4Z/cShmA7r0P5gmgD6EopsciyxrJGwZGAZSO4NOoA5/xnp51Dw7OEXMkGJlA9uv6ZryivdmAYEEZBryDxNozaLrMkKqfs8h8yE9tp7fUH+lJnsZXWWtN+qMiiiikeyFFFFABRRRQAUUUUAFJ0yaWtvwporazrMYdc28BEkpPf0X8T+gNBnUqKnBzeyPQ/CtgdN8PWkMgxIy+Y49C3P6Zx+FbFLRVnyk5OcnJ9Tz74s3uzT7CzB5klMrD2UYH6t+leYV1XxH1IX/iySJTlLRBCMf3up/U4/CuVpEhRRRQAUUUhOAT6c0ALRXrWi/DrRpdGs5L+2ke6eJXlYSsvzEZ6A9s4/Crv/Ct/Dn/PpJ/3/f8AxoA8Yor2f/hW/hz/AJ9JP+/7/wCNH/Ct/Dn/AD6Sf9/3/wAaAPGKK9n/AOFb+HP+fST/AL/v/jR/wrfw5/z6Sf8Af9/8aAPGKK9n/wCFb+HP+fST/v8Av/jR/wAK38Of8+kn/f8Af/GgDxiivZ/+Fb+HP+fST/v+/wDjR/wrfw5/z6Sf9/3/AMaAPGKK9jn+GugSQOkUEsUjKQriZjtPrgnnFeTanptxo+pTWN2u2WJsEjow7MPYjmgCrRRRQAUUUUAFFFFABRRRQAUUVseFdDbxBr9vabSYVPmTsOyD/HgfjQB6x4F006Z4Sso3XbLKpmcH1bn+WB+FdBSBQoAAAA4wKWgArzP4t3Qa5020HVVeU/jgD+Rr0yvEfHepDUvF14ynMcBEC8/3ev8A48TQBztFFFABRRRQBYsYTcahawjkyTIn5sBX0RXhngq1N54w02PGQkvmH/gILfzAr3OgDzn4s6cTDYaiq/cZoJD7Hlf1B/OvNa968UaV/bXh28sgMyOmY/Zxyv6gV4Lz0III4IPagAooooAKKKKAPX/htrg1PQBZStm4scIc9TH/AAn+Y/CuxrwPw7rkvh7WYb6MFkHyyoP40PUfUdfqK92tLuG+tIrm2kEkMqh0YdwaAJqyPEWhRa9pzQOQkq/NFJj7rVr0UFQm4SUovVHh13aT2F1Jb3UZjmjOGB/p6g+tQ167r/hu116ACUeXcIP3cyjlfY+o9q8y1fQb7RJit5EdhOFlXlG/HsfY4qWj6HC42FZWej/rYz6KKKDuCiiigAoorZ0XwrqGtOGSMwW5PM0gwCPYdz+nvQZzqRprmm7Iz9P0+41O8S2tYy8jn8FHqfQV61oWiwaHp6WsPzN96SQjl29f89qNF0G10O18q1T5j9+RuWc+5rU5zVJHgYzGOu+WOiQVS1fUotI0m5vpvuQRlsep7D8TgfjV2vLvif4h+03KaNbPmOEh7gg9X7L+A5+pFBwnBzTSXM8k87bpZWLu3qScmmUUUAFFFFABWh4f006vr9lZYJWWUb8dkHLfoDWfXoXwo0kyXV3qsi/LGPIiJHc8t+QwPxNAHpwwMAdKKKKACiiigAooooAKKKKACiiigArk/HfhT+37AXNoo/tC3Hyf9NF7p/Ue/wBa6yigD5wIZSVZWVlOCpGCD/iKSvW/GPgKPWy99pu2G/xllPCzfX0b3/OvKrq0uLC5e3u4XhmQ/MjjBH/1vcUAQ0UUUAFFFFABRRVnTtNu9WvFtbGBp5j/AAqOB7k9h7mgCCGGW5mjhgjaSWRgqIoyWJ7V7Z4N8MJ4a0vbJta9nw07jseyj2H6kk1W8H+CIPDqC5uCs+oOMFwPljH91f6nv7CuroAKKKKAMnxNrC6FoNzekjei7YlP8Tnhf15+gNeDEs5LMSzMclj3Ndf8RPEY1fVhY2z5tLMkEg8PJ0J+g6fnXH0AFFFFABRRRQB3fwosPN1m8vSPlt4hGp/2mP8Agv616rXK/DnTDp3hSGV1xLdsZ2yMHB4X/wAdAP411VABXivxA0Q6P4lkkjXFveZmjwOA38Q/Pn8a9qrn/Gfh/wD4SDQZIo1H2qE+ZAf9ofw/Qjj8qAPD6KCCCQQQQcEEYIooAKKKKACuw8CeMv7CuPsGoOf7PlbKsf8Algx6n/dPf06+tcfRQB9HIyyIGUhlPIIPBp1eO+EPHc+g7bO/3T6fnC45eH6eo/2fy9K9Ysb+21O1S5sp0nhccMhyP/rH2NAFqmSRJNGY5EV0YYKsMg0+igNjl9R8A6XeEvbiS1kP/PM5X/vk/wBMVgz/AA3vVJ+z3sDr/wBNFK/yzXo1FFjqp42vBaS+88yHw61YnBmtQPXe3+FXbf4bSkg3eoKB3WJP6n/CvQKMUWLeY12rX/AwNO8G6TpxDrB58g6PMd36dB+VbwAHAApaSmck6k5u8ncWiiuW8V+OLTw9G0EBW51AjiIHhPdz2+nU+1Ikf4z8Vx+HNP2QkNfzAiFD/D6uR6D9Tx614tJI8sjSSMzyOSzMxyWJ7n3NT319caneyXd5K0s8hyzH9APQDpiq9ABRRRQAUUUUAKkbSuscalpHIVVHcnjH41734c0ddC0K1sRgvGmZGH8Tnlj+ZNec/DTw+b/Vm1SdM29mcR5H3pP/ALEc/UivWqACiiigAooooAKKKKACiiigAooooAKK4fxL8SLfSbsWumRJeSo379i2EX1UEdT79B71t+H/ABbpviOMC2l8u5Ay1vIcOPp6j3FAG7Wfq2hafrkHlajbJMB91jwy/QjkVoUUAeaap8J3BL6Tfgr1EVwOn/Ah/UVzdz4D8RWpOdOaUf3oZFbP65r2+igDwX/hE9e3Y/se8z/1zq7a/D/xFdMP9A8lT3mkVcflzXttFAHnGl/CdQVfV74uB1itxgf99Hn8gK7vTdJstHthBp9tHBH3CjlvqepP1q5RQAUUUUAFcR4+8YDSbdtMsJP9OmX52U8wqf8A2Y9vTr6VN4y8cxaJG9lYMkuonj1WD3Pqf9n8+OvkcsslxNJNO7ySyMWZ2OSxPc0AMooooAKKKKACr+h6W+taza2CZ/fPhyP4UHLH8gaoV6f8LtBNvZyaxOuJLj93BkdEB5P4kfkKAO+iiWGJI41CoihVUdgKfRRQAUUUUAeU/EnwwbG+OsWif6NcNidQPuOe/wBG/n9a4Wvoq7tIb61ltrmNZIZVKupHBBrw/wAU+Gp/DWptA+57aTLQSkfeX0PuP/r0AYtFFFABRRRQAVe0jW7/AEO58/TrhomJ+Zeqv9V7/wA/eqNFAHqmi/FGyuVWPV4WtJehlQF4z/Ufr9a7Szv7TUYRLZ3MU6H+KNww/SvnenQTS20gkt5XikHRo2Kn8xQB9HUV4daeOvENkoCak8ijtMof9TzWpF8UtdjGHispPcxsP5NQB67RXkp+K2skcWtgp9dr/wDxVU7j4k+IpshbiCEH/nnCOPzzQB7NWHq3jHRdGBFzeo8o/wCWUPzv+Q6fjivGr3XtV1LIvNRuplPVTIQv5Dis8ADoKAO1174l6hqIaDTENjAeC+cyt+P8P4ZPvXFkkkkklmOSSc5oooAKKKKACiiigAq1pmm3Gr6lDY2i7pZm2jPRR3J9gOaqgM5CqCzMcBQMkn/E17H4E8JjQLD7VdqP7QuF+f8A6ZL2QfzPv9KAN/RtKg0TS4LG2HyRLgk9WPcn3JyavUUUAFFFFABRRRQAUUUUAFFFVNR1K10myku72ZYoUHLHv7D1PsKALEsqQxNJM6pGgyzMcAD3ryzxh8QZNR8yw0Z2jtD8r3A4aX2X0X36n2FZXivxndeJJWhi3Qaep+WHPL+7/wCHQe5rmqADpSo7I4dWZXU5DA4I+nvSUUAdnoXxL1LTtsOpL9vgHG8nbKPx6N+PPvXoejeLtH1wBbS7VZj/AMsZfkf8j1/DNeE0entyPagD6QorwrTPGOuaSAtvfyPGOBHN+8UfnyPwIrp7L4tXCAC+0yOT1aGQr+hz/OgD06iuJh+KmjOo863vYj6eWG/kan/4Wf4fx966Pt5BoA6+iuFufivpkYP2ayu5j23BUH865/Ufilq1yCtjBBZqejH94w/Pj9KAPUb7ULXTbdri9uI4Il6tI2B/9f6CvN/E3xLlug9roQeGM8NcsMO3+6P4fqefYVxN7f3epT+dfXMtxL2aRs4+noPpVagBSSSSSSzHJJPX/wCvSUUUAFFFFABRRUlvDJdTxwW8bSSyMFRFHLE0AaXhrQpfEWsxWabhCPnncfwoP6noPrXu0EEdtBHDCgSONQqqOgA4FYnhHw1H4a0gQnD3cuHuJPVvQew6fma36ACiiigAooooAKztb0a017TZLK8TKNyrDqjdmHuK0aKAPAtf0C88Pag1reLkHmKUD5ZF9R7+3b9azK+gdY0Wz12wa0vot8Z5UjhkPqD2NeM+JfCl74aucTgy2jHEVwowG9m9D7flQBiUUUUAFFFFABRRRQAUUUUAFFFFABRRRQAUUUUAFFFFABR6dck4AHOafBBLdTpBbxNLLIcKiDJY16v4N8Ax6OyX2qBZb4cpGOVh/wAW9+3agCv4D8D/AGDZquqx/wClEZhhYf6r/aP+1/L69O+oooAKKKKACiiigAooooAKKKKAKmqX39m6dcXfkS3HkoW8uIZZvpXh+veIr3xJeefePiNT+6hU/JGPb1Pv/Tive6898Z/D77SZNR0SMCY/NLbDgP7r6H27/XqAeY0UpDI5VlZWU4KkYIP+NJQAUUUUAFFFFABRRRQAUUUUAFFFFABRRRQAUUUUAFFFSW8Et1OkFvG0ssh2qiDJY0AMAZ3CqrMzHAUDJJ/xNeueBfBg0SIahqCA6hKvyr18hT2/3j3P4fVPBvgWPRNt9qQWXUCPlUcrB9PVvf8AL37SgAooooAKKKKACiiigAooooAKiubaG8t3guYklhkG1kcZBFS0UAeW+JvhpNbF7rQt00PU2zHLr/un+Iex5+tcEyNG7I6srqcMrDBB9x619H1ia74T0vxCpN5BtnA+WeP5XH49x7HNAHhVFdhrPw11bTS0ljtv4Bz8g2yD/gPf8M/SuRljkhkMUyNHIpwVcFSPwNADaKKKACiiigAooooAKKKKACikyB1rc0fwbrOtlWt7RooW/wCW0/yL+GeT+ANAGJW54e8Ian4icNbx+Ta5+a5kGF/4D/eP049xXoGhfDXTdNZZtQP2+4XnDriNT/u9/wAc12SoqKFUBVAwAOgoAxfDvhTT/DcOLWPzLhhiS4kGXb/Aew/WtyiigAooooAKKKKACiiigAooooAKKKKACiiigDlvFPgey8QKZ4cW1+BxKBw/s47/AF6/WvJ9X0S/0O6+z6jA0bH7rdVf6Hv/AD9q+garX1jbalatbXsCTwt1V1z/APq+tAHzxRXouvfC51LTaFNuXr9mmbkf7r/0P51wV7Y3WmzmC9t5beUfwyLjP09R9M0AV6KKKACiiigAooooAKKKKACiiigAoq7pmkX+sTeVp1rJO2cFlHyr9WPA/GvQdA+F0MO2fW5RO45FvGSEH1bqfwwPrQBw+heGtR8RT7LKLEKn5534Rfx7n2H6V634a8I2HhqHMKma6YfPcOPmPsP7o9h+JNbcFvFbQpDbxpFGgwqIMAD6CpKACiiigAooooAKKKKACilooASilooASilooASilooASqWoaRYarHs1CzhuFxxvQEj6HqPwq9RQBxGofCzSLklrOe4tGJztB3r+R5/WueuvhRqkWTa3trOo6BwyE/zr1iigDxKb4e+JIc/6Asg9Y5kP8zVN/CHiBODpF3+Cg/yr3migDwQeE9ePTR7z8Y8VZh8C+IpiANLlX3d0X+Zr3KigDx61+F2uzY89rS3HfdIWP6Ct6x+E1smG1DUZpfVYUCD8zn+leh0UAYumeEtF0jDWlhF5g/5ayDe/5np+GK2aWigBKKWigBKKWigBKKWigBKKWigBKKWigBKKWigBKKWigBKKWigBKKWigBKr3lja6hAYby3iniPVZFDD9as0UAcNqnwu0u6JfT5prJz/AA/6xPyPI/OuVv8A4aa7Z5NusF4g7xvtP5N/ia9jooA+fLrRNTsc/atOu4sd2iJH5jiqJIBwTg+h4r6RrkvFX8VAHjeR6j86Mr6j863rz/WH61LYf6wfWgDnU+c4QFj6AZrSs/DmsX2Ps2mXbg9GMZUfmeK9e8M/6kfSugoA8i0/4X6zckG7kt7NO4Lb2/IcfrXV6X8MtGsdr3fmX0g/56nCf98j+ua7KigCKC3itoVit4kijXgIihQPwFSUtFACUUtFACUUtFACUUtFACUUtFAH/9k=;labelPosition=center;verticalLabelPosition=bottom;align=center;verticalAlign=top;" parent="1" vertex="1">
          <mxGeometry x="1310" y="422.97" width="75.07" height="70" as="geometry" />
        </mxCell>
        <mxCell id="laidLwRTKifzdVjJaCIg-1" value="Alerts Definition File (.yml)" style="sketch=0;outlineConnect=0;fontColor=#232F3E;gradientColor=none;fillColor=#232F3D;strokeColor=none;dashed=0;verticalLabelPosition=bottom;verticalAlign=top;align=center;html=1;fontSize=12;fontStyle=0;aspect=fixed;pointerEvents=1;shape=mxgraph.aws4.document;" vertex="1" parent="1">
          <mxGeometry x="810" y="97.03" width="57" height="78" as="geometry" />
        </mxCell>
        <mxCell id="laidLwRTKifzdVjJaCIg-3" value="alertmanager.yml" style="sketch=0;outlineConnect=0;fontColor=#232F3E;gradientColor=none;fillColor=#232F3D;strokeColor=none;dashed=0;verticalLabelPosition=bottom;verticalAlign=top;align=center;html=1;fontSize=12;fontStyle=0;aspect=fixed;pointerEvents=1;shape=mxgraph.aws4.document;" vertex="1" parent="1">
          <mxGeometry x="1042.34" y="490" width="57" height="78" as="geometry" />
        </mxCell>
      </root>
    </mxGraphModel>
  </diagram>
</mxfile>
